<svg width="22" height="22" viewBox="0 0 22 22" fill="none" xmlns="http://www.w3.org/2000/svg">
<path d="M16.8667 4.03333L16.775 3.94167C16.0417 3.20833 14.9417 2.75 13.9333 2.75H8.06667C7.05833 2.75 6.05 3.20833 5.225 3.94167L5.13333 4.03333L3.575 6.23333C3.025 7.05833 2.75 7.975 2.75 8.89167V15.5833C2.75 17.6 4.4 19.25 6.41667 19.25H15.5833C17.6 19.25 19.25 17.6 19.25 15.5833V8.89167C19.25 7.975 18.975 7.05833 18.425 6.23333L16.8667 4.03333ZM5.04167 7.33333L6.50833 5.225C6.96667 4.76667 7.51667 4.58333 8.06667 4.58333H13.8417C14.3917 4.58333 14.9417 4.76667 15.4 5.225L16.9583 7.33333H13.1083H8.89167H5.04167ZM12.1917 9.16667V11.4583L11.3667 11.0917C11.275 11 11.0917 11 11 11C10.9083 11 10.725 11 10.6333 11.0917L9.80833 11.4583V9.16667H12.1917ZM17.4167 15.5833C17.4167 16.5917 16.5917 17.4167 15.5833 17.4167H6.41667C5.40833 17.4167 4.58333 16.5917 4.58333 15.5833V9.16667H7.975V12.8333C7.975 13.1083 8.15833 13.475 8.43333 13.5667C8.70833 13.75 8.98333 13.75 9.25833 13.6583L11 12.925L12.7417 13.6583C12.8333 13.75 13.0167 13.75 13.1083 13.75C13.2917 13.75 13.475 13.6583 13.5667 13.5667C13.8417 13.3833 14.025 13.1083 14.025 12.8333V9.16667H17.4167V15.5833Z" fill="#2F3142"/>
</svg>
