<svg width="22" height="22" viewBox="0 0 22 22" fill="none" xmlns="http://www.w3.org/2000/svg">
<path d="M18.6886 6.56128L11.0001 11.0002L3.30859 6.5542" stroke="#2F3142" stroke-width="2" stroke-linecap="round" stroke-linejoin="round"/>
<path d="M11 11V19.25" stroke="#2F3142" stroke-width="2" stroke-linecap="round" stroke-linejoin="round"/>
<path d="M10.0834 2.36281C10.6507 2.03531 11.3495 2.03531 11.9168 2.36281L18.022 5.88767C18.5893 6.21517 18.9387 6.8204 18.9387 7.47538V14.5251C18.9387 15.1801 18.5893 15.7853 18.022 16.1129L11.9168 19.6376C11.3495 19.9651 10.6507 19.9651 10.0834 19.6376L3.97819 16.1129C3.41095 15.7853 3.06152 15.1801 3.06152 14.5251V7.47538C3.06152 6.8204 3.41095 6.21517 3.97819 5.88767L10.0834 2.36281Z" stroke="#2F3142" stroke-width="2" stroke-linecap="round" stroke-linejoin="round"/>
<path d="M7.79199 4.125L14.667 8.25" stroke="#2F3142" stroke-width="2" stroke-linecap="round" stroke-linejoin="round"/>
</svg>
