<svg width="22" height="22" viewBox="0 0 22 22" fill="none" xmlns="http://www.w3.org/2000/svg">
<path fill-rule="evenodd" clip-rule="evenodd" d="M3.2964 9.82465C5.67243 10.0218 7.94748 9.54507 9.83088 8.46737C8.87389 7.05058 7.75808 5.7508 6.52304 4.62214C4.82205 5.81836 3.62122 7.67781 3.2964 9.82465ZM6.13597 2.69267C3.2875 4.36408 1.375 7.4587 1.375 11C1.375 16.3158 5.68426 20.625 11 20.625C16.3158 20.625 20.625 16.3158 20.625 11C20.625 5.68426 16.3158 1.375 11 1.375C9.23578 1.375 7.58239 1.84967 6.16062 2.67826C6.15235 2.68293 6.14413 2.68773 6.13597 2.69267ZM8.23282 3.71401C9.37594 4.82159 10.4177 6.0661 11.3288 7.41007C12.4371 6.45508 13.3286 5.23462 13.9134 3.77126C13.0134 3.40819 12.0301 3.20833 11 3.20833C10.0255 3.20833 9.09273 3.38725 8.23282 3.71401ZM15.5306 4.66021C14.7884 6.42321 13.6734 7.8701 12.3094 8.98379C12.6278 9.54158 12.9241 10.1127 13.1965 10.6948C14.9221 10.0232 16.7905 9.71282 18.7105 9.87158C18.3995 7.72759 17.2155 5.86642 15.5306 4.66021ZM18.7591 11.7172C17.0891 11.5465 15.4413 11.8 13.9089 12.3872C14.5395 14.0697 14.9692 15.821 15.1581 17.5906C17.1514 16.3303 18.5334 14.1909 18.7591 11.7172ZM13.3912 18.4178C13.2663 16.6459 12.8691 14.8781 12.2469 13.179C10.3051 14.2949 8.63911 15.9615 7.48112 17.9537C8.53813 18.4896 9.73381 18.7917 11 18.7917C11.8342 18.7917 12.6378 18.6606 13.3912 18.4178ZM5.95274 16.9361C7.29519 14.668 9.24284 12.7453 11.5371 11.4743C11.3075 10.9836 11.0594 10.501 10.794 10.0282C8.58209 11.3047 5.93618 11.8657 3.23581 11.659C3.41252 13.7692 4.43024 15.6403 5.95274 16.9361Z" fill="#2F3142"/>
</svg>
