<svg width="20" height="20" viewBox="0 0 20 20" fill="none" xmlns="http://www.w3.org/2000/svg">
<g clip-path="url(#clip0_614_595)">
<path fill-rule="evenodd" clip-rule="evenodd" d="M18.9246 4.82864C18.6871 4.56856 16.8921 2.65009 14.4378 1.47096C13.2036 0.877957 11.754 0.44804 10.2233 0.550216C8.78907 0.645954 7.34207 1.20565 5.99187 2.42863C4.28028 2.1184 2.96512 2.43911 2.07802 3.35155C1.17097 4.28451 0.912891 5.64493 0.885366 6.85622C0.857158 8.09745 1.06749 9.36913 1.27595 10.3105C1.38116 10.7856 1.4881 11.1864 1.56916 11.4696C1.60921 11.6096 1.64306 11.7213 1.66743 11.7996C1.73841 16.3408 5.44172 20.0001 9.99973 20.0001C14.3624 20.0001 17.942 16.6477 18.3031 12.3785L19.1553 5.55761C19.1842 5.32612 19.1275 5.0506 18.9246 4.82864ZM4.15802 6.14414C3.53025 6.67555 3.00118 7.30474 2.59429 8.01992C2.56018 7.64474 2.54317 7.26482 2.5516 6.89409C2.57616 5.81372 2.81287 4.98664 3.27301 4.51335C3.67708 4.09773 4.44897 3.76587 6.05887 4.14467C6.33979 4.21077 6.63492 4.12682 6.83899 3.92275C8.01031 2.75142 9.20332 2.28867 10.3343 2.21318C11.4869 2.13625 12.6436 2.45795 13.7161 2.97323C15.4902 3.82561 16.9004 5.14198 17.4572 5.70506L17.2086 7.69562C16.833 7.11324 16.3725 6.5937 15.8415 6.14414C14.3101 4.84786 12.2346 4.16682 9.99973 4.16682C7.76485 4.16682 5.68937 4.84786 4.15802 6.14414ZM16.6664 11.6668C16.6664 11.8492 16.6591 12.03 16.6447 12.2087L16.5717 12.7926C16.0367 15.9384 13.2979 18.3335 9.99973 18.3335C6.31783 18.3335 3.33307 15.3487 3.33307 11.6668C3.33307 9.84047 4.06495 8.40655 5.23485 7.41623C6.41797 6.41472 8.09248 5.83349 9.99973 5.83349C11.907 5.83349 13.5815 6.41472 14.7646 7.41623C15.9345 8.40655 16.6664 9.84047 16.6664 11.6668ZM6.69141 14.369C6.56163 13.8498 6.97156 13.3337 7.49987 13.3333H12.4999C13.0275 13.3337 13.4381 13.8478 13.3083 14.3668C12.8768 15.8235 11.4876 16.6668 9.9999 16.6668C8.56923 16.6668 7.05725 15.8323 6.69141 14.369ZM13.7497 10.0001C13.7497 10.6905 13.1901 11.2501 12.4997 11.2501C11.8094 11.2501 11.2497 10.6905 11.2497 10.0001C11.2497 9.3098 11.8094 8.75013 12.4997 8.75013C13.1901 8.75013 13.7497 9.3098 13.7497 10.0001ZM7.49973 11.2501C8.19009 11.2501 8.74973 10.6905 8.74973 10.0001C8.74973 9.3098 8.19009 8.75013 7.49973 8.75013C6.80937 8.75013 6.24973 9.3098 6.24973 10.0001C6.24973 10.6905 6.80937 11.2501 7.49973 11.2501Z" fill="#2F3142"/>
</g>
<defs>
<clipPath id="clip0_614_595">
<rect width="20" height="20" fill="white"/>
</clipPath>
</defs>
</svg>
