<svg width="20" height="20" viewBox="0 0 20 20" fill="none" xmlns="http://www.w3.org/2000/svg">
<g clip-path="url(#clip0_614_589)">
<path fill-rule="evenodd" clip-rule="evenodd" d="M10 2.50016C5.30807 2.50016 1.69332 6.34675 1.66683 11.3472C1.65783 13.0479 2.00031 14.7668 3.33961 16.6668H4.39258C3.40642 15.5672 2.73273 14.1756 2.51146 12.6379C2.5023 12.5835 2.49867 12.5293 2.50017 12.476C2.51044 12.0762 2.80808 11.7308 3.21715 11.6732L3.22106 11.6727C7.03797 10.8903 9.716 8.21693 10.8761 4.73664C11.0043 4.35199 11.3858 4.12306 11.7734 4.17354C11.8868 4.15877 12.0052 4.16725 12.1217 4.2025C15.2387 5.14496 17.5 8.0721 17.5 11.5259C17.5 13.5022 16.7586 15.3077 15.5397 16.6668H16.641C17.672 15.0649 18.3419 12.9798 18.3333 11.3472C18.3068 6.34675 14.692 2.50016 10 2.50016ZM12.1895 5.99528C10.8259 9.4085 8.09899 12.1 4.31133 13.1259C4.99959 15.6556 7.27861 17.5002 9.96608 17.5002C13.1941 17.5002 15.8333 14.8379 15.8333 11.5259C15.8333 9.02225 14.3225 6.88555 12.1895 5.99528ZM2.91682 18.3335H6.54049C7.56717 18.8661 8.73108 19.1668 9.96608 19.1668C11.209 19.1668 12.3799 18.8622 13.4114 18.3233C13.4538 18.33 13.4973 18.3335 13.5417 18.3335H17.0833C17.3532 18.3335 17.6062 18.2028 17.7626 17.9828C19.0984 16.1027 20.0113 13.4911 19.9999 11.3383C19.9691 5.5289 15.7134 0.833496 10 0.833496C4.28667 0.833496 0.0309588 5.5289 0.00019294 11.3383C-0.0109747 13.4471 0.459436 15.6374 2.25267 18.0035C2.41021 18.2114 2.65599 18.3335 2.91682 18.3335ZM8.3335 13.3333C7.80516 13.3337 7.39524 13.8498 7.52502 14.3689C7.89086 15.8323 9.16667 16.6668 10.0002 16.6668C10.7682 16.6668 12.0437 15.8236 12.4752 14.3668C12.605 13.8478 12.1944 13.3337 11.6668 13.3333H8.3335ZM12.5 11.2502C13.1903 11.2502 13.75 10.6905 13.75 10.0002C13.75 9.30983 13.1903 8.75016 12.5 8.75016C11.8097 8.75016 11.25 9.30983 11.25 10.0002C11.25 10.6905 11.8097 11.2502 12.5 11.2502Z" fill="#2F3142"/>
</g>
<defs>
<clipPath id="clip0_614_589">
<rect width="20" height="20" fill="white"/>
</clipPath>
</defs>
</svg>
