<?xml version="1.0" encoding="utf-8"?>
<!-- Generator: Adobe Illustrator 25.3.1, SVG Export Plug-In . SVG Version: 6.00 Build 0)  -->
<svg version="1.1" id="Слой_1" xmlns="http://www.w3.org/2000/svg" xmlns:xlink="http://www.w3.org/1999/xlink" x="0px" y="0px"
	 viewBox="0 0 20 20" style="enable-background:new 0 0 20 20;" xml:space="preserve">
<style type="text/css">
	.st0{clip-path:url(#SVGID_2_);}
	.st1{fill-rule:evenodd;clip-rule:evenodd;fill:#2F3142;}
</style>
<g>
	<defs>
		<rect id="SVGID_1_" width="20" height="20"/>
	</defs>
	<clipPath id="SVGID_2_">
		<use xlink:href="#SVGID_1_"  style="overflow:visible;"/>
	</clipPath>
	<g class="st0">
		<path class="st1" d="M10,2.5C3.2,2.4-0.8,10.9,3.3,16.7h1.1c-5.9-7.5,4.4-3.5,6.5-11.9c0.2-0.5,0.8-0.7,1.2-0.5
			c5.2,1.3,7.2,8.6,3.4,12.5h1.1C20.7,11,16.9,2.3,10,2.5z M12.2,6c-1.4,3.4-4.1,6.1-7.9,7.1C8.5,24.3,22.5,11.4,12.2,6z M2.9,18.3
			c3.4-0.5,7.3,2,10.5,0c0.2,0,3.5,0,3.7,0c2.1-1.2,2.8-4.9,2.9-7C18.4-8.7-9.4,3.8,2.9,18.3z M8.3,13.3C6.1,13.9,9.1,17,10,16.7
			c0.8,0.3,3.9-2.8,1.7-3.3C11.7,13.3,8.3,13.3,8.3,13.3z M12.5,11.3c1.6,0,1.6-2.5,0-2.5C10.9,8.7,10.9,11.3,12.5,11.3z"/>
	</g>
</g>
</svg>
