<svg width="22" height="22" viewBox="0 0 22 22" fill="none" xmlns="http://www.w3.org/2000/svg">
<g clip-path="url(#clip0_614_585)">
<path fill-rule="evenodd" clip-rule="evenodd" d="M5.29789 7.30463C5.48383 7.29282 5.67598 7.2582 5.87292 7.1979C7.03476 6.84218 8.10625 6.29753 9.12972 5.68268C9.62042 6.13812 10.2777 6.41659 11 6.41659C11.7223 6.41659 12.3796 6.13812 12.8703 5.68268C13.8937 6.29753 14.9652 6.84218 16.1271 7.1979C16.324 7.2582 16.5161 7.29283 16.7021 7.30463C17.2293 7.95559 17.6474 8.6987 17.9283 9.50621L18.1066 10.0186L18.6416 10.1089C19.5072 10.2549 20.1667 11.0096 20.1667 11.9166C20.1667 12.8235 19.5072 13.5782 18.6416 13.7243L18.1066 13.8145L17.9283 14.327C16.9308 17.1942 14.2043 19.2499 11 19.2499C7.7957 19.2499 5.06917 17.1942 4.07175 14.327L3.89348 13.8145L3.35843 13.7243C2.49281 13.5782 1.83333 12.8235 1.83333 11.9166C1.83333 11.0096 2.49281 10.2549 3.35843 10.1089L3.89348 10.0186L4.07175 9.50621C4.35264 8.6987 4.77067 7.95558 5.29789 7.30463ZM3.5264 6.60787C3.04117 6.11404 2.75 5.41799 2.75 4.71462V2.61855C2.75 1.09167 4.12213 -0.400753 5.87292 0.13528C7.03476 0.490997 8.10625 1.03565 9.12972 1.6505C9.62042 1.19506 10.2777 0.91659 11 0.91659C11.7223 0.91659 12.3796 1.19506 12.8703 1.6505C13.8937 1.03565 14.9652 0.490998 16.1271 0.13528C17.8778 -0.400753 19.25 1.09168 19.25 2.61856V4.71463C19.25 5.41799 18.9589 6.11405 18.4736 6.60787C18.8753 7.17237 19.2146 7.78428 19.4815 8.43353C20.9443 8.91558 22 10.2921 22 11.9166C22 13.5411 20.9443 14.9176 19.4815 15.3996C18.1108 18.7338 14.8308 21.0833 11 21.0833C7.16915 21.0833 3.88921 18.7338 2.51851 15.3996C1.05573 14.9176 0 13.5411 0 11.9166C0 10.2921 1.05573 8.91557 2.5185 8.43353C2.78542 7.78428 3.12472 7.17237 3.5264 6.60787ZM8.27733 3.27747C7.29329 2.68043 6.3367 2.19461 5.3362 1.88829C5.1514 1.83171 4.98966 1.87334 4.85119 1.99258C4.70102 2.1219 4.58333 2.3459 4.58333 2.61855V4.71462C4.58333 4.98727 4.70102 5.21128 4.85119 5.3406C4.98966 5.45984 5.1514 5.50146 5.3362 5.44489C6.3367 5.13857 7.29329 4.65274 8.27733 4.05572C8.25931 3.92859 8.25 3.79868 8.25 3.66659C8.25 3.5345 8.25931 3.40459 8.27733 3.27747ZM16.6638 5.44489C15.6633 5.13857 14.7067 4.65275 13.7227 4.05572C13.7406 3.92859 13.75 3.79868 13.75 3.66659C13.75 3.5345 13.7406 3.40459 13.7227 3.27747C14.7067 2.68044 15.6633 2.19461 16.6638 1.88829C16.8486 1.83171 17.0103 1.87334 17.1488 1.99258C17.299 2.1219 17.4167 2.34591 17.4167 2.61856V4.71463C17.4167 4.98728 17.299 5.21128 17.1488 5.34061C17.0103 5.45984 16.8486 5.50147 16.6638 5.44489ZM10.0833 3.66659C10.0833 3.16033 10.4937 2.74992 11 2.74992C11.5063 2.74992 11.9167 3.16033 11.9167 3.66659C11.9167 4.17285 11.5063 4.58326 11 4.58326C10.4937 4.58326 10.0833 4.17285 10.0833 3.66659ZM9.98653 15.1733C9.76012 14.7205 9.20957 14.537 8.75672 14.7634C8.30391 14.9898 8.12037 15.5404 8.34677 15.9932C8.87381 17.0473 10.067 17.4166 11 17.4166C11.933 17.4166 13.1262 17.0473 13.6532 15.9932C13.8796 15.5404 13.6961 14.9898 13.2433 14.7634C12.7904 14.537 12.2399 14.7205 12.0135 15.1733C11.9294 15.3414 11.5947 15.5833 11 15.5833C10.4053 15.5833 10.0706 15.3414 9.98653 15.1733ZM15.125 11.9166C15.125 12.676 14.5094 13.2916 13.75 13.2916C12.9906 13.2916 12.375 12.676 12.375 11.9166C12.375 11.1572 12.9906 10.5416 13.75 10.5416C14.5094 10.5416 15.125 11.1572 15.125 11.9166ZM8.25 13.2916C9.00939 13.2916 9.625 12.676 9.625 11.9166C9.625 11.1572 9.00939 10.5416 8.25 10.5416C7.49061 10.5416 6.875 11.1572 6.875 11.9166C6.875 12.676 7.49061 13.2916 8.25 13.2916Z" fill="#2F3142"/>
</g>
<defs>
<clipPath id="clip0_614_585">
<rect width="22" height="22" fill="white"/>
</clipPath>
</defs>
</svg>
