<?xml version="1.0" encoding="utf-8"?>
<!-- Generator: Adobe Illustrator 25.3.1, SVG Export Plug-In . SVG Version: 6.00 Build 0)  -->
<svg version="1.1" id="Слой_1" xmlns="http://www.w3.org/2000/svg" xmlns:xlink="http://www.w3.org/1999/xlink" x="0px" y="0px"
	 viewBox="0 0 20 20" style="enable-background:new 0 0 20 20;" xml:space="preserve">
<style type="text/css">
	.st0{fill-rule:evenodd;clip-rule:evenodd;fill:#2F3142;}
</style>
<path class="st0" d="M18.9,4.8C17.1,2.2,9.6-1.8,6,2.4c-5.9-1.2-5.6,5.8-4.3,9.4c-0.1,10.3,16,10.8,16.6,0.6
	C18.3,12,19.5,4.9,18.9,4.8z M4.2,6.1C3.5,6.7,3,7.3,2.6,8C2.4,4,3.2,4.1,6.8,3.9c3.1-3.7,8.5-0.6,10.6,1.8l-0.2,2
	C14.6,3.6,7.7,3.1,4.2,6.1z M16.7,11.7c0.2,8.6-13.5,8.7-13.3,0C3.2,3.9,16.8,3.9,16.7,11.7z M6.7,14.4c-0.1-0.5,0.3-1,0.8-1h5
	C15.9,15.4,7.7,18.9,6.7,14.4z M13.7,10c0,1.6-2.5,1.6-2.5,0C11.2,8.4,13.8,8.4,13.7,10z M7.5,11.3c1.6,0,1.6-2.5,0-2.5
	C5.9,8.7,5.9,11.3,7.5,11.3z"/>
</svg>
