<svg width="22" height="22" viewBox="0 0 22 22" fill="none" xmlns="http://www.w3.org/2000/svg">
<path fill-rule="evenodd" clip-rule="evenodd" d="M2.33993 9.26363L3.79807 8.53453C3.75297 8.33208 3.71903 8.12541 3.69694 7.91523L2.33993 7.23672C1.88711 7.01032 1.70358 6.45969 1.92998 6.00689C2.15639 5.55407 2.70701 5.37053 3.15982 5.59693L3.84476 5.93941C4.46194 3.57691 6.61064 1.8335 9.16655 1.8335C12.2041 1.8335 14.6666 4.29593 14.6666 7.3335C14.6666 7.80519 14.6072 8.26301 14.4955 8.69991L18.99 7.37111L20.1666 7.02326V8.25016V12.982C20.1666 17.0171 16.6489 20.1668 12.4655 20.1668H9.83903C6.86473 20.1668 4.37084 17.8129 4.59718 14.8852C4.68791 13.7117 5.21476 12.6522 6.02718 11.8501C5.41311 11.4225 4.89035 10.8728 4.49406 10.2363L3.15982 10.9034C2.70701 11.1298 2.15639 10.9463 1.92998 10.4934C1.70358 10.0406 1.88711 9.49005 2.33993 9.26363ZM9.16655 3.66683C7.32715 3.66683 5.8041 5.02125 5.54029 6.78718L6.82649 7.43027C7.13704 7.58555 7.3332 7.90296 7.3332 8.25016C7.3332 8.59737 7.13704 8.91477 6.82649 9.07006L6.14475 9.41094C6.80596 10.3709 7.91277 11.0002 9.16655 11.0002C11.1916 11.0002 12.8332 9.3585 12.8332 7.3335C12.8332 5.30845 11.1916 3.66683 9.16655 3.66683ZM13.2961 10.9662C12.2883 12.1112 10.8118 12.8335 9.16655 12.8335C8.73366 12.8335 8.31246 12.7834 7.90841 12.6889C7.04189 13.224 6.49757 14.0887 6.42506 15.0265C6.2926 16.7398 7.77717 18.3335 9.83903 18.3335H12.4655C15.7758 18.3335 18.3332 15.8706 18.3332 12.982V9.47703L13.2961 10.9662ZM10.0832 9.62516C10.8426 9.62516 11.4582 9.00956 11.4582 8.25016C11.4582 7.49077 10.8426 6.87516 10.0832 6.87516C9.32377 6.87516 8.7082 7.49077 8.7082 8.25016C8.7082 9.00956 9.32377 9.62516 10.0832 9.62516Z" fill="#2F3142"/>
</svg>
