<svg width="18" height="18" viewBox="0 0 18 18" fill="none" xmlns="http://www.w3.org/2000/svg">
<path fill-rule="evenodd" clip-rule="evenodd" d="M5.43755 1.79086C6.41158 1.5744 7.59322 1.5 9 1.5C10.4068 1.5 11.5884 1.5744 12.5624 1.79086C13.545 2.00923 14.3616 2.382 14.9898 3.01018C15.618 3.63837 15.9907 4.45501 16.2091 5.43755C16.4256 6.41158 16.5 7.59322 16.5 9C16.5 10.4068 16.4256 11.5884 16.2091 12.5624C15.9907 13.545 15.618 14.3616 14.9898 14.9898C14.3616 15.618 13.545 15.9907 12.5624 16.2091C11.5884 16.4256 10.4068 16.5 9 16.5C7.59322 16.5 6.41158 16.4256 5.43755 16.2091C4.45501 15.9907 3.63837 15.618 3.01018 14.9898C2.382 14.3616 2.00923 13.545 1.79086 12.5624C1.5744 11.5884 1.5 10.4068 1.5 9C1.5 7.59322 1.5744 6.41158 1.79086 5.43755C2.00923 4.45501 2.382 3.63837 3.01018 3.01018C3.63837 2.382 4.45501 2.00923 5.43755 1.79086ZM11.7803 6.96967C12.0732 7.26256 12.0732 7.73745 11.7803 8.03032L9.01822 10.7924C8.59395 11.2167 7.90605 11.2167 7.48176 10.7924L6.21967 9.53032C5.92678 9.23745 5.92678 8.76255 6.21967 8.46967C6.51256 8.1768 6.98744 8.1768 7.28033 8.46967L8.25 9.43935L10.7197 6.96967C11.0125 6.67678 11.4874 6.67678 11.7803 6.96967Z" fill="#3EBB00"/>
</svg>
