<svg width="22" height="22" viewBox="0 0 22 22" fill="none" xmlns="http://www.w3.org/2000/svg">
<path d="M17.2434 5.51931C16.5461 4.8269 15.4228 4.8269 14.7304 5.51931L9.9481 12.3102L7.03237 9.39687C6.33504 8.70446 5.21172 8.70446 4.51931 9.39687C3.8269 10.0942 3.8269 11.2175 4.51931 11.9099L8.52277 15.9097C8.57065 15.9723 8.62344 16.0337 8.68114 16.0914C9.10591 16.5162 9.69152 16.6819 10.2391 16.5886C10.5975 16.5321 10.9425 16.3664 11.2175 16.0914C11.2752 16.0337 11.328 15.9723 11.3759 15.9085L17.2434 8.03237C17.9358 7.33504 17.9358 6.21172 17.2434 5.51931Z" fill="#7EEAC3"/>
</svg>
