<?xml version="1.0" encoding="utf-8"?>
<!-- Generator: Adobe Illustrator 25.3.1, SVG Export Plug-In . SVG Version: 6.00 Build 0)  -->
<svg version="1.1" id="Слой_1" xmlns="http://www.w3.org/2000/svg" xmlns:xlink="http://www.w3.org/1999/xlink" x="0px" y="0px"
	 viewBox="0 0 800 800" style="enable-background:new 0 0 800 800;" xml:space="preserve">
<style type="text/css">
	.st0{fill:#607D8B;}
	.st1{fill:#B0BEC5;}
	.st2{fill:#FBE9E7;}
	.st3{fill:#78909C;}
	.st4{fill:#FAFAFA;}
	.st5{fill:#E7003E;}
	.st6{opacity:0.64;fill:#ECEFF1;enable-background:new    ;}
</style>
<path class="st0" d="M425,136.6v62h-48.9v-62H425z"/>
<path class="st1" d="M351.2,78.9c0-4,2.2-7.6,5.8-9.3c6.1-3.1,18.7-6.7,43.8-6.7s37.7,3.5,43.9,6.7c3.5,1.7,5.8,5.4,5.8,9.3v50.6
	c0,7.6-7.1,8.6-12.8,8.6l-76.4-0.9c-8.8-1.3-9.7-2.1-9.7-7.7V78.9H351.2z"/>
<ellipse class="st0" cx="400.7" cy="133.5" rx="48.6" ry="8.7"/>
<path class="st2" d="M386.2,111.3c-0.5,2.7-6.9,4.4-8.3-1.8c-1.7-7.7-1-25.4,0.2-33.8c0.6-4.5,8.4-6,8.9,2.3
	C387.4,84.8,386.7,108.6,386.2,111.3z"/>
<path class="st2" d="M369.1,111.8c-0.4,5.8-10.4,12.9-11,3c-0.7-13.1-0.3-25.4,0.2-32.2c0.4-8.2,10.6-9.7,10.7-1
	C369.1,89.7,369.6,105,369.1,111.8L369.1,111.8z"/>
<path class="st3" d="M416.8,111.3c0.5,2.7,6.9,4.4,8.3-1.8c1.7-7.7,1-25.4-0.2-33.8c-0.6-4.5-8.4-6-8.9,2.3
	C415.7,84.8,416.3,108.6,416.8,111.3L416.8,111.3z"/>
<path class="st0" d="M433.4,111.8c0.4,5.8,10.4,12.9,11,3c0.7-13.1,0.2-25.4-0.2-32.2c-0.4-8.2-10.6-9.7-10.7-1
	C433.3,89.7,432.8,105,433.4,111.8L433.4,111.8z"/>
<path class="st0" d="M648.1,245.6l-36.9,36.9l-29.1-29.1l36.9-36.9L648.1,245.6z"/>
<path class="st1" d="M638.6,167.4c2.3-2.3,5.8-3.2,8.9-2.2c5.5,1.9,15.1,7.2,29.9,22.1c14.9,14.9,20.2,24.5,22.1,29.9
	c1.1,3.1,0.2,6.6-2.2,8.9l-30,30c-4.5,4.5-9.3,1-12.8-2.4l-44.9-45.9c-4.5-5.9-4.6-7-1.2-10.4L638.6,167.4L638.6,167.4z"/>
<ellipse transform="matrix(0.7071 -0.7071 0.7071 0.7071 23.9764 516.556)" class="st0" cx="635.5" cy="229.3" rx="7.4" ry="40.8"/>
<path class="st2" d="M640.1,207.5c-2,1.3-6.7-1.5-3.9-6c3.5-5.6,14.5-15.6,20.2-20c3.1-2.3,8.5,1.4,4,6.7
	C656.6,192.5,642,206.2,640.1,207.5L640.1,207.5z"/>
<path class="st2" d="M629.7,197.6c-3.7,3.1-13.8,1.4-8.3-4.7c7.4-8.3,14.9-15.2,19.2-19.1c5.2-4.6,12,0.5,7,5.8
	C642.8,184.5,634,194,629.7,197.6L629.7,197.6z"/>
<circle class="st1" cx="400.7" cy="450.9" r="286.2"/>
<circle class="st4" cx="400.7" cy="450.9" r="229.6"/>
<g>
	<path class="st5" d="M400.7,282.4c-4.6,0-8.3-3.7-8.3-8.3v-24.7c0-4.6,3.7-8.3,8.3-8.3c4.6,0,8.3,3.7,8.3,8.3v24.7
		C409,278.8,405.3,282.4,400.7,282.4z"/>
	<path class="st5" d="M400.7,662.2c-4.6,0-8.3-3.7-8.3-8.3v-24.7c0-4.6,3.7-8.3,8.3-8.3c4.6,0,8.3,3.7,8.3,8.3V654
		C409,658.5,405.3,662.2,400.7,662.2z"/>
	<path class="st5" d="M602.9,460.1h-24.7c-4.6,0-8.3-3.7-8.3-8.3c0-4.6,3.7-8.3,8.3-8.3h24.7c4.6,0,8.3,3.7,8.3,8.3
		C611.2,456.3,607.5,460.1,602.9,460.1z"/>
	<path class="st5" d="M223.3,460.1h-24.7c-4.6,0-8.3-3.7-8.3-8.3c0-4.6,3.7-8.3,8.3-8.3h24.7c4.6,0,8.3,3.7,8.3,8.3
		C231.5,456.3,227.8,460.1,223.3,460.1z"/>
	<path class="st5" d="M400.7,282.4c-4.6,0-8.3-3.7-8.3-8.3v-24.7c0-4.6,3.7-8.3,8.3-8.3c4.6,0,8.3,3.7,8.3,8.3v24.7
		C409,278.8,405.3,282.4,400.7,282.4z"/>
	<path class="st5" d="M400.7,662.2c-4.6,0-8.3-3.7-8.3-8.3v-24.7c0-4.6,3.7-8.3,8.3-8.3c4.6,0,8.3,3.7,8.3,8.3V654
		C409,658.5,405.3,662.2,400.7,662.2z"/>
	<path class="st5" d="M304.8,302.1l-12.4-21.4c-2.3-4-1-9,3.1-11.3c4-2.3,9-1,11.3,3.1l12.4,21.4c2.3,4,1,9-3.1,11.3
		C312.2,307.4,307.2,306.1,304.8,302.1z"/>
	<path class="st5" d="M494.8,630.9l-12.4-21.4c-2.3-4-0.9-9,3.1-11.3c4-2.3,9-0.9,11.3,3.1l12.4,21.4c2.3,4,0.9,9-3.1,11.3
		C502,636.3,497,635,494.8,630.9z"/>
	<g>
		<path class="st5" d="M304.8,302.1l-12.4-21.4c-2.3-4-1-9,3.1-11.3c4-2.3,9-1,11.3,3.1l12.4,21.4c2.3,4,1,9-3.1,11.3
			C312.2,307.4,307.2,306.1,304.8,302.1z"/>
		<path class="st5" d="M494.8,630.9l-12.4-21.4c-2.3-4-0.9-9,3.1-11.3c4-2.3,9-0.9,11.3,3.1l12.4,21.4c2.3,4,0.9,9-3.1,11.3
			C502,636.3,497,635,494.8,630.9z"/>
	</g>
	<g>
		<path class="st5" d="M242.9,370.2l-21.4-12.4c-4-2.3-5.3-7.3-3.1-11.3c2.3-4,7.3-5.3,11.3-3.1l21.4,12.4c4,2.3,5.3,7.3,3.1,11.3
			C251.9,371.1,246.8,372.4,242.9,370.2z"/>
		<path class="st5" d="M571.7,560l-21.4-12.3c-4-2.3-5.3-7.3-3.1-11.3c2.3-4,7.3-5.3,11.3-3.1l21.4,12.4c4,2.3,5.3,7.3,3.1,11.3
			C580.7,560.9,575.7,562.3,571.7,560z"/>
	</g>
	<g>
		<path class="st5" d="M485.3,305.2c-4-2.3-5.3-7.3-3.1-11.3l12.4-21.4c2.3-4,7.3-5.3,11.3-3.1c4,2.3,5.3,7.3,3.1,11.3l-12.4,21.4
			C494.3,306.1,489.3,307.4,485.3,305.2z"/>
		<path class="st5" d="M295.5,634c-4-2.3-5.3-7.3-3.1-11.3l12.4-21.4c2.3-4,7.3-5.3,11.3-3.1c4,2.3,5.3,7.3,3.1,11.3l-12.4,21.4
			C304.5,635,299.4,636.3,295.5,634z"/>
	</g>
	<g>
		<path class="st5" d="M547.4,367.1c-2.3-4-1-9,3.1-11.3l21.4-12.4c4-2.3,9-0.9,11.3,3.1s0.9,9-3.1,11.3l-21.4,12.4
			C554.6,372.4,549.6,371.1,547.4,367.1z"/>
		<path class="st5" d="M218.4,557c-2.3-4-0.9-9,3.1-11.3l21.4-12.4c4-2.3,9-0.9,11.3,3.1c2.3,4,0.9,9-3.1,11.3L229.8,560
			C225.8,562.3,220.7,560.9,218.4,557L218.4,557z"/>
	</g>
</g>
<path class="st5" d="M409.2,257.4c0,0,1-18.3-8.6-18.3c-9.6,0-8.6,18.3-8.6,18.3l-6.5,194.3h30.9L409.2,257.4z"/>
<circle class="st5" cx="400.7" cy="451.5" r="23.1"/>
<path class="st6" d="M333.5,216.8c-30.7,8.9-73.5,22.5-119.4,77.3c-45.3,54.3-54.7,117.2-57.5,160.7c0,0-26.2,32.7-27.4,26.6
	c-9.9-47.5,10.1-153.5,62.2-209.6C252,206.5,331,183.4,359.5,179C364.4,178.3,342.8,214.1,333.5,216.8L333.5,216.8z"/>
</svg>
