<svg width="22" height="22" viewBox="0 0 22 22" fill="none" xmlns="http://www.w3.org/2000/svg">
<g clip-path="url(#clip0_1135_254)">
<path d="M11 0.916513C13.188 0.916513 15.2865 1.78571 16.8336 3.33288C18.3808 4.88006 19.25 6.97848 19.25 9.16651V12.8332C19.2504 14.1608 18.9304 15.4689 18.3172 16.6465C17.7039 17.824 16.8156 18.8361 15.7275 19.5969C14.6395 20.3577 13.3839 20.8446 12.0675 21.0164C10.751 21.1882 9.4125 21.0397 8.16568 20.5836C8.28301 20.4213 8.39576 20.2563 8.50393 20.0868L8.65976 19.8301C9.54865 18.3471 10.0382 16.659 10.0806 14.9305L10.0833 14.6665V8.24985H11.9167V14.6665C11.9186 16.24 11.608 17.7983 11.0028 19.2508C11.7107 19.2504 12.4137 19.1333 13.0836 18.9043C13.4888 17.6567 13.7188 16.3303 13.7473 14.9534L13.75 14.6665V11.9156H15.5833V14.6665C15.5833 15.6638 15.4898 16.6401 15.3102 17.5861C15.9468 17.0104 16.4611 16.3125 16.8224 15.5339C17.1836 14.7553 17.3845 13.9119 17.413 13.0541L17.4167 12.8332V9.16651C17.4167 7.97564 17.0853 6.80826 16.4596 5.79502C15.8338 4.78178 14.9385 3.96265 13.8737 3.42932C12.809 2.89598 11.6168 2.66948 10.4306 2.77515C9.24443 2.88083 8.11106 3.31452 7.15734 4.02768L5.85109 2.72051C7.31178 1.55019 9.12831 0.913737 11 0.916513ZM6.41668 9.16651C6.41668 7.95094 6.89956 6.78515 7.7591 5.92561C8.61865 5.06606 9.78443 4.58318 11 4.58318C12.2156 4.58318 13.3814 5.06606 14.2409 5.92561C15.1005 6.78515 15.5833 7.95094 15.5833 9.16651V10.0832H13.75V9.16651C13.7507 8.45068 13.4722 7.76279 12.9738 7.24901C12.4754 6.73523 11.7962 6.43605 11.0807 6.41505C10.3652 6.39404 9.66967 6.65286 9.14195 7.13652C8.61423 7.62017 8.2959 8.29054 8.25459 9.00518L8.25001 9.16651V14.6665C8.25001 16.1029 7.88334 17.4532 7.23801 18.6293L7.21601 18.6659C7.00518 19.0454 6.76593 19.4066 6.49918 19.7467C6.09608 19.4838 5.71667 19.1863 5.36526 18.8575L5.08201 18.5825C3.58373 17.0441 2.74675 14.9806 2.75001 12.8332V9.16651C2.75001 7.2186 3.42468 5.42835 4.55401 4.0176L5.86118 5.32385C5.07498 6.3718 4.63015 7.63622 4.58701 8.94559L4.58334 9.16651V12.8332C4.58334 14.3686 5.12234 15.7775 6.02251 16.8821C6.2592 16.2426 6.39106 15.569 6.41301 14.8874L6.41668 14.6665V9.16651Z" fill="#2F3142"/>
</g>
<defs>
<clipPath id="clip0_1135_254">
<rect width="22" height="22" fill="white"/>
</clipPath>
</defs>
</svg>
