<?xml version="1.0" encoding="utf-8"?>
<svg version="1.1" xmlns="http://www.w3.org/2000/svg" xmlns:xlink="http://www.w3.org/1999/xlink" x="0px" y="0px" viewBox="0 0 22 22" style="enable-background:new 0 0 22 22;" xml:space="preserve">
	<path fill="#2F3142" d="M11,0.9c12.9,0,10.2,24.2-2.8,19.7c2.6-3,1.8-8.7,1.9-12.3h1.8c-0.1,3,0.5,8.2-0.9,11c0.7,0,1.4-0.1,2.1-0.3
	c0.8-2.1,0.7-4.8,0.7-7h1.8c0,1.7,0.1,4-0.3,5.7C20.7,11.9,16.2-1.6,7.2,4L5.9,2.7C7.3,1.6,9.1,0.9,11,0.9z M6.4,9.2
	c0.1-6.6,10.2-5.5,9.2,0.9h-1.8c0.8-4-5.1-5.2-5.5-1.1c-0.1,3.2,0.6,8.2-1.8,10.7C1.7,16.6,1.6,8.4,4.6,4l1.3,1.3
	c-1.9,3-2,8.7,0.2,11.6C6.7,15.4,6.3,10.8,6.4,9.2z" />
</svg>