<svg width="22" height="22" viewBox="0 0 22 22" fill="none" xmlns="http://www.w3.org/2000/svg">
<path fill-rule="evenodd" clip-rule="evenodd" d="M10.8355 1.07666L11.7162 2.17747C12.759 3.48113 13.1434 4.76744 13.1077 6.00154C13.0731 7.20147 12.6425 8.27121 12.2126 9.1541C12.0682 9.45074 11.912 9.74875 11.769 10.0217C11.7028 10.1483 11.6392 10.2695 11.581 10.3827C11.3866 10.7608 11.238 11.0738 11.1436 11.3483C11.0487 11.624 11.0311 11.7983 11.0432 11.9085C11.0523 11.9916 11.0803 12.0753 11.1902 12.1852C11.3719 12.367 11.5061 12.4181 11.5874 12.4337C11.6704 12.4497 11.7809 12.4445 11.9389 12.3796C12.2924 12.2342 12.7239 11.8557 13.1768 11.2879C13.6117 10.7425 13.9915 10.1186 14.2668 9.61941C14.403 9.37227 14.5107 9.16114 14.5837 9.01307C14.6201 8.93913 14.6477 8.88122 14.6659 8.84272L14.6858 8.80008L14.6901 8.79055L14.6907 8.78931L15.2277 7.60081L16.1641 8.50865C18.2842 10.5641 18.9402 13.5322 17.5467 16.2268C16.3349 18.5702 13.8533 20.1668 11.0003 20.1668C6.97157 20.1668 3.66699 16.9742 3.66699 12.989C3.66699 10.8894 4.82829 9.38712 6.09314 7.91014C6.25816 7.71745 6.4268 7.52327 6.5981 7.32604C7.77258 5.97373 9.07211 4.47743 10.1865 2.32815L10.8355 1.07666ZM15.7 10.8098C15.4139 11.3045 15.0418 11.8897 14.6101 12.431C14.1033 13.0664 13.4321 13.7478 12.6362 14.0751C12.2195 14.2465 11.7436 14.3308 11.2409 14.234C10.7362 14.1368 10.285 13.8727 9.89382 13.4816C9.49855 13.0863 9.27663 12.6193 9.22071 12.1076C9.16773 11.6229 9.27021 11.158 9.41 10.7517C9.55025 10.3443 9.75109 9.93245 9.95065 9.54442C10.022 9.40564 10.0924 9.27126 10.1621 9.13821C10.298 8.87909 10.4313 8.6247 10.5643 8.35151C10.9599 7.53906 11.252 6.75328 11.2751 5.94861C11.2876 5.51702 11.2233 5.05504 11.0254 4.55849C10.002 6.20681 8.90313 7.47014 7.97315 8.53934C7.80461 8.73311 7.64162 8.9205 7.48563 9.10265C6.21056 10.5915 5.50033 11.6305 5.50033 12.989C5.50033 15.9196 7.94143 18.3334 11.0003 18.3334C13.1584 18.3334 15.017 17.1276 15.9182 15.3847C16.7081 13.8572 16.5965 12.2034 15.7 10.8098Z" fill="#E7003E"/>
</svg>
