<svg width="22" height="22" viewBox="0 0 22 22" fill="none" xmlns="http://www.w3.org/2000/svg">
<path fill-rule="evenodd" clip-rule="evenodd" d="M4.78453 4.01053C4.95849 3.79309 5.22186 3.6665 5.50033 3.6665H11.0003H16.5003C16.7788 3.6665 17.0422 3.79309 17.2161 4.01053L20.8828 8.59387C21.1642 8.94565 21.1483 9.44975 20.8452 9.78315L11.6786 19.8665C11.5049 20.0575 11.2586 20.1665 11.0003 20.1665C10.7421 20.1665 10.4958 20.0575 10.3221 19.8665L1.15538 9.78315C0.852345 9.44975 0.836441 8.94565 1.11786 8.59387L4.78453 4.01053ZM5.9409 5.49984L3.7409 8.24984H6.89309L9.09309 5.49984H5.9409ZM11.0003 6.05055L9.24088 8.24984H12.7598L11.0003 6.05055ZM13.3583 10.0832H8.64238L11.0003 16.5675L13.3583 10.0832ZM8.54878 15.1904L6.6916 10.0832H3.90583L8.54878 15.1904ZM13.4519 15.1904L15.309 10.0832H18.0949L13.4519 15.1904ZM18.2598 8.24984H15.1075L12.9075 5.49984H16.0598L18.2598 8.24984Z" fill="#2F3142"/>
</svg>
