<svg width="22" height="22" viewBox="0 0 22 22" fill="none" xmlns="http://www.w3.org/2000/svg">
<path d="M12.3025 9.38987C12.1572 9.7407 11.7551 9.90734 11.4043 9.7621C11.0535 9.61687 10.8869 9.21473 11.0321 8.86392L12.3025 9.38987ZM15.2396 11.402C15.0944 11.7528 14.6922 11.9194 14.3414 11.7742C13.9906 11.629 13.8239 11.2269 13.9692 10.876L15.2396 11.402ZM7.26523 10.6534L7.00775 11.291C6.8377 11.2223 6.70217 11.0885 6.63122 10.9195C6.56024 10.7503 6.55984 10.5599 6.63 10.3905L7.26523 10.6534ZM9.95855 15.0517C9.81327 15.4026 9.41116 15.5692 9.06036 15.424C8.70946 15.2787 8.54282 14.8766 8.6881 14.5258L9.95855 15.0517ZM17.72 8.18225C17.0996 7.93173 16.5606 8.21113 16.4116 8.57102L15.1412 8.04507C15.6395 6.84148 17.0713 6.43741 18.2349 6.90728L17.72 8.18225ZM18.2349 6.90728C19.4007 7.37806 20.1426 8.66554 19.6417 9.87541L18.3713 9.34947C18.5177 8.99583 18.3381 8.43184 17.72 8.18225L18.2349 6.90728ZM14.6465 3.72799L14.0605 5.14346L12.7901 4.61751L13.3761 3.20204L14.6465 3.72799ZM14.0605 5.14346L12.3025 9.38987L11.0321 8.86392L12.7901 4.61751L14.0605 5.14346ZM13.9692 10.876L15.1412 8.04507L16.4116 8.57102L15.2396 11.402L13.9692 10.876ZM15.1412 8.04507L16.6062 4.5064L17.8766 5.03236L16.4116 8.57102L15.1412 8.04507ZM15.9549 3.33921C15.3345 3.0887 14.7955 3.3681 14.6465 3.72799L13.3761 3.20204C13.8743 1.99845 15.3062 1.59438 16.4698 2.06424L15.9549 3.33921ZM16.4698 2.06424C17.6356 2.53503 18.3775 3.8225 17.8766 5.03236L16.6062 4.5064C16.7526 4.15277 16.573 3.58881 15.9549 3.33921L16.4698 2.06424ZM10.8304 3.8391L9.07239 8.08551L7.80194 7.55956L9.55997 3.31315L10.8304 3.8391ZM9.07239 8.08551L7.90036 10.9164L6.63 10.3905L7.80194 7.55956L9.07239 8.08551ZM12.1388 3.45032C11.5184 3.19981 10.9794 3.47921 10.8304 3.8391L9.55997 3.31315C10.0583 2.10955 11.4901 1.70548 12.6537 2.17535L12.1388 3.45032ZM12.6537 2.17535C13.8195 2.64614 14.5614 3.93361 14.0605 5.14346L12.7901 4.61751C12.9365 4.26388 12.7569 3.69992 12.1388 3.45032L12.6537 2.17535ZM5.84227 6.78114L4.08433 11.0275L2.81388 10.5016L4.57191 6.25518L5.84227 6.78114ZM7.15073 6.39236C6.53034 6.14185 5.99131 6.42125 5.84227 6.78114L4.57191 6.25518C5.07013 5.05161 6.50195 4.64753 7.66559 5.11739L7.15073 6.39236ZM7.66559 5.11739C8.83139 5.58818 9.57327 6.87566 9.07239 8.08551L7.80194 7.55956C7.9484 7.20591 7.76878 6.64197 7.15073 6.39236L7.66559 5.11739ZM19.6417 9.87541L17.0047 16.245L15.7343 15.719L18.3713 9.34947L19.6417 9.87541ZM7.82276 18.3976C11.119 19.7288 14.6144 18.4241 15.7343 15.719L17.0047 16.245C15.5355 19.7938 11.1474 21.2231 7.30791 19.6727L7.82276 18.3976ZM4.08433 11.0275C2.96703 13.7264 4.52872 17.0675 7.82276 18.3976L7.30791 19.6727C3.46612 18.1213 1.34206 14.0567 2.81388 10.5016L4.08433 11.0275ZM8.6881 14.5258C9.15814 13.3904 8.51786 11.9007 7.00775 11.291L7.52262 10.016C9.58039 10.847 10.783 13.0602 9.95855 15.0517L8.6881 14.5258Z" fill="#8D1ECD"/>
</svg>
