<svg width="12" height="12" viewBox="0 0 12 12" fill="none" xmlns="http://www.w3.org/2000/svg">
<g clip-path="url(#clip0_416_840)">
<path d="M11.7657 8.38368L6.5113 4.8713V4.4575C7.49223 4.20978 8.22047 3.31983 8.22047 2.26302C8.22047 1.01516 7.20531 0 5.95745 0C4.70964 0 3.69444 1.01516 3.69444 2.26302H4.80213C4.80213 1.62598 5.32042 1.10769 5.95745 1.10769C6.59449 1.10769 7.11278 1.62598 7.11278 2.26302C7.11278 2.90005 6.59449 3.41834 5.95745 3.41834H5.40361V4.87126L0.234375 8.32667V11.4461H3.2315V12H4.33919V11.4461H7.66227V12H8.76996V11.4461H11.7248L11.7657 8.38368ZM10.6318 10.3385H8.76992V9.78465H7.66223V10.3385H4.33915V9.78465H3.23146V10.3385H1.34207V8.91866L5.95745 5.83348L10.6502 8.97031L10.6318 10.3385Z" fill="#8E90A7"/>
</g>
<defs>
<clipPath id="clip0_416_840">
<rect width="12" height="12" fill="white"/>
</clipPath>
</defs>
</svg>
