<svg width="22" height="22" viewBox="0 0 22 22" fill="none" xmlns="http://www.w3.org/2000/svg">
<path d="M1.83325 18.3335H3.66659M3.66659 18.3335H9.16658M3.66659 18.3335V10.498C3.66659 10.0082 3.66659 9.76317 3.72614 9.53519C3.77892 9.33325 3.86623 9.1421 3.98348 8.96937C4.11579 8.77446 4.29967 8.61283 4.66829 8.2903L9.06975 4.43902C9.75307 3.84108 10.0948 3.54209 10.4796 3.42829C10.819 3.32794 11.1807 3.32794 11.52 3.42829C11.9051 3.54217 12.2473 3.84145 12.9317 4.4403L17.3317 8.2903C17.7003 8.61283 17.8843 8.77447 18.0166 8.96937C18.1339 9.1421 18.2205 9.33325 18.2733 9.53519C18.3328 9.76317 18.3333 10.0082 18.3333 10.498V18.3335M9.16658 18.3335H12.8333M9.16658 18.3335V14.6669C9.16658 13.6543 9.98737 12.8335 10.9999 12.8335C12.0125 12.8335 12.8333 13.6543 12.8333 14.6669V18.3335M18.3333 18.3335H12.8333M18.3333 18.3335H20.1666" stroke="#2F3142" stroke-width="2" stroke-linecap="round" stroke-linejoin="round"/>
</svg>
