<svg width="22" height="22" viewBox="0 0 22 22" fill="none" xmlns="http://www.w3.org/2000/svg">
<path d="M15.8333 8.49995C15.8333 8.03078 15.6543 7.56161 15.2964 7.20364C14.9384 6.84566 14.4692 6.66667 14 6.66667M14 14C17.0376 14 19.5 11.5376 19.5 8.5C19.5 5.46243 17.0376 3 14 3C10.9624 3 8.5 5.46243 8.5 8.5C8.5 8.75087 8.51679 8.99782 8.54933 9.23979C8.60283 9.63777 8.62958 9.83678 8.61158 9.96263C8.59281 10.0938 8.56893 10.1644 8.5043 10.2801C8.44225 10.3911 8.3329 10.5004 8.1142 10.7192L3.42958 15.4038C3.27104 15.5623 3.19177 15.6416 3.13508 15.7341C3.08482 15.8161 3.04779 15.9055 3.02533 15.9991C3 16.1046 3 16.2167 3 16.4408V18.0333C3 18.5468 3 18.8034 3.09991 18.9995C3.1878 19.172 3.32803 19.3122 3.50051 19.4001C3.69659 19.5 3.95329 19.5 4.46667 19.5H6.66667V17.6667H8.5V15.8333H10.3333L11.7808 14.3858C11.9996 14.1671 12.1089 14.0578 12.2199 13.9957C12.3356 13.9311 12.4062 13.9071 12.5374 13.8884C12.6632 13.8704 12.8622 13.8972 13.2603 13.9507C13.5022 13.9832 13.7491 14 14 14Z" stroke="#2F3142" stroke-width="2" stroke-linecap="round" stroke-linejoin="round"/>
</svg>
