<svg width="22" height="22" viewBox="0 0 22 22" fill="none" xmlns="http://www.w3.org/2000/svg">
<path d="M11.9167 13.75V6.41667M11.9167 13.75L16.8372 16.5617C17.5039 16.9427 18.3333 16.4613 18.3333 15.6935V12.8333V7.33333V4.47318C18.3333 3.70536 17.5038 3.22399 16.8372 3.60494L11.9167 6.41667M11.9167 13.75H9.16667M11.9167 6.41667H6.41667C4.39162 6.41667 2.75 8.05829 2.75 10.0833V10.0833C2.75 12.1084 4.39162 13.75 6.41667 13.75V13.75M6.41667 13.75V17.875C6.41667 18.6344 7.03227 19.25 7.79167 19.25V19.25C8.55106 19.25 9.16667 18.6344 9.16667 17.875V13.75M6.41667 13.75H9.16667" stroke="#2F3142" stroke-width="2" stroke-linecap="round" stroke-linejoin="round"/>
</svg>
