<?xml version="1.0" encoding="utf-8"?>
<!-- Generator: Adobe Illustrator 25.3.1, SVG Export Plug-In . SVG Version: 6.00 Build 0)  -->
<svg version="1.1" id="Слой_1" xmlns="http://www.w3.org/2000/svg" xmlns:xlink="http://www.w3.org/1999/xlink" x="0px" y="0px"
	 viewBox="0 0 800 800" style="enable-background:new 0 0 800 800;" xml:space="preserve">
<style type="text/css">
	.st0{fill:#36BF48;}
</style>
<path class="st0" d="M705,400l56.7-85c5.3-8.5,6.5-18.9,3.3-28.3c-2.9-9.6-10.4-17.1-20-20l-98.3-40l-8.3-98.3
	c-0.3-9.6-4.5-18.6-11.7-25c-8.2-5.9-18.6-7.7-28.3-5l-105,21.7L425,43.3c-14.1-13.1-35.9-13.1-50,0L306.7,120l-105-21.7
	c-9.7-2.7-20.1-0.9-28.3,5c-7.1,6.4-11.4,15.4-11.7,25l-8.3,98.3l-98.3,40c-9.6,2.9-17.1,10.4-20,20c-3.2,9.5-2,19.9,3.3,28.3
	L95,400l-56.7,85c-9.5,15.8-4.4,36.3,11.4,45.8c1.7,1,3.5,1.9,5.3,2.6l98.3,40l8.3,98.3c0.3,9.6,4.5,18.6,11.7,25
	c8.2,5.9,18.6,7.7,28.3,5l105-21.7l68.3,75c12.2,13.8,33.2,15.1,47,3c1-0.9,2-1.9,3-3l68.3-75l105,21.7c9.7,2.7,20.1,0.9,28.3-5
	c7.1-6.4,11.4-15.4,11.7-25l8.3-98.3l98.3-40c17.2-6.6,25.8-25.8,19.2-43c-0.7-1.8-1.6-3.6-2.6-5.3L705,400z M300,518.3L230,465
	l-18.3-15H210l10,23.3l28.3,66.7l-35,13.3L155,410l35-13.3l71.7,53.3l18.3,15l0,0c-2.9-7.4-6.2-14.7-10-21.7L243.3,375l35-15
	l58.3,143.3L300,518.3z M355,496.7l-58.3-145l110-43.3l11.7,30L345,366.7l10,26.7l63.3-26.7L430,395l-63.3,25l11.7,31.7l75-30
	l11.7,30L355,496.7z M586.7,401.7L543.3,340l-15-25h-1.7c2.8,9.3,5,18.8,6.7,28.3l13.3,75l-35,15L413.3,305l36.7-15l38.3,55
	l21.7,33.3l0,0c-2.9-12.7-5.1-25.4-6.7-38.3l-11.7-66.7L525,260l38.3,56.7l20,31.7l0,0c0,0-3.3-23.3-6.7-40l-10-65l35-15l20,160
	L586.7,401.7z"/>
</svg>
