<?xml version="1.0" encoding="utf-8"?>
<!-- Generator: Adobe Illustrator 25.3.1, SVG Export Plug-In . SVG Version: 6.00 Build 0)  -->
<svg version="1.1" id="Слой_1" xmlns="http://www.w3.org/2000/svg" xmlns:xlink="http://www.w3.org/1999/xlink" x="0px" y="0px"
	 viewBox="0 0 800 800" style="enable-background:new 0 0 800 800;" xml:space="preserve">
<style type="text/css">
	.st0{fill:none;stroke:#36BF48;stroke-width:83;stroke-linecap:round;stroke-linejoin:round;stroke-miterlimit:133.3333;}
</style>
<path class="st0" d="M431.8,143.7l32.4,82c6.6,16.6,24.8,25.4,41.9,20.2l84.3-25.8c29.7-9.1,55.2,22.9,39.7,49.8l-43.9,76.5
	c-8.9,15.5-4.4,35.2,10.3,45.3l72.8,49.8c25.6,17.5,16.5,57.4-14.2,62.1l-87.2,13.3c-17.7,2.7-30.3,18.5-29,36.3l6.4,87.9
	c2.3,31-34.6,48.7-57.4,27.6l-64.8-59.9c-13.1-12.1-33.3-12.1-46.5,0L312,668.7c-22.8,21.1-59.6,3.3-57.4-27.6l6.4-87.9
	c1.3-17.8-11.3-33.6-29-36.3l-87.2-13.3c-30.7-4.7-39.8-44.5-14.2-62.1l72.8-49.8c14.7-10.1,19.2-29.8,10.3-45.3l-43.9-76.5
	c-15.5-26.9,10-58.9,39.7-49.8l84.3,25.8c17.1,5.2,35.3-3.5,41.9-20.2l32.4-82C379.6,114.9,420.4,114.9,431.8,143.7z"/>
</svg>
