<?xml version="1.0" encoding="utf-8"?>
<!-- Generator: Adobe Illustrator 25.3.1, SVG Export Plug-In . SVG Version: 6.00 Build 0)  -->
<svg version="1.1" id="Слой_1" xmlns="http://www.w3.org/2000/svg" xmlns:xlink="http://www.w3.org/1999/xlink" x="0px" y="0px"
	 viewBox="0 0 52 15" style="enable-background:new 0 0 52 15;" xml:space="preserve">
<style type="text/css">
	.st0{fill:url(#SVGID_1_);}
	.st1{fill:#3D3F56;}
	.st2{clip-path:url(#SVGID_3_);}
</style>
<linearGradient id="SVGID_1_" gradientUnits="userSpaceOnUse" x1="5.2249" y1="-0.5636" x2="54.7949" y2="16.0064" gradientTransform="matrix(1 0 0 -1 0 16)">
	<stop  offset="0.25" style="stop-color:#D2FF52"/>
	<stop  offset="0.99" style="stop-color:#05D2FF"/>
</linearGradient>
<path class="st0" d="M2,14.8c13.5-2.2,27.3-1.2,40.8-0.1c3.6-1.5,7.5-9.2,9.2-12.1C34.4,4.2,9.1-5.7,2,14.8L2,14.8z"/>
<path class="st1" d="M19.4,3.8c5.7,0.5,3.4,6.7-1.7,5.5v2.2h-1.4V3.8H19.4z M19.3,8.1c1.6,0.2,2.5-1.6,1.4-2.7
	c-0.6-0.6-2.3-0.4-3.1-0.4v3.1H19.3z M29.1,11.5l-1.6-2.3c-0.2,0-1.8,0-2,0v2.2h-1.4V3.8C25.3,3.9,28,3.6,29,4.2
	c2.1,0.8,2,4.1-0.1,4.8l1.8,2.5H29.1z M29.1,6.6c0.1-1.9-2.3-1.5-3.6-1.5v3.1C26.8,8.1,29.2,8.4,29.1,6.6z M35.8,11.6
	c-5.4,0.2-5.4-8.2,0-7.9C41.1,3.5,41.2,11.9,35.8,11.6z M35.8,10.4c3.5,0.1,3.5-5.5,0-5.4C32.2,4.8,32.2,10.5,35.8,10.4z"/>
<g>
	<defs>
		<rect id="SVGID_2_" width="14" height="14"/>
	</defs>
	<clipPath id="SVGID_3_">
		<use xlink:href="#SVGID_2_"  style="overflow:visible;"/>
	</clipPath>
	<g class="st2">
		<path class="st1" d="M13.9,6.8c-0.2-0.1-2.1-3.7-2.4-3.5c0,0-9,0-9,0C2.1,3.1,0.3,6.6,0.1,6.8c-0.6,0.3,6.6,6.9,6.6,7.1
			c0.2,0.2,0.4,0.2,0.6,0c0,0,6.6-6.6,6.6-6.6C14,7.2,14,6.9,13.9,6.8z M10.8,4.1L9.4,6.3L7.8,4.1H10.8z M8.6,6.6H5.4L7,4.4L8.6,6.6
			z M6.2,4.1L4.6,6.3L3.2,4.1H6.2z M2.5,4.5l1.3,2.1H1.2L2.5,4.5z M1.4,7.4h2.9L6,12L1.4,7.4z M7,12.4l-1.9-5h3.7L7,12.4z M8,12
			l1.7-4.6h2.9L8,12z M10.2,6.6l1.3-2.1l1.3,2.1H10.2z"/>
	</g>
</g>
</svg>
