<svg width="52" height="15" viewBox="0 0 52 15" fill="none" xmlns="http://www.w3.org/2000/svg">
<path d="M2 14.77C15.5 12.54 29.26 13.59 42.84 14.68C46.45 13.2 50.37 5.45 52 2.55C37.47 2.55 24.23 1 10.78 3.17C6.918 6.23464 3.89702 10.2294 2 14.78L2 14.77Z" fill="url(#paint0_linear_518_1475)"/>
<path d="M19.4033 3.83266C20.0707 3.83266 20.65 3.94266 21.1413 4.16266C21.64 4.38266 22.0213 4.69799 22.2853 5.10866C22.5493 5.51933 22.6813 6.00699 22.6813 6.57166C22.6813 7.12899 22.5493 7.61666 22.2853 8.03466C22.0213 8.44533 21.64 8.76066 21.1413 8.98066C20.65 9.20066 20.0707 9.31066 19.4033 9.31066H17.6653V11.5327H16.2354V3.83266H19.4033ZM19.3373 8.10066C19.9607 8.10066 20.4337 7.96866 20.7563 7.70466C21.079 7.44066 21.2403 7.06299 21.2403 6.57166C21.2403 6.08033 21.079 5.70266 20.7563 5.43866C20.4337 5.17466 19.9607 5.04266 19.3373 5.04266H17.6653V8.10066H19.3373ZM29.1474 11.5327L27.5744 9.27766C27.5084 9.28499 27.4094 9.28866 27.2774 9.28866H25.5394V11.5327H24.1094V3.83266H27.2774C27.9447 3.83266 28.5241 3.94266 29.0154 4.16266C29.5141 4.38266 29.8954 4.69799 30.1594 5.10866C30.4234 5.51933 30.5554 6.00699 30.5554 6.57166C30.5554 7.15099 30.4124 7.64966 30.1264 8.06766C29.8477 8.48566 29.4444 8.79733 28.9164 9.00266L30.6874 11.5327H29.1474ZM29.1144 6.57166C29.1144 6.08033 28.9531 5.70266 28.6304 5.43866C28.3077 5.17466 27.8347 5.04266 27.2114 5.04266H25.5394V8.11166H27.2114C27.8347 8.11166 28.3077 7.97966 28.6304 7.71566C28.9531 7.44433 29.1144 7.06299 29.1144 6.57166ZM35.7523 11.6427C34.9676 11.6427 34.26 11.474 33.6293 11.1367C32.9986 10.792 32.5036 10.319 32.1443 9.71766C31.785 9.10899 31.6053 8.43066 31.6053 7.68266C31.6053 6.93466 31.785 6.25999 32.1443 5.65866C32.5036 5.04999 32.9986 4.57699 33.6293 4.23966C34.26 3.89499 34.9676 3.72266 35.7523 3.72266C36.537 3.72266 37.2446 3.89499 37.8753 4.23966C38.506 4.57699 39.001 5.04633 39.3603 5.64766C39.7196 6.24899 39.8993 6.92733 39.8993 7.68266C39.8993 8.43799 39.7196 9.11633 39.3603 9.71766C39.001 10.319 38.506 10.792 37.8753 11.1367C37.2446 11.474 36.537 11.6427 35.7523 11.6427ZM35.7523 10.3887C36.2656 10.3887 36.7276 10.275 37.1383 10.0477C37.549 9.81299 37.8716 9.49033 38.1063 9.07966C38.341 8.66166 38.4583 8.19599 38.4583 7.68266C38.4583 7.16933 38.341 6.70733 38.1063 6.29666C37.8716 5.87866 37.549 5.55599 37.1383 5.32866C36.7276 5.09399 36.2656 4.97666 35.7523 4.97666C35.239 4.97666 34.777 5.09399 34.3663 5.32866C33.9556 5.55599 33.633 5.87866 33.3983 6.29666C33.1636 6.70733 33.0463 7.16933 33.0463 7.68266C33.0463 8.19599 33.1636 8.66166 33.3983 9.07966C33.633 9.49033 33.9556 9.81299 34.3663 10.0477C34.777 10.275 35.239 10.3887 35.7523 10.3887Z" fill="#3D3F56"/>
<g clip-path="url(#clip0_518_1475)">
<path d="M13.9386 6.78444C13.9378 6.78319 13.9372 6.78187 13.9364 6.78059L11.8582 3.49929C11.7817 3.3784 11.6494 3.30859 11.5117 3.30859H11.5105H2.48941H2.48818C2.34564 3.30859 2.21548 3.38272 2.14168 3.49929C2.1206 3.53257 0.072481 6.76631 0.0612701 6.78444C0.0589732 6.78816 0.056813 6.79196 0.0546256 6.79576C-0.0383428 6.95742 -0.00976872 7.1587 0.118473 7.28844C0.118992 7.28899 0.119457 7.28956 0.120004 7.29008L6.7099 13.88C6.71094 13.881 6.71212 13.8819 6.71316 13.883C6.87156 14.038 7.12621 14.04 7.28669 13.883C7.28776 13.8819 7.2889 13.8811 7.28994 13.88L13.8798 7.29008C13.8804 7.28954 13.8808 7.28896 13.8814 7.28844C14.0142 7.15416 14.0384 6.94594 13.9386 6.78444ZM10.7717 4.12893L9.4301 6.27541L7.82025 4.12893H10.7717ZM8.64058 6.58989H5.35929L6.99994 4.40237L8.64058 6.58989ZM6.17963 4.12893L4.56977 6.27541L3.22821 4.12893H6.17963ZM2.48589 4.48897L3.79895 6.58989H1.15529L2.48589 4.48897ZM1.40023 7.41023H4.25433L5.95544 11.9654L1.40023 7.41023ZM6.99991 12.4176L5.12996 7.4102H8.86989L6.99991 12.4176ZM8.04446 11.9654L9.74557 7.41023H12.5996L8.04446 11.9654ZM10.2009 6.58989L11.514 4.48897L12.8446 6.58989H10.2009Z" fill="#3D3F56"/>
</g>
<defs>
<linearGradient id="paint0_linear_518_1475" x1="5.1" y1="16.19" x2="54.67" y2="-0.379998" gradientUnits="userSpaceOnUse">
<stop offset="0.25" stop-color="#D2FF52"/>
<stop offset="0.99" stop-color="#05D2FF"/>
</linearGradient>
<clipPath id="clip0_518_1475">
<rect width="14" height="14" fill="white"/>
</clipPath>
</defs>
</svg>
