<svg width="18" height="18" viewBox="0 0 18 18" fill="none" xmlns="http://www.w3.org/2000/svg">
<path fill-rule="evenodd" clip-rule="evenodd" d="M3.40005 9.00028C3.40005 12.0879 5.91176 14.6001 9.00028 14.6001C10.5207 14.6001 11.9236 13.9897 12.9547 12.9544L11.1004 11.1002H15.3005V15.3L13.9439 13.9428C12.6544 15.2377 10.9008 16 9.00028 16C5.13962 16 2 12.8599 2 9.00028H3.40005ZM8.99972 2C12.8604 2 16 5.14008 16 8.99972H14.5999C14.5999 5.91214 12.0882 3.39995 8.99972 3.39995C7.47926 3.39995 6.07641 4.01032 5.04526 5.04558L6.89963 6.89981H2.69948V2.69997L4.05612 4.05651C5.34557 2.76227 7.09915 2 8.99972 2Z" fill="#7099F1"/>
</svg>
