<?xml version="1.0" encoding="utf-8"?>
<!-- Generator: Adobe Illustrator 25.3.1, SVG Export Plug-In . SVG Version: 6.00 Build 0)  -->
<svg version="1.1" id="Слой_1" xmlns="http://www.w3.org/2000/svg" xmlns:xlink="http://www.w3.org/1999/xlink" x="0px" y="0px"
	 viewBox="0 0 22 22" style="enable-background:new 0 0 22 22;" xml:space="preserve">
<style type="text/css">
	.st0{fill:url(#SVGID_1_);}
	.st1{fill:none;stroke:#FFFFFF;stroke-width:1.5;stroke-linecap:round;stroke-miterlimit:10;}
</style>
<g>
	
		<linearGradient id="SVGID_1_" gradientUnits="userSpaceOnUse" x1="1.5576" y1="16.0025" x2="23.0874" y2="10.0429" gradientTransform="matrix(1 0 0 -1 0 24)">
		<stop  offset="0" style="stop-color:#781ECD"/>
		<stop  offset="1" style="stop-color:#F459B6"/>
	</linearGradient>
	<path class="st0" d="M21,5.9c0.3-1.9-1.2-3.8-3.2-4c0,0-11.7-1.5-11.7-1.5c-1.9-0.3-3.8,1.1-4,3.1c0,0-1.3,10.2-1.3,10.2
		c-0.3,1.9,1.2,3.8,3.2,4c0,0,8.1,1,8.1,1c2.7,0.5,0.7,3.3,1.2,3.2c6.1-1.7,6.1-4.7,6.5-5.8C19.8,16.1,21,5.9,21,5.9z"/>
	<path class="st1" d="M7,13.4l7.8-7.2"/>
	<path class="st1" d="M7.7,8.2c0.9,0.1,1.7-0.5,1.8-1.4C9.6,6,9,5.2,8.1,5.1C7.2,5,6.4,5.6,6.3,6.5C6.2,7.3,6.8,8.1,7.7,8.2z"/>
	<path class="st1" d="M14,14.7c0.9,0.1,1.7-0.5,1.8-1.4c0.1-0.9-0.5-1.7-1.4-1.8c-0.9-0.1-1.7,0.5-1.8,1.4
		C12.4,13.8,13.1,14.6,14,14.7z"/>
</g>
</svg>
