<svg width="22" height="22" viewBox="0 0 22 22" fill="none" xmlns="http://www.w3.org/2000/svg">
<path d="M18.9277 5.39477C18.9277 4.58196 18.5973 3.80244 18.0092 3.2277C17.421 2.65296 16.6233 2.33008 15.7916 2.33008L5.56389 2.33008C4.73213 2.33008 3.93444 2.65296 3.34629 3.2277C2.75815 3.80244 2.42773 4.58196 2.42773 5.39477L2.42773 14.2666C2.42773 15.0794 2.75815 15.8589 3.34629 16.4337C3.93444 17.0084 4.73213 17.3313 5.56389 17.3313H12.6016C14.9808 17.485 13.5628 20.068 13.9764 19.9243C18.5463 18.3369 18.8582 14.9131 18.8582 14.9131C18.9048 14.7013 18.9283 14.4853 18.9282 14.2687L18.9277 5.39477Z" fill="url(#paint0_linear_761_591)"/>
<path d="M7.4668 13.319L13.3937 6.32031" stroke="white" stroke-width="1.5" stroke-miterlimit="10" stroke-linecap="round"/>
<path d="M7.54895 8.8198C8.32135 8.8198 8.9475 8.20791 8.9475 7.45311C8.9475 6.69831 8.32135 6.08643 7.54895 6.08643C6.77655 6.08643 6.15039 6.69831 6.15039 7.45311C6.15039 8.20791 6.77655 8.8198 7.54895 8.8198Z" stroke="white" stroke-width="1.5" stroke-miterlimit="10" stroke-linecap="round"/>
<path d="M13.588 13.6909C14.3604 13.6909 14.9866 13.079 14.9866 12.3242C14.9866 11.5694 14.3604 10.9575 13.588 10.9575C12.8156 10.9575 12.1895 11.5694 12.1895 12.3242C12.1895 13.079 12.8156 13.6909 13.588 13.6909Z" stroke="white" stroke-width="1.5" stroke-miterlimit="10" stroke-linecap="round"/>
<defs>
<linearGradient id="paint0_linear_761_591" x1="4.03397" y1="-1.47532" x2="23.1625" y2="1.326" gradientUnits="userSpaceOnUse">
<stop stop-color="#E7003E"/>
<stop offset="1" stop-color="#CB2E8C"/>
</linearGradient>
</defs>
</svg>
