<svg width="22" height="22" viewBox="0 0 22 22" fill="none" xmlns="http://www.w3.org/2000/svg">
<g clip-path="url(#clip0_762_673)">
<path d="M21.0382 5.89285C21.1551 4.95951 20.8879 4.01686 20.2952 3.27228C19.7025 2.5277 18.833 2.04217 17.8779 1.92252L6.13346 0.451166C5.17835 0.331509 4.21592 0.587522 3.45787 1.16288C2.69983 1.73824 2.20827 2.58582 2.09134 3.51916L0.815041 13.7067C0.698111 14.64 0.965385 15.5827 1.55807 16.3272C2.15075 17.0718 3.02028 17.5573 3.97539 17.677L12.0568 18.6894C14.7667 19.2082 12.7668 21.9702 13.2624 21.8647C18.7384 20.6993 19.5891 16.8127 19.5891 16.8127C19.6731 16.5762 19.7311 16.3315 19.7621 16.0828L21.0382 5.89285Z" fill="url(#paint0_linear_762_673)"/>
<path d="M6.99025 13.3752L14.8029 6.19127" stroke="white" stroke-width="1.5" stroke-miterlimit="10" stroke-linecap="round"/>
<path d="M7.73129 8.22077C8.61823 8.33189 9.42527 7.71934 9.53386 6.85261C9.64244 5.98588 9.01145 5.19317 8.12451 5.08206C7.23757 4.97094 6.43053 5.58348 6.32194 6.45022C6.21336 7.31695 6.84434 8.10965 7.73129 8.22077Z" stroke="white" stroke-width="1.5" stroke-miterlimit="10" stroke-linecap="round"/>
<path d="M13.9647 14.6829C14.8516 14.794 15.6587 14.1815 15.7673 13.3148C15.8758 12.448 15.2449 11.6553 14.3579 11.5442C13.471 11.4331 12.6639 12.0456 12.5553 12.9124C12.4468 13.7791 13.0777 14.5718 13.9647 14.6829Z" stroke="white" stroke-width="1.5" stroke-miterlimit="10" stroke-linecap="round"/>
</g>
<defs>
<linearGradient id="paint0_linear_762_673" x1="4.9241" y1="-4.13865" x2="26.4863" y2="1.82992" gradientUnits="userSpaceOnUse">
<stop stop-color="#781ECD"/>
<stop offset="1" stop-color="#F459B6"/>
</linearGradient>
<clipPath id="clip0_762_673">
<rect width="22" height="22" fill="white"/>
</clipPath>
</defs>
</svg>
