<svg width="22" height="22" viewBox="0 0 22 22" fill="none" xmlns="http://www.w3.org/2000/svg">
<path d="M11 17.4168V10.0835M8.25 16.5002V10.0835C8.25 9.16683 8.8 7.3335 11 7.3335C13.2 7.3335 13.75 9.16683 13.75 10.0835V15.5835M5.5 12.8335V10.0835C5.5 8.25016 6.6 4.5835 11 4.5835C15.4 4.5835 16.5 8.25016 16.5 10.0835M16.5 13.7502V12.8335" stroke="#2F3142" stroke-width="2" stroke-linecap="round" stroke-linejoin="round"/>
<path d="M5.501 15.5835H5.5" stroke="#2F3142" stroke-width="2" stroke-linecap="round" stroke-linejoin="round"/>
<path d="M6.41667 2.75H4.75C3.64543 2.75 2.75 3.64543 2.75 4.75V6.41667M2.75 15.5833V17.25C2.75 18.3546 3.64543 19.25 4.75 19.25H6.41667M15.5833 19.25H17.25C18.3546 19.25 19.25 18.3546 19.25 17.25V15.5833M19.25 6.41667V4.75C19.25 3.64543 18.3546 2.75 17.25 2.75H15.5833" stroke="#2F3142" stroke-width="2" stroke-linecap="round" stroke-linejoin="round"/>
</svg>
