<?xml version="1.0" encoding="utf-8"?>
<svg version="1.1" xmlns="http://www.w3.org/2000/svg" xmlns:xlink="http://www.w3.org/1999/xlink" x="0px" y="0px" viewBox="0 0 13 14" style="enable-background:new 0 0 13 14;" xml:space="preserve">
	<path fill="#8E90A7" d="M9.8,5.3c-0.6,0-1.1-0.2-1.5-0.5L5.6,6.5c0.1,0.4,0.1,0.7,0,1.1l2.7,1.7c0.4-0.4,1-0.5,1.5-0.5
	c0.5,0,1,0.1,1.4,0.4c0.4,0.3,0.7,0.7,0.9,1.1c0.2,0.5,0.2,1,0.1,1.4c-0.1,0.5-0.3,0.9-0.7,1.3c-0.3,0.3-0.8,0.6-1.3,0.7
	c-0.5,0.1-1,0-1.4-0.1C8.4,13.3,8,13,7.8,12.5c-0.3-0.4-0.4-0.9-0.4-1.4c0-0.2,0-0.4,0.1-0.5L4.7,8.9C4.4,9.2,3.9,9.4,3.5,9.5
	C3,9.5,2.5,9.5,2.1,9.2C1.7,9,1.3,8.7,1.1,8.3C0.8,7.9,0.7,7.5,0.7,7c0-0.5,0.1-0.9,0.4-1.3c0.3-0.4,0.6-0.7,1-0.9
	C2.5,4.5,3,4.5,3.5,4.5c0.5,0.1,0.9,0.2,1.3,0.5l2.7-1.7c0-0.2-0.1-0.4-0.1-0.5c0-0.5,0.1-1,0.4-1.4C8,1,8.4,0.7,8.9,0.5
	c0.5-0.2,1-0.2,1.4-0.1c0.5,0.1,0.9,0.3,1.3,0.7c0.3,0.3,0.6,0.8,0.7,1.3c0.1,0.5,0,1-0.1,1.4c-0.2,0.5-0.5,0.8-0.9,1.1
	C10.8,5.2,10.3,5.3,9.8,5.3z M9.8,12c0.2,0,0.3,0,0.5-0.1c0.1-0.1,0.2-0.2,0.3-0.4c0.1-0.2,0.1-0.3,0-0.5c0-0.2-0.1-0.3-0.2-0.4
	c-0.1-0.1-0.3-0.2-0.4-0.2s-0.3,0-0.5,0c-0.2,0.1-0.3,0.2-0.4,0.3C9.1,10.8,9,11,9,11.2c0,0.2,0.1,0.4,0.2,0.6
	C9.4,11.9,9.6,12,9.8,12z M3.2,6.2c-0.2,0-0.3,0-0.5,0.1C2.6,6.4,2.5,6.5,2.4,6.7C2.4,6.8,2.3,7,2.4,7.2c0,0.2,0.1,0.3,0.2,0.4
	C2.7,7.7,2.9,7.8,3,7.8s0.3,0,0.5,0c0.2-0.1,0.3-0.2,0.4-0.3C4,7.3,4,7.2,4,7c0-0.2-0.1-0.4-0.2-0.6C3.6,6.3,3.4,6.2,3.2,6.2z
	 M9.8,2c-0.2,0-0.3,0-0.5,0.1C9.2,2.2,9.1,2.4,9.1,2.5C9,2.7,9,2.8,9,3c0,0.2,0.1,0.3,0.2,0.4c0.1,0.1,0.3,0.2,0.4,0.2
	c0.2,0,0.3,0,0.5,0c0.2-0.1,0.3-0.2,0.4-0.3c0.1-0.1,0.1-0.3,0.1-0.5c0-0.2-0.1-0.4-0.2-0.6C10.3,2.1,10.1,2,9.8,2z" />
</svg>