<svg width="13" height="14" viewBox="0 0 13 14" fill="none" xmlns="http://www.w3.org/2000/svg">
<g clip-path="url(#clip0_416_960)">
<path d="M9.62463 5.25C9.03202 5.24861 8.45773 5.04452 7.99715 4.67163L5.17967 6.43037C5.27271 6.80383 5.27271 7.19441 5.17967 7.56787L7.99715 9.32662C8.45776 8.95398 9.03216 8.75047 9.62463 8.75C10.1438 8.75 10.6514 8.90395 11.083 9.19238C11.5147 9.48082 11.8511 9.89079 12.0498 10.3704C12.2485 10.8501 12.3005 11.3779 12.1992 11.8871C12.0979 12.3963 11.8479 12.864 11.4808 13.2312C11.1137 13.5983 10.646 13.8483 10.1368 13.9496C9.62759 14.0508 9.09973 13.9989 8.62007 13.8002C8.14042 13.6015 7.73049 13.2651 7.44205 12.8334C7.15361 12.4017 6.99963 11.8942 6.99963 11.375C7.00205 11.1836 7.02251 10.9929 7.06084 10.8054L4.25212 9.04663C3.86627 9.35652 3.40071 9.55103 2.90907 9.60772C2.41744 9.66441 1.91978 9.58096 1.47353 9.36701C1.02727 9.15306 0.650593 8.81732 0.386932 8.39851C0.123272 7.9797 -0.0166016 7.49489 -0.0166016 7C-0.0166016 6.50511 0.123272 6.0203 0.386932 5.60149C0.650593 5.18268 1.02727 4.84694 1.47353 4.63299C1.91978 4.41904 2.41744 4.33559 2.90907 4.39227C3.40071 4.44896 3.86627 4.64347 4.25212 4.95337L7.06084 3.19462C7.02252 3.0071 7.00206 2.81638 6.99963 2.625C6.99963 2.10582 7.15361 1.5983 7.44205 1.16662C7.73049 0.734942 8.14042 0.398496 8.62007 0.199816C9.09973 0.00113614 9.62759 -0.0508459 10.1368 0.0504402C10.646 0.151726 11.1137 0.401728 11.4808 0.768841C11.8479 1.13595 12.0979 1.60369 12.1992 2.11289C12.3005 2.62209 12.2485 3.14989 12.0498 3.62955C11.8511 4.1092 11.5147 4.51917 11.083 4.80761C10.6514 5.09605 10.1438 5.25 9.62463 5.25ZM9.62463 12.25C9.79769 12.25 9.96684 12.1987 10.1107 12.1025C10.2546 12.0064 10.3668 11.8697 10.433 11.7099C10.4992 11.55 10.5166 11.374 10.4829 11.2043C10.4491 11.0346 10.3658 10.8786 10.2434 10.7563C10.121 10.6339 9.96505 10.5506 9.79532 10.5168C9.62559 10.483 9.44967 10.5004 9.28978 10.5666C9.12989 10.6328 8.99329 10.745 8.89714 10.8889C8.80099 11.0328 8.74963 11.2019 8.74963 11.375C8.74963 11.6071 8.84178 11.8296 9.00587 11.9937C9.16997 12.1578 9.39257 12.25 9.62463 12.25ZM2.62463 6.125C2.45158 6.125 2.28243 6.17632 2.13853 6.27246C1.99464 6.36861 1.88251 6.50526 1.81628 6.66514C1.75006 6.82503 1.73264 7.00096 1.7664 7.1707C1.80017 7.34043 1.8835 7.49635 2.00587 7.61872C2.12825 7.74109 2.28422 7.82443 2.45395 7.85819C2.62368 7.89195 2.7996 7.87461 2.95949 7.80839C3.11937 7.74216 3.25598 7.63002 3.35213 7.48612C3.44827 7.34223 3.49963 7.17306 3.49963 7C3.49963 6.76793 3.40749 6.54537 3.24339 6.38128C3.0793 6.21718 2.8567 6.125 2.62463 6.125ZM9.62463 1.75C9.45158 1.75 9.28243 1.80132 9.13853 1.89747C8.99464 1.99361 8.88251 2.13026 8.81628 2.29014C8.75006 2.45003 8.73264 2.62596 8.7664 2.7957C8.80017 2.96543 8.8835 3.12135 9.00587 3.24372C9.12825 3.36609 9.28422 3.44943 9.45395 3.48319C9.62368 3.51695 9.7996 3.49961 9.95949 3.43339C10.1194 3.36716 10.256 3.25502 10.3521 3.11112C10.4483 2.96723 10.4996 2.79806 10.4996 2.625C10.4996 2.39293 10.4075 2.17037 10.2434 2.00628C10.0793 1.84219 9.8567 1.75 9.62463 1.75Z" fill="#8E90A7"/>
</g>
<defs>
<clipPath id="clip0_416_960">
<rect width="12.25" height="14" fill="white"/>
</clipPath>
</defs>
</svg>
