<svg width="17" height="17" viewBox="0 0 17 17" fill="none" xmlns="http://www.w3.org/2000/svg">
<g clip-path="url(#clip0_421_6948)">
<path d="M16.9099 12.5368C16.8893 12.4925 16.8701 12.4557 16.8523 12.4262C16.5573 11.895 15.9937 11.243 15.1617 10.4699L15.1441 10.4522L15.1353 10.4436L15.1264 10.4347H15.1175C14.7399 10.0747 14.5008 9.83267 14.4006 9.70875C14.2174 9.47271 14.1764 9.23378 14.2765 8.99168C14.3473 8.80877 14.613 8.42249 15.0731 7.83232C15.3152 7.51954 15.5068 7.26886 15.6484 7.08C16.6693 5.72275 17.1119 4.85545 16.9761 4.47775L16.9234 4.38949C16.888 4.33635 16.7965 4.28774 16.6492 4.24341C16.5015 4.19917 16.3127 4.19186 16.0825 4.22134L13.5334 4.23895C13.4921 4.22431 13.4332 4.22568 13.3563 4.24341C13.2796 4.26114 13.2412 4.27004 13.2412 4.27004L13.1969 4.29221L13.1617 4.31884C13.1321 4.33645 13.0997 4.36742 13.0642 4.41169C13.029 4.4558 12.9995 4.50758 12.976 4.56657C12.6984 5.28057 12.3829 5.94441 12.0288 6.55806C11.8104 6.92397 11.6099 7.24108 11.4268 7.50959C11.2439 7.778 11.0905 7.97576 10.9666 8.10253C10.8426 8.22942 10.7307 8.33107 10.6302 8.40786C10.5299 8.48468 10.4533 8.51714 10.4002 8.50527C10.347 8.49339 10.297 8.48161 10.2496 8.46983C10.167 8.4167 10.1006 8.34443 10.0505 8.25298C10.0003 8.16152 9.96641 8.04641 9.94871 7.90774C9.9311 7.76898 9.92068 7.64962 9.91771 7.54927C9.91495 7.44904 9.91622 7.30727 9.9222 7.12436C9.92834 6.94136 9.9311 6.81754 9.9311 6.75262C9.9311 6.52836 9.93547 6.28496 9.94425 6.02238C9.95317 5.75979 9.9604 5.55174 9.96644 5.39847C9.97246 5.24504 9.97525 5.08272 9.97525 4.91159C9.97525 4.74046 9.96483 4.60625 9.94425 4.50885C9.92391 4.41156 9.89269 4.31713 9.85155 4.22558C9.81016 4.13413 9.74959 4.06338 9.6701 4.01316C9.59045 3.963 9.49143 3.92319 9.3736 3.89362C9.06082 3.82284 8.66254 3.78456 8.17858 3.7786C7.08109 3.76682 6.37589 3.83769 6.06315 3.99112C5.93923 4.05594 5.8271 4.14452 5.72684 4.25656C5.6206 4.38642 5.60578 4.45729 5.68248 4.46895C6.03658 4.52199 6.28726 4.64888 6.4348 4.84949L6.48796 4.9558C6.52932 5.0325 6.57061 5.16828 6.61194 5.36297C6.6532 5.55766 6.67983 5.77303 6.69155 6.00895C6.721 6.43978 6.721 6.80858 6.69155 7.11537C6.66201 7.42229 6.63411 7.66122 6.60747 7.83235C6.58084 8.00348 6.54104 8.14215 6.48796 8.24833C6.4348 8.35454 6.39942 8.41946 6.38169 8.44302C6.36399 8.46658 6.34923 8.48143 6.33751 8.48726C6.26081 8.51665 6.18105 8.53162 6.09849 8.53162C6.01581 8.53162 5.91555 8.49026 5.79756 8.40761C5.67959 8.32496 5.55717 8.21143 5.43028 8.06684C5.30339 7.92222 5.16029 7.72012 5.00091 7.46051C4.84165 7.20091 4.67641 6.89408 4.50528 6.54004L4.3637 6.28329C4.27519 6.11811 4.15428 5.8776 4.00086 5.56197C3.84734 5.24622 3.71164 4.94079 3.59368 4.64575C3.54653 4.52184 3.47569 4.4275 3.38129 4.36258L3.33699 4.33595C3.30754 4.31239 3.26026 4.28737 3.1954 4.26071C3.13045 4.23408 3.06268 4.21498 2.99181 4.20323L0.566586 4.22084C0.318759 4.22084 0.150606 4.27699 0.0620653 4.38912L0.0266304 4.44216C0.00892848 4.47171 0 4.51889 0 4.58384C0 4.64876 0.0177019 4.72843 0.0531368 4.82277C0.407176 5.65485 0.792185 6.45733 1.20817 7.23033C1.62415 8.00332 1.98562 8.62599 2.29239 9.09777C2.59921 9.5699 2.91195 10.0155 3.23062 10.4343C3.54929 10.8533 3.76022 11.1218 3.86343 11.2398C3.96675 11.3579 4.04792 11.4463 4.10691 11.5053L4.32823 11.7177C4.46985 11.8593 4.67781 12.029 4.9522 12.2266C5.22666 12.4244 5.53051 12.6191 5.8639 12.811C6.19735 13.0026 6.58528 13.159 7.02789 13.2799C7.47044 13.401 7.90117 13.4496 8.32016 13.4261H9.33807C9.54451 13.4083 9.70091 13.3434 9.80722 13.2313L9.84243 13.187C9.86612 13.1518 9.88829 13.097 9.90875 13.0234C9.92946 12.9497 9.93975 12.8684 9.93975 12.78C9.9337 12.5263 9.95302 12.2977 9.99716 12.0941C10.0413 11.8906 10.0916 11.7372 10.1478 11.6339C10.204 11.5307 10.2674 11.4435 10.338 11.3729C10.4088 11.3021 10.4592 11.2593 10.4888 11.2445C10.5181 11.2297 10.5416 11.2196 10.5593 11.2135C10.7009 11.1664 10.8676 11.2121 11.0596 11.3508C11.2514 11.4895 11.4313 11.6607 11.5995 11.8642C11.7677 12.0679 11.9698 12.2964 12.2058 12.5501C12.4419 12.8039 12.6484 12.9925 12.8254 13.1166L13.0023 13.2228C13.1205 13.2937 13.2739 13.3586 13.4628 13.4176C13.6513 13.4766 13.8165 13.4914 13.9583 13.4619L16.2241 13.4265C16.4482 13.4265 16.6226 13.3894 16.7463 13.3158C16.8703 13.242 16.9439 13.1608 16.9676 13.0724C16.9913 12.9839 16.9926 12.8835 16.9721 12.7713C16.9511 12.6594 16.9305 12.5811 16.9099 12.5368Z" fill="#8E90A7"/>
</g>
<defs>
<clipPath id="clip0_421_6948">
<rect width="17" height="17" fill="white"/>
</clipPath>
</defs>
</svg>
