<svg width="14" height="15" viewBox="0 0 14 15" fill="none" xmlns="http://www.w3.org/2000/svg">
<g clip-path="url(#clip0_416_950)">
<path d="M13.6963 6.62199C13.9719 6.35343 14.0692 5.95928 13.9503 5.59288C13.8312 5.22648 13.5208 4.96492 13.1396 4.90942L9.74976 4.41686C9.60539 4.39584 9.48064 4.30529 9.41616 4.17437L7.90066 1.10301C7.7305 0.757914 7.38512 0.543457 7.00022 0.543457C6.6156 0.543457 6.27023 0.757914 6.10006 1.10301L4.58428 4.17465C4.51981 4.30557 4.39478 4.39612 4.2504 4.41715L0.860575 4.9097C0.479597 4.96492 0.168985 5.22676 0.0498417 5.59316C-0.0690209 5.95956 0.0282558 6.35371 0.303827 6.62227L2.75649 9.01298C2.86106 9.11502 2.90899 9.26192 2.88432 9.40545L2.30571 12.7813C2.25441 13.0784 2.33234 13.3674 2.52465 13.5954C2.82349 13.9505 3.3452 14.0588 3.76234 13.8395L6.79389 12.2455C6.92061 12.1791 7.08012 12.1797 7.20655 12.2455L10.2384 13.8395C10.3858 13.9172 10.5431 13.9564 10.7054 13.9564C11.0017 13.9564 11.2826 13.8247 11.4758 13.5954C11.6684 13.3674 11.746 13.0779 11.6947 12.7813L11.1158 9.40545C11.0912 9.26164 11.1391 9.11502 11.2437 9.01298L13.6963 6.62199Z" fill="#F9A23B"/>
</g>
<defs>
<clipPath id="clip0_416_950">
<rect width="14" height="14" fill="white" transform="translate(0 0.25)"/>
</clipPath>
</defs>
</svg>
