<?xml version="1.0" encoding="utf-8"?>
<svg version="1.1" xmlns="http://www.w3.org/2000/svg" xmlns:xlink="http://www.w3.org/1999/xlink" x="0px" y="0px" viewBox="0 0 14 15" style="enable-background:new 0 0 14 15;" xml:space="preserve">
	<path fill="#F9A23B" d="M13.7,6.9c0.3-0.3,0.4-0.7,0.3-1c-0.1-0.4-0.4-0.6-0.8-0.7L9.7,4.7c-0.1,0-0.3-0.1-0.3-0.2L7.9,1.4
	C7.7,1,7.4,0.8,7,0.8C6.6,0.8,6.3,1,6.1,1.4L4.6,4.4C4.5,4.6,4.4,4.6,4.3,4.7L0.9,5.2C0.5,5.2,0.2,5.5,0,5.8c-0.1,0.4,0,0.8,0.3,1
	l2.5,2.4c0.1,0.1,0.2,0.2,0.1,0.4L2.3,13c-0.1,0.3,0,0.6,0.2,0.8c0.3,0.4,0.8,0.5,1.2,0.2l3-1.6c0.1-0.1,0.3-0.1,0.4,0l3,1.6
	c0.1,0.1,0.3,0.1,0.5,0.1c0.3,0,0.6-0.1,0.8-0.4c0.2-0.2,0.3-0.5,0.2-0.8l-0.6-3.4c0-0.1,0-0.3,0.1-0.4L13.7,6.9z" />
</svg>