<svg width="22" height="22" viewBox="0 0 22 22" fill="none" xmlns="http://www.w3.org/2000/svg">
<path d="M13.75 7.33317V5.6665C13.75 4.56193 12.8546 3.6665 11.75 3.6665H10.25C9.14543 3.6665 8.25 4.56194 8.25 5.66651V7.33317M13.75 7.33317H17.25C18.3546 7.33317 19.25 8.2286 19.25 9.33317V16.3332C19.25 17.4377 18.3546 18.3332 17.25 18.3332H6.41667M13.75 7.33317H8.25M8.25 7.33317H6.41667M6.41667 7.33317H4.75C3.64543 7.33317 2.75 8.2286 2.75 9.33317V16.3332C2.75 17.4377 3.64543 18.3332 4.75 18.3332H6.41667M6.41667 7.33317V18.3332M15.5833 7.33317V18.3332" stroke="#2F3142" stroke-width="2" stroke-linecap="round" stroke-linejoin="round"/>
</svg>
