<svg width="18" height="18" viewBox="0 0 18 18" fill="none" xmlns="http://www.w3.org/2000/svg">
<path d="M12.75 14.25H3.25C2.69772 14.25 2.25 13.8023 2.25 13.25V4.75C2.25 4.19772 2.69772 3.75 3.25 3.75H12.75M12.75 14.25H14.75C15.3023 14.25 15.75 13.8023 15.75 13.25V4.75C15.75 4.19772 15.3023 3.75 14.75 3.75H12.75M12.75 14.25V13.5M12.75 3.75V4.5" stroke="#7099F1" stroke-width="1.5" stroke-linecap="round" stroke-linejoin="round"/>
<path d="M12.75 6.75L12.75 6.749" stroke="#7099F1" stroke-width="1.5" stroke-linecap="round" stroke-linejoin="round"/>
<path d="M12.75 9L12.75 8.999" stroke="#7099F1" stroke-width="1.5" stroke-linecap="round" stroke-linejoin="round"/>
<path d="M12.75 11.25L12.75 11.249" stroke="#7099F1" stroke-width="1.5" stroke-linecap="round" stroke-linejoin="round"/>
<path d="M5.25 9H9.75M5.25 11.25H7.5" stroke="#7099F1" stroke-width="1.5" stroke-linecap="round" stroke-linejoin="round"/>
</svg>
