<svg width="18" height="19" viewBox="0 0 18 19" fill="none" xmlns="http://www.w3.org/2000/svg">
<path d="M4.70203 15.2302C5.49318 15.2302 6.13453 14.5889 6.13453 13.7977C6.13453 13.0066 5.49318 12.3652 4.70203 12.3652C3.91088 12.3652 3.26953 13.0066 3.26953 13.7977C3.26953 14.5889 3.91088 15.2302 4.70203 15.2302Z" stroke="#3EBB00" stroke-width="1.5" stroke-miterlimit="10"/>
<path d="M13.2977 15.2302C14.0889 15.2302 14.7302 14.5889 14.7302 13.7977C14.7302 13.0066 14.0889 12.3652 13.2977 12.3652C12.5066 12.3652 11.8652 13.0066 11.8652 13.7977C11.8652 14.5889 12.5066 15.2302 13.2977 15.2302Z" stroke="#3EBB00" stroke-width="1.5" stroke-miterlimit="10"/>
<path d="M3.27 13.797H2.125C1.57272 13.797 1.125 13.3493 1.125 12.797V4.76953C1.125 4.21725 1.57272 3.76953 2.125 3.76953H13.01C13.5623 3.76953 14.01 4.21725 14.01 4.76953V6.63453L15.4425 9.49953L16.875 10.302V13.797H14.73" stroke="#3EBB00" stroke-width="1.5" stroke-miterlimit="10"/>
<path d="M11.8648 13.7969H6.13477" stroke="#3EBB00" stroke-width="1.5" stroke-miterlimit="10"/>
<path d="M15.5456 9.49929H9.81836V6.22656H13.6365" stroke="#3EBB00" stroke-width="1.5" stroke-miterlimit="10"/>
</svg>
