<svg width="22" height="22" viewBox="0 0 22 22" fill="none" xmlns="http://www.w3.org/2000/svg">
<path d="M5.74742 18.0031C6.71437 18.0031 7.49825 17.2193 7.49825 16.2523C7.49825 15.2853 6.71437 14.5015 5.74742 14.5015C4.78046 14.5015 3.99658 15.2853 3.99658 16.2523C3.99658 17.2193 4.78046 18.0031 5.74742 18.0031Z" stroke="#2F3142" stroke-width="2" stroke-miterlimit="10"/>
<path d="M16.2525 18.0031C17.2195 18.0031 18.0034 17.2193 18.0034 16.2523C18.0034 15.2853 17.2195 14.5015 16.2525 14.5015C15.2856 14.5015 14.5017 15.2853 14.5017 16.2523C14.5017 17.2193 15.2856 18.0031 16.2525 18.0031Z" stroke="#2F3142" stroke-width="2" stroke-miterlimit="10"/>
<path d="M3.99667 16.2524H2.375C1.82272 16.2524 1.375 15.8047 1.375 15.2524V4.99658C1.375 4.4443 1.82272 3.99658 2.375 3.99658H16.1233C16.6756 3.99658 17.1233 4.4443 17.1233 4.99658V7.49825L18.8742 10.9999L20.625 11.9807V16.2524H18.0033" stroke="#2F3142" stroke-width="2" stroke-miterlimit="10"/>
<path d="M14.5016 16.2524H7.49829" stroke="#2F3142" stroke-width="2" stroke-miterlimit="10"/>
<path d="M19 11H12V7H16.6667" stroke="#2F3142" stroke-width="2" stroke-miterlimit="10"/>
</svg>
