<svg width="22" height="22" viewBox="0 0 22 22" fill="none" xmlns="http://www.w3.org/2000/svg">
<path d="M4 18.5C8 12.5 14 12.5 18 18.5M11 4C11.9889 4 12.9556 4.29324 13.7779 4.84265C14.6001 5.39206 15.241 6.17295 15.6194 7.08658C15.9978 8.00021 16.0969 9.00555 15.9039 9.97545C15.711 10.9454 15.2348 11.8363 14.5355 12.5355C13.8363 13.2348 12.9454 13.711 11.9755 13.9039C11.0055 14.0969 10.0002 13.9978 9.08658 13.6194C8.17295 13.241 7.39206 12.6001 6.84265 11.7779C6.29324 10.9556 6 9.98891 6 9C6 7.67392 6.52678 6.40215 7.46447 5.46447C8.40215 4.52678 9.67392 4 11 4Z" stroke="#2F3142" stroke-width="2" stroke-linecap="round"/>
</svg>
