<svg width="512" height="512" viewBox="0 0 512 512" fill="none" xmlns="http://www.w3.org/2000/svg">
<mask id="mask0_915_594" style="mask-type:alpha" maskUnits="userSpaceOnUse" x="0" y="0" width="512" height="512">
<path d="M295.241 0H217.174C498.297 0 512 13.7032 512 294.826V217.174C512 498.297 498.297 512 217.174 512H294.826C13.7032 512 0 498.297 0 217.174V294.826C0 13.7032 13.7031 0 295.241 0Z" fill="url(#paint0_linear_915_594)"/>
</mask>
<g mask="url(#mask0_915_594)">
<path d="M295.241 0H217.174C498.297 0 512 13.7032 512 294.826V217.174C512 498.297 498.297 512 217.174 512H294.826C13.7032 512 0 498.297 0 217.174V294.826C0 13.7032 13.7031 0 295.241 0Z" fill="url(#paint1_linear_915_594)"/>
<path d="M393.2 196.782C377.4 161.782 348.9 134.982 312.9 121.382C277.2 107.882 238.5 108.982 203.7 124.482C199.3 126.182 182.9 132.982 159.3 146.082L159.2 146.282L138.7 159.182L118.5 171.882L-171 339.982V413.482L98.8004 257.682L178.8 207.382L188.7 201.182C211.5 188.382 226.3 182.482 226.6 182.382L228.5 181.582C269.5 163.082 317.8 181.382 336.3 222.282C354.8 263.282 336.5 311.582 295.6 330.082C275.8 339.082 253.6 339.782 233.2 332.082C213.6 324.682 197.9 310.282 188.7 291.482L134.2 322.182L138.5 329.782C155.1 357.582 180.4 378.882 211.1 390.482C247.1 404.082 286.2 402.882 321.2 386.982C393.6 354.582 425.8 269.082 393.2 196.782Z" fill="white"/>
</g>
<defs>
<linearGradient id="paint0_linear_915_594" x1="49.8407" y1="-110.703" x2="641.677" y2="-18.2538" gradientUnits="userSpaceOnUse">
<stop stop-color="#781ECD"/>
<stop offset="1" stop-color="#F459B6"/>
</linearGradient>
<linearGradient id="paint1_linear_915_594" x1="-1.4683e-05" y1="-108.544" x2="679.215" y2="13.99" gradientUnits="userSpaceOnUse">
<stop stop-color="#781ECD"/>
<stop offset="1" stop-color="#F459B6"/>
</linearGradient>
</defs>
</svg>
