<svg width="130" height="30" viewBox="0 0 130 30" fill="none" xmlns="http://www.w3.org/2000/svg">
<g>
<path d="M8.78792 22.2225C6.16164 22.2225 4.04042 21.4144 2.42426 19.6972C0.808084 17.98 0 15.9598 0 13.5355C0 11.1113 0.808084 9.09107 2.42426 7.37389C4.04042 5.65671 6.16164 4.84863 8.78792 4.84863C11.4142 4.84863 13.4344 5.75772 15.0506 7.37389C16.6668 8.99007 17.4748 11.1113 17.4748 13.5355C17.4748 15.9598 16.6668 17.98 15.0506 19.6972C13.4344 21.4144 11.4142 22.2225 8.78792 22.2225ZM8.78792 20.8083C10.8081 20.8083 12.5253 20.1013 13.8384 18.788C15.2526 17.3739 15.9597 15.6567 15.9597 13.6366C15.9597 11.6164 15.2526 9.89916 13.8384 8.48501C12.5253 7.07085 10.8081 6.36379 8.78792 6.36379C6.76771 6.36379 5.05053 7.07085 3.63638 8.48501C2.32324 9.89916 1.61617 11.6164 1.61617 13.6366C1.61617 15.6567 2.32324 17.3739 3.63638 18.788C5.05053 20.1013 6.76771 20.8083 8.78792 20.8083Z" fill="#8d1ecd"/>
<path d="M34.9494 7.4749C36.4646 9.19208 37.2727 11.2123 37.2727 13.5355C37.2727 15.9598 36.4646 17.98 34.9494 19.6972C33.4342 21.4144 31.414 22.2225 28.8888 22.2225C25.9594 22.2225 23.7372 21.1114 22.02 18.889V28.7882H20.5049V5.25267H22.02V8.18198C23.6362 5.95974 25.8584 4.84863 28.8888 4.84863C31.313 4.84863 33.3332 5.75772 34.9494 7.4749ZM22.02 10.4042V16.6668C23.1311 19.0912 25.7574 20.8083 28.5858 20.8083C30.606 20.8083 32.3231 20.1013 33.6362 18.687C34.9494 17.2729 35.6564 15.5557 35.6564 13.5355C35.6564 11.5154 34.9494 9.79814 33.6362 8.384C32.3231 6.96984 30.606 6.26278 28.5858 6.26278C25.7574 6.36379 23.1311 7.97996 22.02 10.4042Z" fill="#8d1ecd"/>
<path d="M41.7171 17.4748V6.6667H37.4746V5.25254H41.7171V0H43.2322V5.35356H49.3938V6.76771H43.2322V17.0708C43.2322 19.6971 44.1413 20.8082 46.3635 20.8082C47.3736 20.8082 48.2827 20.6061 49.1918 20.0001V21.4142C48.4847 21.9193 47.4746 22.2223 45.9595 22.2223C43.1312 22.2223 41.7171 20.4041 41.7171 17.4748Z" fill="#8d1ecd"/>
<path d="M127.273 7.27276C125.556 5.55558 123.435 4.64648 121.01 4.64648C118.687 4.64648 116.465 5.55558 114.849 7.17175C114.647 7.37377 113.839 8.08084 112.728 9.39398V4.84851H108.485V14.3436C108.485 14.3436 108.485 18.4849 104.445 18.4849C104.445 18.4849 100.606 18.586 100.606 13.9394V4.84851H96.4649V10.9091C96.0608 9.59601 95.3538 8.28286 94.2427 7.27276C92.5255 5.55558 90.4042 4.64648 87.98 4.64648C85.6568 4.64648 83.4345 5.55558 81.8183 7.17175C81.6163 7.47478 80.6062 8.38387 79.192 10.1011C79.192 10 79.091 9.89904 79.091 9.69702C77.9799 6.76771 75.0507 4.64648 71.7172 4.64648C69.7981 4.64648 68.0809 5.35356 66.6668 6.46467C66.3637 6.6667 66.1617 6.86872 65.9597 7.17175C65.7577 6.96973 65.4547 6.6667 65.2526 6.46467C63.8385 5.35356 62.1212 4.64648 60.2021 4.64648C55.8587 4.64648 52.3232 8.18185 52.3232 12.5253V22.2223H56.5657V12.6263C56.5657 10.6061 58.1819 8.98994 60.2021 8.98994C62.2222 8.98994 63.8385 10.6061 63.8385 12.6263V22.2223H64.3436H67.4748H67.9799V12.6263C67.9799 10.6061 69.596 8.98994 71.6162 8.98994C73.6365 8.98994 75.2527 10.6061 75.2527 12.6263V22.2223H78.889H79.5961V16.2627C82.0203 12.2223 84.3436 10.1011 84.4446 10.1011L84.5457 10C86.4648 8.08084 89.6971 8.08084 91.6163 10C93.5356 11.9192 93.5356 15.1516 91.6163 17.0708C90.7072 17.9799 89.3941 18.4849 88.081 18.4849C86.7679 18.4849 85.5557 17.9799 84.6467 17.0708L82.2224 20.0001L82.6265 20.3031C84.1416 21.5152 86.0608 22.2223 88.081 22.2223C90.4042 22.2223 92.6265 21.3132 94.3437 19.596C95.4548 18.4849 96.1618 17.2728 96.5659 15.9597C96.5659 16.9698 97.1719 22.3233 104.445 22.2223C104.445 22.2223 107.071 22.3233 108.586 20.7072V21.2122C108.586 22.5253 108.485 23.8384 107.475 24.8486C106.566 25.7577 105.253 26.2628 103.94 26.2628C102.626 26.2628 101.414 25.7577 100.505 24.8486L98.081 27.7779L98.4851 28.0809C100 29.2931 101.919 30.0001 103.94 30.0001C106.263 30.0001 108.485 29.091 110.202 27.3739C111.919 25.6567 112.728 23.4344 112.829 21.2122V15.7577C115.152 11.8182 117.475 9.79803 117.576 9.79803L117.677 9.69702C119.597 7.77782 122.829 7.77782 124.748 9.69702C126.667 11.6162 126.667 14.8486 124.748 16.7678C123.839 17.6769 122.526 18.1819 121.212 18.1819C119.899 18.1819 118.687 17.6769 117.778 16.7678L115.353 19.6971L115.758 20.0001C117.273 21.2122 119.192 21.9193 121.212 21.9193C123.536 21.9193 125.758 21.0102 127.475 19.293C130.708 16.3637 130.708 10.7071 127.273 7.27276Z" fill="#8d1ecd"/>
</g>
</svg>
