<?xml version="1.0" encoding="utf-8"?>
<svg version="1.2" baseProfile="tiny" id="Слой_1" xmlns="http://www.w3.org/2000/svg" xmlns:xlink="http://www.w3.org/1999/xlink" x="0px" y="0px" viewBox="0 0 130 30" overflow="visible" xml:space="preserve">
<g>
	<path fill="#8D1ECD" d="M8.8,22.2c-2.6,0-4.7-0.8-6.4-2.5c-3.2-3.2-3.2-9.1,0-12.3c3-3.4,9.6-3.3,12.6,0 C20.3,12.5,16.6,22.6,8.8,22.2z M8.8,20.8c2,0,3.7-0.7,5.1-2c2.8-2.7,2.8-7.6,0-10.3c-2.5-2.9-7.6-2.8-10.2,0 C1,11.2,1,16.1,3.6,18.8C5.1,20.1,6.8,20.8,8.8,20.8z"/>
	<path fill="#8D1ECD" d="M34.9,7.5c3.1,3.3,3.1,9,0,12.2c-3.2,3.7-10.2,3.2-12.9-0.8v9.9h-1.5V5.3H22v2.9 C24.7,4.1,31.7,3.7,34.9,7.5z M22,10.4v6.3c1.8,4.3,8.5,5.7,11.6,2c2.7-2.7,2.7-7.6,0-10.3c-1.3-1.4-3-2.1-5.1-2.1 C25.8,6.4,23.1,8,22,10.4z"/>
	<path fill="#8D1ECD" d="M41.7,17.5V6.7h-4.2V5.3h4.2V0h1.5v5.4h6.2v1.4h-6.2v10.3c0,2.6,0.9,3.7,3.1,3.7c1,0,1.9-0.2,2.8-0.8v1.4 C46,23.3,41.5,22.2,41.7,17.5z"/>
	<path fill="#8D1ECD" d="M127.3,7.3c-3.2-3.5-9.2-3.5-12.4-0.1c-0.2,0.2-1,0.9-2.1,2.2V4.8h-4.2v9.5c0,0,0,4.1-4,4.1 c0,0-3.8,0.1-3.8-4.5V4.8h-4.1v6.1c-0.4-1.3-1.1-2.6-2.2-3.6C91,3.8,85.1,3.8,81.8,7.2c-0.2,0.3-1.2,1.2-2.6,2.9 c0-0.1-0.1-0.2-0.1-0.4C77.4,4.8,70.6,3,66.7,6.5c-0.3,0.2-0.5,0.4-0.7,0.7c-0.2-0.2-0.5-0.5-0.7-0.7c-5-4.2-13-0.6-12.9,6.1v9.7 h4.2v-9.6c0.1-4.8,7.2-4.8,7.3,0v9.6h0.5h3.1H68v-9.6c0.1-4.8,7.2-4.8,7.3,0v9.6h3.6h0.7v-6c2.4-4,4.7-6.2,4.8-6.2l0.1-0.1 c1.9-1.9,5.2-1.9,7.1,0c1.9,1.9,1.9,5.2,0,7.1c-1.8,1.8-5.2,1.9-7,0L82.2,20l0.4,0.3c3.4,2.8,8.6,2.5,11.7-0.7 c1.1-1.1,1.8-2.3,2.2-3.6c0,1,0.6,6.4,7.9,6.3c0,0,2.6,0.1,4.1-1.5v0.5c0,1.3-0.1,2.6-1.1,3.6c-1.8,1.8-5.2,1.9-7,0l-2.4,2.9 l0.4,0.3c3.4,2.8,8.6,2.5,11.7-0.7c1.7-1.7,2.5-3.9,2.6-6.2v-5.5c2.3-3.9,4.6-6,4.7-6l0.1-0.1c1.9-1.9,5.2-1.9,7.1,0 c4.5,4.8-2.2,11.5-7,7.1l-2.4,2.9l0.4,0.3c3.4,2.8,8.6,2.5,11.7-0.7C130.7,16.4,130.7,10.7,127.3,7.3z"/>
</g>
</svg>
