<svg width="140" height="18" viewBox="0 0 140 18" fill="none" xmlns="http://www.w3.org/2000/svg">
<g opacity="0.5">
<path d="M13.2803 14.6716L15.1876 3.47461H18.2395L16.3304 14.6716H13.2803Z" fill="#8E90A7"/>
<path d="M27.3989 3.75112C26.7942 3.52472 25.8464 3.28125 24.6632 3.28125C21.649 3.28125 19.5233 4.79868 19.5063 6.97465C19.4883 8.58551 21.0228 9.48393 22.1809 10.0194C23.3686 10.5665 23.7675 10.9178 23.7621 11.4074C23.7549 12.1585 22.8142 12.5008 21.9374 12.5008C20.7155 12.5008 20.0669 12.331 19.0651 11.9151L18.6716 11.7345L18.2422 14.242C18.9564 14.5546 20.2744 14.8259 21.6427 14.8385C24.8501 14.8385 26.9335 13.3381 26.956 11.0148C26.9685 9.73908 26.1546 8.77059 24.3937 7.9701C23.3263 7.45441 22.6741 7.10672 22.6813 6.58384C22.6813 6.11846 23.2338 5.62073 24.4287 5.62073C25.4259 5.60456 26.1492 5.82288 26.7134 6.05108L26.9865 6.18135L27.3989 3.75112Z" fill="#8E90A7"/>
<path d="M35.2246 3.48535H32.8662C32.1358 3.48535 31.5887 3.6857 31.2698 4.41521L26.7363 14.6734H29.941C29.941 14.6734 30.4648 13.2961 30.5834 12.9924C30.9337 12.9924 34.0459 12.9978 34.4915 12.9978C34.5831 13.3895 34.8634 14.6734 34.8634 14.6734H37.6934L35.2246 3.48535ZM31.4611 10.7023C31.7127 10.0564 32.6767 7.57226 32.6767 7.57226C32.6587 7.60191 32.9273 6.9245 33.0819 6.50404L33.2876 7.46894C33.2876 7.46894 33.8734 10.1417 33.9947 10.7032H31.4611V10.7023Z" fill="#8E90A7"/>
<path d="M10.7198 3.4834L7.7326 11.1182L7.41456 9.56659C6.85844 7.77874 5.12449 5.83815 3.1875 4.86876L5.91959 14.6597L9.14851 14.6561L13.9524 3.4834H10.7198Z" fill="#8E90A7"/>
<path d="M4.96017 3.47559H0.038632L0 3.70917C3.82906 4.63544 6.3617 6.8761 7.41375 9.56776L6.34374 4.42342C6.15956 3.71457 5.6241 3.50254 4.96017 3.47559Z" fill="#8E90A7"/>
<path d="M63.1454 8.53498C63.1454 5.82175 64.414 3.40591 66.386 1.84445C64.9315 0.691782 63.0924 0 61.0916 0C56.3767 0 52.5566 3.82187 52.5566 8.53498C52.5566 13.2499 56.3767 17.07 61.0916 17.07C63.0924 17.07 64.9306 16.3818 66.386 15.2273C64.414 13.6641 63.1454 11.25 63.1454 8.53498Z" fill="#8E90A7"/>
<path d="M63.1455 8.53525C63.1455 11.2494 64.4141 13.6643 66.3861 15.2276C68.3599 13.6643 69.6267 11.2494 69.6267 8.53525C69.6267 5.82203 68.3599 3.40618 66.3861 1.84473C64.4141 3.40618 63.1455 5.82292 63.1455 8.53525Z" fill="#8E90A7"/>
<path d="M71.6811 0C69.6803 0 67.8422 0.691782 66.3867 1.84445C68.3605 3.40591 69.6273 5.82265 69.6273 8.53498C69.6273 11.2491 68.3605 13.6641 66.3867 15.2273C67.8413 16.3818 69.6803 17.07 71.6811 17.07C76.396 17.07 80.2161 13.2499 80.2161 8.53498C80.2161 3.82187 76.396 0 71.6811 0Z" fill="#8E90A7" fill-opacity="0.5"/>
<g clip-path="url(#clip0_421_6916)">
<path d="M120.068 4.37015L117.241 9.99359H116.958V3.14453H112.938V14.7375H116.346C117.241 14.7375 118.058 14.2616 118.435 13.5118L121.262 7.8884H121.545V14.7375H125.566V3.14453H122.157C121.262 3.14453 120.445 3.62036 120.068 4.37015Z" fill="#8E90A7"/>
<path d="M104.99 4.65853L103.309 9.99359H103.026L101.346 4.65853C101.063 3.76455 100.168 3.14453 99.1469 3.14453H95.126V14.7375H99.1469V7.8884H99.4296L101.723 14.7375H104.597L106.89 7.8884H107.173V14.7375H111.194V3.14453H107.189C106.168 3.14453 105.272 3.76455 104.99 4.65853Z" fill="#8E90A7"/>
<path d="M127.293 8.40723V14.7372H131.298V11.0459H135.617C137.487 11.0459 139.089 9.95007 139.67 8.40723H127.293Z" fill="#8E90A7"/>
<path d="M135.618 3.14453H126.712C127.246 5.8409 129.822 7.8884 132.916 7.8884H139.827C139.89 7.62886 139.905 7.36932 139.905 7.09536C139.921 4.91808 137.989 3.14453 135.618 3.14453Z" fill="#8E90A7" fill-opacity="0.5"/>
</g>
</g>
<defs>
<clipPath id="clip0_421_6916">
<rect width="44.9209" height="11.6794" fill="white" transform="translate(95.0791 3.11523)"/>
</clipPath>
</defs>
</svg>
