<?xml version="1.0" encoding="utf-8"?>
<!-- Generator: Adobe Illustrator 25.3.1, SVG Export Plug-In . SVG Version: 6.00 Build 0)  -->
<svg version="1.1" id="Слой_1" xmlns="http://www.w3.org/2000/svg" xmlns:xlink="http://www.w3.org/1999/xlink" x="0px" y="0px"
	 viewBox="0 0 140 18" style="enable-background:new 0 0 140 18;" xml:space="preserve">
<style type="text/css">
	.st0{opacity:0.5;}
	.st1{fill:#8E90A7;}
	.st2{fill:#8E90A7;fill-opacity:0.5;}
</style>
<g class="st0">
	<path class="st1" d="M13.4,15.1l1.9-11.2h3.1l-1.9,11.2H13.4z"/>
	<path class="st1" d="M27.5,4.1c-0.6-0.2-1.6-0.5-2.7-0.5c-3,0-5.1,1.5-5.2,3.7c0,1.6,1.5,2.5,2.7,3c1.2,0.5,1.6,0.9,1.6,1.4
		c0,0.8-0.9,1.1-1.8,1.1c-1.2,0-1.9-0.2-2.9-0.6l-0.4-0.2l-0.4,2.5c0.7,0.3,2,0.6,3.4,0.6c3.2,0,5.3-1.5,5.3-3.8
		c0-1.3-0.8-2.2-2.6-3c-1.1-0.5-1.7-0.9-1.7-1.4c0-0.5,0.6-1,1.7-1c1,0,1.7,0.2,2.3,0.4l0.3,0.1L27.5,4.1z"/>
	<path id="_x3C_Контур_x3E_" class="st1" d="M35.3,3.9H33c-0.7,0-1.3,0.2-1.6,0.9l-4.5,10.3H30c0,0,0.5-1.4,0.6-1.7
		c0.4,0,3.5,0,3.9,0c0.1,0.4,0.4,1.7,0.4,1.7h2.8L35.3,3.9z M31.6,11.1c0.3-0.6,1.2-3.1,1.2-3.1c0,0,0.3-0.6,0.4-1.1l0.2,1
		c0,0,0.6,2.7,0.7,3.2L31.6,11.1L31.6,11.1z"/>
	<path class="st1" d="M10.8,3.9l-3,7.6L7.5,9.9C7,8.2,5.2,6.2,3.3,5.2L6,15l3.2,0L14,3.9H10.8z"/>
	<path class="st1" d="M5.1,3.9H0.1l0,0.2C3.9,5,6.5,7.3,7.5,9.9L6.4,4.8C6.3,4.1,5.7,3.9,5.1,3.9z"/>
	<path class="st1" d="M120.2,4.7l-2.8,5.6h-0.3V3.5h-4v11.6h3.4c0.9,0,1.7-0.5,2.1-1.2l2.8-5.6h0.3v6.8h4V3.5h-3.4
		C121.4,3.5,120.5,4,120.2,4.7z"/>
	<path class="st1" d="M105.1,5l-1.7,5.3h-0.3L101.4,5c-0.3-0.9-1.2-1.5-2.2-1.5h-4v11.6h4V8.3h0.3l2.3,6.8h2.9l2.3-6.8h0.3v6.8h4
		V3.5h-4C106.3,3.5,105.4,4.1,105.1,5z"/>
	<path class="st1" d="M127.4,8.8v6.3h4v-3.7h4.3c1.9,0,3.5-1.1,4.1-2.6H127.4z"/>
	<path class="st2" d="M135.7,3.5h-8.9c0.5,2.7,3.1,4.7,6.2,4.7h6.9C140,8,140,7.7,140,7.5C140,5.3,138.1,3.5,135.7,3.5z"/>
	<circle class="st2" cx="71.8" cy="8.9" r="8.5"/>
	<circle class="st1" cx="61.1" cy="9" r="8.5"/>
</g>
</svg>
