<?xml version="1.0" encoding="utf-8"?>
<!-- Generator: Adobe Illustrator 25.3.1, SVG Export Plug-In . SVG Version: 6.00 Build 0)  -->
<svg version="1.1" id="Слой_1" xmlns="http://www.w3.org/2000/svg" xmlns:xlink="http://www.w3.org/1999/xlink" x="0px" y="0px"
	 viewBox="0 0 244 37" style="enable-background:new 0 0 244 37;" xml:space="preserve">
<style type="text/css">
	.st0{fill:#FCAF17;}
	.st1{fill:#161616;}
</style>
<path class="st0" d="M4.2,26l16.6,3.2l1.3-2.2L7.3,20.5L4.2,26L4.2,26z M11.9,12.7l12.9,9.6l1.3-2.2L15,7.3L11.9,12.7L11.9,12.7z
	 M8,19.3l14.7,6.4l1.3-2.3l-12.9-9.6C11.2,13.9,8,19.3,8,19.3z M19.2,0l-3.5,6l11.1,12.7l1.6-2.8L19.2,0z M0,33.2h18.4l1.6-2.8
	L3.5,27.2L0,33.2z M29.2,25.8l4.3,7.4h4.9l-9.2-15.9L20,33.2h4.9C24.9,33.2,29.2,25.8,29.2,25.8z"/>
<path class="st1" d="M68.4,33.2h7l1.6-2.8h-8.6L68.4,33.2L68.4,33.2z M68.4,25.3v2.8h9.9l1.6-2.8H68.4z M217.2,28.7v-8.4h-3.1v12.9
	h2.6l7.5-8.5v8.5h3.1V20.3h-2.7C224.5,20.3,217.2,28.7,217.2,28.7z M86.7,20.3l-7.4,12.9h3.7l4.9-8.5l4.9,8.5h3.9l-7.4-12.9
	C89.2,20.3,86.7,20.3,86.7,20.3z M64.3,30.4l-7.4-13h-2.5l-7.4,13h-1.9V37h3v-3.8h15.2V37h3v-6.6H64.3z M50.6,30.4l4.9-8.6l4.9,8.6
	C60.5,30.4,50.6,30.4,50.6,30.4z M165.9,20.3h-14.5v2.8h12.8L165.9,20.3z M82.9,20.3H68.4v2.8h12.8C81.2,23.1,82.9,20.3,82.9,20.3z
	 M241.3,20.3l-7.3,8.4v-8.4h-3.1v12.9h2.6l7.5-8.5v8.5h3.1V20.3H241.3z M207.5,25.3h-6.8v-5h-3.1v12.9h3.1v-5.1h6.8v5.1h3.1V20.3
	h-3.1V25.3z M169.7,20.3l-7.4,12.9h3.7l4.9-8.5l4.9,8.5h3.8l-7.4-12.9H169.7L169.7,20.3z M139,24.9h-4.7v-4.7h-3.1v13h7.8
	c2.1,0,4.3-1.2,4.3-4.2C143.2,25,140.4,24.9,139,24.9z M138.8,30.5h-4.6v-2.9h4.6c0.5,0,1.3,0.1,1.3,1.4
	C140.1,30.2,139.5,30.5,138.8,30.5z M147.9,20.3h-3.1v13h3.1V20.3z M104.4,19.9c-5.2,0-7.6,3.2-7.6,6.7c0,3.7,2.4,6.7,7.6,6.7
	c2.3,0,7.6-1.1,7.6-6.7C112,23,109.6,19.9,104.4,19.9z M104.4,30.5c-3,0-4.3-1.7-4.3-3.8c0-2.3,1.4-3.9,4.3-3.9
	c3.2,0,4.3,1.5,4.3,3.9C108.7,29.5,106.6,30.5,104.4,30.5z M151.4,33.2h7l1.6-2.8h-8.6V33.2z M151.4,25.3v2.8h9.9l1.7-2.8H151.4z
	 M184,28.6v-8.3h-3.1v12.9h2.6l7.5-8.4v8.4h3.1V20.3h-2.6C191.4,20.3,184,28.6,184,28.6z M125.6,25.6c0.8-0.3,1.5-0.9,1.5-2.3
	c0-2.7-2.3-3-3.8-3h-8.4v13h8.5c3.9,0,4.7-2.2,4.7-4.1C128.1,26.9,126.9,26,125.6,25.6z M117.9,23h5c0.7,0,1.1,0.4,1.1,1.1
	c0,0.8-0.5,1.2-1.1,1.2h-5V23z M123.4,30.5h-5.5v-2.8h5.5c0.9,0,1.5,0.2,1.5,1.4C124.9,30,124.5,30.5,123.4,30.5z"/>
</svg>
