<?xml version="1.0" encoding="utf-8"?>
<!-- Generator: Adobe Illustrator 25.3.1, SVG Export Plug-In . SVG Version: 6.00 Build 0)  -->
<svg version="1.1" id="Слой_1" xmlns="http://www.w3.org/2000/svg" xmlns:xlink="http://www.w3.org/1999/xlink" x="0px" y="0px"
	 viewBox="0 0 1020 210" style="enable-background:new 0 0 1020 210;" xml:space="preserve">
<style type="text/css">
	.st0{fill:#44749D;}
</style>
<g id="logo">
	<path id="logomark" class="st0" d="M4,31.7C58.6-23.7,141.4,0.2,165.3,63.7h-37.4c-21.5-33.1-70.1-42.5-103.5-4.9L4,31.7z
		 M28.8,135.6H126c5.2-8.6,8.6-18.9,9.1-30.3H51.8L28.8,135.6z M170.2,135.6h9.1l21.5-30.3h-25.3
		C175.1,115.5,173.4,125.7,170.2,135.6L170.2,135.6z M28.8,67.3h150.5l21.5,30.3h-149L28.8,67.3z M171.9,101.2v0.2
		c0,90.3-105.5,133.7-167.9,69.5l20-27c42.6,49.3,114.7,18.3,114.7-42.2c0-0.2,0-0.4,0-0.5L171.9,101.2z"/>
	<g id="work">
		<path class="st0" d="M271.7,127.2c6.8,0,12-1.8,15.6-5.3c3.6-3.5,5.9-8.7,7-15.6h-31.9c-1.2,0-2-0.1-2.6-0.4
			c-0.5-0.3-0.8-1.1-0.8-2.5V85.6c0-1.4,0.2-2.3,0.7-2.7c0.5-0.4,1.4-0.6,2.7-0.6h31.6c-0.6-3.3-1.5-6.1-2.8-8.3
			c-1.2-2.1-2.8-4-4.8-5.5c-1.9-1.4-4.1-2.4-6.4-3c-2.4-0.6-4.8-0.9-7.3-0.9c-1.9,0-3.7,0-5.3,0.2c-1.6,0.1-3.2,0.3-4.8,0.6
			c-1.6,0.3-3.2,0.7-4.8,1.2c-1.7,0.5-3.6,1.1-5.8,1.7c-1.9,0.6-3.3,0.8-4,0.4c-0.7-0.4-1.4-1.6-2.2-3.7l-5-13.3
			c-0.4-0.9-0.7-1.8-0.9-2.7c-0.2-0.7-0.2-1.3-0.2-1.8c0.1-0.5,0.3-0.9,0.8-1.2c0.5-0.3,1.2-0.8,2-1.3c4.9-2.5,10.1-4.4,15.5-5.4
			c5.6-1.1,11.5-1.7,17.7-1.7c8.2,0,15.5,1.3,21.9,3.8c6.4,2.5,11.8,6.2,16.2,11c4.4,4.8,7.7,10.7,10,17.6
			c2.3,6.9,3.4,14.7,3.4,23.5c0,8.4-0.9,16.3-2.8,23.7c-1.9,7.4-4.9,13.8-9.1,19.4c-4.2,5.5-9.6,9.9-16.3,13
			c-6.7,3.2-14.8,4.8-24.5,4.8c-7,0-13.8-0.7-20.5-2.2c-6.6-1.5-13.2-4.1-19.7-8c-1.2-0.7-1.8-1.4-1.9-2.3c-0.1-0.9,0.2-2.1,1-3.7
			l7-14.6c0.8-1.8,1.5-2.9,2.2-3.1c0.7-0.2,1.9,0,3.5,0.7c3.5,1.3,7.2,2.6,11.3,3.9C261.5,126.5,266.2,127.2,271.7,127.2
			L271.7,127.2z M445.5,149.4c0,1.3-0.2,2.2-0.6,2.7c-0.4,0.5-1.5,0.7-3.3,0.7h-23c-2.5,0-3.7-1.1-3.7-3.4v-42.8h-36v42.8
			c0,1.3-0.2,2.2-0.6,2.7c-0.4,0.5-1.5,0.7-3.3,0.7h-23c-2.5,0-3.7-1.1-3.7-3.4V42.8c0-2.3,1.2-3.4,3.7-3.4h23
			c1.8,0,2.9,0.2,3.3,0.7c0.4,0.5,0.6,1.4,0.6,2.7V81h36V42.8c0-2.3,1.2-3.4,3.7-3.4h23c1.8,0,2.9,0.2,3.3,0.7
			c0.4,0.5,0.6,1.4,0.6,2.7V149.4z M554.4,149.1c0,2.5-1,3.7-3.1,3.7h-50.1c-6.5,0-11.7-0.9-15.8-2.8c-4-1.8-7.2-4.2-9.6-7.2
			c-2.3-2.9-3.9-6.3-4.8-10c-0.8-3.6-1.3-7.2-1.3-10.9V70.2c0-3.9,0.5-7.7,1.6-11.4c1.1-3.7,2.8-7,5.3-9.9c2.4-2.9,5.6-5.2,9.6-6.9
			c4-1.7,8.8-2.6,14.6-2.6h47.8c1.3,0,2.1,0.2,2.5,0.6c0.4,0.4,0.6,1.5,0.6,3.3v18.3c0,1.4-0.2,2.4-0.6,2.8
			c-0.4,0.5-1.2,0.7-2.4,0.7h-38.5c-2.2,0-3.9,0.3-5.2,0.9c-1.3,0.6-2.3,1.3-2.9,2.2c-0.7,0.9-1.1,1.9-1.3,2.9
			c-0.2,1.1-0.3,2.1-0.3,3.2v6.8h43.4c1.3,0,2.1,0.2,2.5,0.7c0.4,0.4,0.6,1.6,0.6,3.4v16.9c0,2.5-1,3.7-3.1,3.7h-43.4V118
			c0,2,0.2,3.7,0.7,4.9c0.5,1.2,1.2,2.1,2,2.7c0.9,0.6,1.9,1,3.1,1.1c1.3,0.2,2.6,0.3,3.9,0.2h41.1c1.3,0,2.1,0.2,2.5,0.6
			c0.4,0.4,0.6,1.5,0.6,3.3V149.1z M602.8,149.5c0,1.3-0.2,2.2-0.6,2.6c-0.4,0.4-1.5,0.6-3.3,0.6h-23c-2.5,0-3.7-1.1-3.7-3.2V50.1
			c0-2.9,0.6-5.4,1.9-7.5c1.3-2.1,4.2-3.2,8.6-3.2h41.1c6.4,0,12,0.9,16.9,2.8c4.9,1.8,9,4.4,12.4,7.7c3.3,3.3,5.9,7.2,7.6,11.6
			c1.7,4.4,2.6,9.2,2.6,14.4c0,1.7-0.2,3.9-0.5,6.5c-0.3,2.6-1,5.3-2,8.1c-1,2.8-2.5,5.6-4.5,8.5c-1.9,2.9-4.6,5.4-7.9,7.7
			c-3.3,2.3-7.4,4.1-12.3,5.5c-4.9,1.4-10.8,2.1-17.6,2.1h-15.9V149.5z M631.8,77.9c0-1.1-0.2-2.4-0.5-3.8c-0.3-1.4-0.9-2.8-1.7-4
			c-0.9-1.3-2.1-2.3-3.5-3.1c-1.5-0.9-3.5-1.3-5.8-1.3h-17.5v24.5h17.5c3.8,0,6.6-1.3,8.6-3.8C630.8,83.9,631.8,81.1,631.8,77.9z
			 M711,149.5c0,1.3-0.2,2.2-0.6,2.6c-0.4,0.4-1.5,0.6-3.3,0.6h-23c-2.5,0-3.7-1.1-3.7-3.2V70.2c0-3.9,0.5-7.7,1.6-11.4
			c1.1-3.7,2.8-7,5.3-9.9c2.4-2.9,5.6-5.2,9.6-6.9c4-1.7,8.9-2.6,14.6-2.6h49.2c1.3,0,2.1,0.2,2.5,0.6c0.4,0.4,0.6,1.5,0.6,3.3v18.3
			c0,1.4-0.2,2.4-0.7,2.8c-0.4,0.5-1.2,0.7-2.4,0.7h-40c-2.2,0-3.9,0.3-5.2,0.9c-1.3,0.6-2.3,1.3-2.9,2.2c-0.6,0.9-1.1,1.9-1.3,2.9
			c-0.2,1.1-0.3,2.1-0.3,3.2V149.5z M846.8,88.2l-14.6,24l-22,33.4c-0.9,1.4-1.9,2.7-2.9,3.9c-0.8,0.9-1.7,1.6-2.7,2.2
			c-1,0.5-2.1,0.8-3.4,1c-1.3,0.2-2.9,0.2-4.7,0.2h-7.6c-4.9,0-8.1-1.2-9.6-3.7c-1.5-2.4-2.3-5.5-2.3-9.1V42.8
			c0-2.3,1.2-3.4,3.7-3.4h22.2c1.8,0,2.9,0.2,3.3,0.7c0.4,0.5,0.6,1.4,0.6,2.7v61.6h1.1L822.1,82l22.4-35.3c1.1-1.7,2-3.1,2.9-4.1
			c0.9-1,1.8-1.7,2.8-2.2c1-0.5,2.1-0.8,3.4-0.9c1.3-0.1,2.9-0.2,4.7-0.2h7.6c4.5,0,7.6,0.9,9.3,2.6c1.7,1.7,2.5,5.1,2.5,10.2v97.2
			c0,2.3-1.2,3.4-3.7,3.4h-22.2c-1.8,0-2.9-0.2-3.3-0.7c-0.4-0.5-0.6-1.4-0.6-2.7V88.2L846.8,88.2z M903.6,117.8
			c1-4.2,2.4-7.7,4.4-10.5c1.9-2.8,5.4-4.9,10.4-6.2v-0.3c-3.4-1-6.2-2.4-8.4-4.3c-2.2-1.8-4-4-5.4-6.5c-1.4-2.5-2.4-5.1-2.9-7.9
			c-0.6-2.8-0.9-5.7-0.9-8.6c0-5.2,0.8-9.9,2.4-14c1.6-4.1,4.1-7.8,7.3-10.8c3.2-3,7.3-5.3,12.1-7c4.8-1.6,10.4-2.4,16.8-2.4h41.3
			c4.4,0,7.3,0.9,8.6,2.8c1.3,1.9,1.9,4.5,1.9,7.9v99.5c0,2.2-1.2,3.2-3.7,3.2h-23c-1.8,0-2.9-0.2-3.3-0.6c-0.4-0.4-0.6-1.3-0.6-2.6
			v-41.1h-10.5c-4.5,0-7.8,1.1-9.8,3.2c-2,2.1-3.6,5.5-4.8,10.1l-6.5,27.1c-0.2,0.9-0.7,1.8-1.4,2.4c-0.6,0.5-1.3,0.9-2.1,1.2
			c-0.8,0.3-1.7,0.4-2.6,0.4h-25.2c-1.3,0-2-0.3-2-1c-0.1-0.6,0.1-1.7,0.4-3.2L903.6,117.8z M932.3,75c0,3.1,1,5.5,2.9,7
			c1.9,1.6,4.2,2.3,6.8,2.3h18.5V65.8H942c-3.6,0-6.1,1-7.5,2.9C933.1,70.5,932.3,72.7,932.3,75z"/>
		<path class="st0" d="M250.8,177.7h-0.2c-0.1,0.3-0.2,0.5-0.3,0.8c-0.2,0.5-0.4,1-0.6,1.5l-0.6,1.5l-0.3,0.8
			c-0.1,0.3-0.3,0.7-0.4,1l-0.7,1.7l-0.8,2.1c-0.3,0.7-0.6,1.4-0.9,2.1l-0.7,1.7l-0.4,1c-0.1,0.4-0.3,0.8-0.6,1.1
			c-0.2,0.2-0.6,0.3-1.1,0.3h-1.1c-0.5,0-0.9-0.1-1.1-0.3c-0.3-0.3-0.5-0.7-0.6-1.1c-0.1-0.2-0.2-0.5-0.4-1
			c-0.2-0.5-0.5-1.1-0.7-1.7l-0.9-2.1c-0.3-0.7-0.6-1.4-0.9-2.1c-0.3-0.6-0.5-1.2-0.7-1.7c-0.2-0.5-0.4-0.8-0.4-1l-1.8-4.4h-0.2
			v17.5c0,0.3-0.1,0.4-0.1,0.5c-0.1,0.1-0.3,0.1-0.5,0.1h-1.7c-0.2,0-0.3,0-0.5-0.1c-0.1-0.1-0.2-0.2-0.2-0.5v-21.7
			c0-0.5,0.1-0.9,0.3-1.3c0.2-0.3,0.7-0.5,1.3-0.5h0.9c0.5,0,0.9,0.1,1.2,0.3c0.3,0.2,0.5,0.5,0.7,1.1l4.7,11.7
			c0,0.1,0.2,0.4,0.4,0.9l0.7,1.7c0.2,0.6,0.5,1.2,0.6,1.7c0.2,0.5,0.3,0.8,0.4,0.9h0.1c0-0.1,0.1-0.4,0.3-0.9
			c0.4-1.1,0.9-2.2,1.3-3.3c0.1-0.3,0.2-0.6,0.4-0.9l0.5-1.3c0.2-0.6,0.5-1.3,0.9-2.2c0.3-0.8,0.7-1.7,1.1-2.6l1-2.6l0.8-2.1
			c0.2-0.6,0.4-1,0.4-1.1c0.2-0.6,0.5-0.9,0.7-1.1c0.3-0.2,0.7-0.3,1.1-0.3h0.9c0.7,0,1.1,0.2,1.3,0.5c0.2,0.4,0.4,0.8,0.3,1.2v21.7
			c0,0.3,0,0.4-0.1,0.5c-0.1,0.1-0.3,0.1-0.5,0.1h-1.7c-0.2,0-0.4,0-0.5-0.1c-0.1-0.1-0.2-0.2-0.2-0.5V177.7z M274.9,195.4
			c0,0.3,0,0.4-0.1,0.5c-0.1,0.1-0.3,0.2-0.5,0.2h-9.5c-1.1,0-2-0.2-2.8-0.5c-0.7-0.3-1.3-0.7-1.8-1.3c-0.5-0.5-0.8-1.2-0.9-1.9
			c-0.2-0.7-0.3-1.5-0.3-2.3V178c0-0.8,0.1-1.5,0.3-2.2c0.2-0.7,0.5-1.3,1-1.9c0.5-0.6,1.1-1,1.8-1.3c0.7-0.3,1.6-0.5,2.7-0.5h9.4
			c0.3,0,0.4,0.1,0.5,0.2c0.1,0.1,0.1,0.3,0.1,0.5v1.4c0,0.2,0,0.4-0.1,0.5c-0.1,0.1-0.2,0.2-0.5,0.2h-9.3c-1,0-1.7,0.2-2.1,0.6
			c-0.4,0.4-0.6,1.1-0.6,2v4.5H273c0.3,0,0.4,0.1,0.5,0.2c0.1,0.1,0.1,0.3,0.1,0.5v1.3c0,0.2,0,0.4-0.1,0.5
			c-0.1,0.1-0.3,0.2-0.5,0.2h-10.9v6c0,0.8,0.2,1.4,0.6,1.9c0.4,0.5,1.1,0.7,2.1,0.7h9.5c0.3,0,0.4,0.1,0.5,0.2
			c0.1,0.1,0.1,0.3,0.1,0.6V195.4z M283,183.1c-0.8-0.4-1.4-1-1.8-1.7c-0.5-0.8-0.8-1.7-1.1-2.6l-1.5-6.1c0-0.1,0-0.3,0-0.4
			c0-0.2,0.2-0.2,0.4-0.2h1.9c0.1,0,0.2,0,0.4,0.1c0.1,0.1,0.2,0.2,0.3,0.4l1.5,5.9c0.2,0.7,0.5,1.4,0.8,1.8c0.3,0.4,0.6,0.7,1,1
			s0.8,0.4,1.3,0.5c0.4,0.1,0.8,0.1,1.2,0.1h3.8v-9.2c0-0.2,0-0.4,0.1-0.4c0.1-0.1,0.2-0.1,0.4-0.1h2c0.2,0,0.3,0,0.4,0.1
			c0.1,0.1,0.1,0.2,0.1,0.4v9.3h3.9c0.4,0,0.8,0,1.2-0.1c0.5-0.1,0.9-0.3,1.3-0.5c0.4-0.3,0.7-0.6,1-1c0.3-0.5,0.6-1.1,0.8-1.8
			l1.5-5.9c0-0.2,0.1-0.3,0.3-0.4c0.1,0,0.2-0.1,0.4-0.1h1.9c0.3,0,0.4,0.1,0.4,0.2c0,0.1,0,0.3,0,0.4l-1.5,6.1
			c-0.2,0.9-0.6,1.8-1,2.6c-0.4,0.7-1.1,1.3-1.8,1.7v0.2c0.5,0.2,1,0.4,1.5,0.7c0.7,0.5,1.3,1.3,1.6,2.2c0.2,0.4,0.3,0.9,0.4,1.4
			l2.1,8c0.1,0.1,0.1,0.2,0,0.4c0,0.1-0.2,0.2-0.5,0.2h-2.1c-0.1,0-0.2,0-0.4-0.1c-0.1-0.1-0.2-0.2-0.3-0.4l-2.1-7.6
			c-0.1-0.6-0.4-1.1-0.6-1.6c-0.2-0.4-0.5-0.7-0.9-1c-0.4-0.3-0.8-0.4-1.3-0.5c-0.5-0.1-1-0.1-1.6-0.1h-4.2v10.9
			c0,0.2-0.1,0.4-0.1,0.4c-0.1,0.1-0.3,0.1-0.4,0.1h-2c-0.2,0-0.4,0-0.5-0.1c-0.1-0.1-0.1-0.2-0.1-0.4l0-10.9h-4.2
			c-0.6,0-1.1,0-1.6,0.1c-0.4,0.1-0.9,0.3-1.2,0.5c-0.4,0.3-0.7,0.6-0.9,1c-0.3,0.5-0.5,1.1-0.7,1.6l-2,7.6
			c-0.1,0.2-0.2,0.3-0.3,0.4c-0.1,0-0.2,0.1-0.3,0.1h-2.1c-0.3,0-0.4-0.1-0.5-0.2c0-0.1,0-0.3,0-0.4l2.2-8c0.1-0.5,0.3-1,0.4-1.4
			c0.2-0.4,0.4-0.8,0.6-1.2c0.3-0.4,0.6-0.7,1-1c0.5-0.3,1-0.5,1.5-0.7V183.1z M317,187.2c-0.1,0.9-0.2,1.7-0.4,2.4
			c-0.1,0.5-0.2,1.1-0.4,1.6c-0.1,0.4-0.3,0.8-0.5,1.2c-0.2,0.3-0.4,0.6-0.6,1h12.1v-18.3h-8.7L317,187.2z M312.8,196.1l-0.3,5.1
			c0,0.3-0.2,0.5-0.5,0.5h-1.7c-0.1,0-0.2,0-0.3-0.1c-0.1-0.1-0.1-0.2-0.1-0.4l-0.5-6.7c0-0.3,0.1-0.6,0.2-0.9
			c0.2-0.2,0.5-0.4,0.9-0.4l1.1-0.1c0.4-0.4,0.7-0.9,1-1.4c0.3-0.5,0.5-1.1,0.7-1.7c0.2-0.6,0.3-1.3,0.5-2.1
			c0.1-0.8,0.3-1.6,0.4-2.7l1.4-10.9c0.1-0.6,0.3-1.2,0.7-1.8c0.3-0.4,0.9-0.6,1.7-0.6h10.3c0.8,0,1.3,0.2,1.6,0.5
			c0.3,0.4,0.5,0.9,0.5,1.6v19l1.2,0.1c0.3,0,0.6,0.1,0.9,0.3c0.2,0.2,0.3,0.5,0.3,1l-0.4,6.5c0,0.2-0.1,0.3-0.1,0.4
			c-0.1,0.1-0.2,0.1-0.3,0.1h-1.7c-0.1,0-0.2,0-0.3-0.1c-0.1-0.1-0.1-0.2-0.1-0.4l-0.2-5.1H312.8z M345,192.6
			c-0.3,0.8-0.7,1.5-1,2.1c-0.3,0.5-0.7,0.9-1.2,1.2s-1,0.6-1.6,0.7c-0.6,0.1-1.3,0.2-1.9,0.2c-0.3,0-0.7,0-1.2-0.1
			c-0.5-0.1-1-0.2-1.5-0.3c-0.2-0.1-0.4-0.1-0.4-0.2c-0.1-0.1-0.1-0.2,0-0.3l0.3-1.7c0-0.2,0.1-0.3,0.2-0.3c0.1,0,0.3,0,0.4,0
			c0.5,0.1,0.9,0.1,1.3,0.2c0.3,0,0.7,0,1,0c0.6,0,1.1-0.2,1.6-0.5c0.4-0.3,0.8-0.8,1.1-1.6l0.9-2.4h-0.5c-0.3,0-0.6,0-0.9-0.2
			c-0.2-0.1-0.5-0.5-0.7-1l-6.6-15.8c-0.1-0.3,0-0.4,0.3-0.4h2.4c0.2,0,0.4,0,0.5,0.1c0.1,0.1,0.2,0.2,0.2,0.3l3.6,8.9l2.4,6h0.2
			l2.3-6.2l3.3-8.8c0.1-0.2,0.1-0.3,0.3-0.3c0.1,0,0.3-0.1,0.4-0.1h2.2c0.2,0,0.3,0,0.3,0.1c0,0.1,0,0.2,0,0.3L345,192.6z
			 M370.9,172.7c0-0.3,0.1-0.4,0.2-0.5c0.1-0.1,0.3-0.1,0.5-0.1h1.9c0.3,0,0.4,0,0.5,0.1c0.1,0.1,0.1,0.2,0.1,0.5v22.8
			c0,0.3,0,0.4-0.1,0.5c-0.1,0.1-0.3,0.1-0.5,0.1h-1.9c-0.2,0-0.4,0-0.5-0.1c-0.1-0.1-0.2-0.2-0.2-0.5v-10.7h-12.1v10.7
			c0,0.3,0,0.4-0.1,0.5c-0.1,0.1-0.3,0.1-0.5,0.1h-1.9c-0.2,0-0.3,0-0.5-0.1c-0.1-0.1-0.2-0.2-0.2-0.5v-22.8c0-0.2,0.1-0.4,0.2-0.5
			c0.2-0.1,0.3-0.1,0.5-0.1h1.9c0.2,0,0.4,0,0.5,0.1c0.1,0.1,0.1,0.2,0.1,0.5v9.4h12.1V172.7z M394.6,196.1c-0.2,0-0.3,0-0.5-0.1
			c-0.1-0.1-0.2-0.2-0.3-0.5l-1.7-5h-9.7l-1.7,5c-0.1,0.3-0.4,0.5-0.7,0.5h-2.3c-0.2,0-0.4-0.1-0.4-0.2c-0.1-0.1-0.1-0.3,0-0.5
			l7.7-22c0.2-0.5,0.4-0.9,0.6-1.1c0.2-0.2,0.6-0.3,1.1-0.3h1c0.6,0,1,0.1,1.3,0.3c0.3,0.3,0.5,0.7,0.6,1.1l7.7,22
			c0,0.1,0.1,0.1,0.1,0.2c0,0.1,0,0.2,0,0.2c-0.1,0.1-0.2,0.2-0.4,0.2H394.6z M388.9,180.6l-1.6-5h-0.2l-1.5,4.9l-2.3,7.3h8
			L388.9,180.6z M400.4,173.8c0-0.6,0.1-1,0.4-1.3c0.3-0.3,0.7-0.4,1.3-0.4h8c1.1,0,2.1,0.2,3,0.5c0.9,0.3,1.7,0.8,2.3,1.5
			c0.6,0.6,1.2,1.4,1.5,2.3c0.4,0.9,0.5,1.8,0.5,2.9c0,0.6-0.1,1.4-0.3,2.2c-0.2,0.9-0.7,1.8-1.3,2.5c-0.6,0.7-1.4,1.4-2.2,1.8
			c-1,0.5-2.3,0.8-3.8,0.8h-6.3v9c0,0.3-0.1,0.4-0.1,0.5c-0.1,0.1-0.3,0.1-0.5,0.1H401c-0.2,0-0.3,0-0.5-0.1
			c-0.1-0.1-0.2-0.2-0.2-0.5V173.8z M414.2,179.4c0-0.5-0.1-1-0.2-1.5c-0.1-0.5-0.4-1-0.8-1.4c-0.4-0.5-0.9-0.8-1.5-1.1
			c-0.8-0.3-1.6-0.4-2.4-0.4h-5.8v8.7h5.9c1.6,0,2.8-0.4,3.6-1.2C413.8,181.8,414.2,180.7,414.2,179.4z M440.8,184
			c0,4-0.9,7.1-2.6,9.2c-1.7,2.1-4.3,3.2-7.7,3.2c-3.4,0-5.9-1.1-7.6-3.2c-1.7-2.1-2.5-5.2-2.5-9.2c0-2,0.3-3.7,0.8-5.3
			c0.5-1.5,1.2-2.8,2.1-3.9c0.9-1.1,2-1.9,3.2-2.4c1.3-0.6,2.7-0.8,4.1-0.8c1.7,0,3.1,0.3,4.4,0.8c1.3,0.6,2.3,1.4,3.2,2.4
			c0.9,1.1,1.5,2.4,1.9,3.9C440.6,180.4,440.8,182.1,440.8,184L440.8,184z M437.6,184.2c0-1.3-0.1-2.5-0.3-3.6
			c-0.2-1.1-0.5-2.1-1.1-3.1c-0.5-0.9-1.2-1.6-2.1-2.1c-1.1-0.6-2.2-0.8-3.4-0.8c-1.2,0-2.3,0.3-3.2,0.8c-0.9,0.5-1.6,1.2-2.2,2
			c-0.6,0.9-1,1.9-1.3,3c-0.3,1.2-0.4,2.4-0.4,3.6c0,1.4,0.1,2.7,0.3,3.9c0.2,1.2,0.6,2.2,1.2,3c0.5,0.8,1.3,1.5,2.1,2
			c0.9,0.5,2,0.7,3.4,0.7c1.3,0,2.4-0.3,3.3-0.8c0.9-0.5,1.6-1.2,2.2-2.1c0.6-0.9,1-2,1.2-3.1C437.5,186.6,437.6,185.4,437.6,184.2z
			 M449.9,187.2c-0.1,0.9-0.2,1.7-0.4,2.4c-0.1,0.6-0.3,1.2-0.4,1.6c-0.1,0.4-0.3,0.8-0.5,1.2c-0.2,0.3-0.4,0.6-0.6,1h12.1v-18.3
			h-8.7L449.9,187.2z M445.7,196.1l-0.4,5.1c0,0.3-0.2,0.5-0.4,0.5h-1.7c-0.1,0-0.2,0-0.3-0.1c-0.1-0.1-0.1-0.2-0.1-0.4l-0.4-6.7
			c0-0.3,0-0.6,0.2-0.9c0.2-0.2,0.5-0.4,0.9-0.4l1.1-0.1c0.4-0.4,0.7-0.9,1-1.4c0.3-0.5,0.5-1.1,0.7-1.7c0.2-0.6,0.3-1.3,0.5-2.1
			c0.1-0.8,0.3-1.6,0.4-2.7l1.4-10.9c0.1-0.6,0.3-1.2,0.7-1.8c0.3-0.4,0.9-0.6,1.7-0.6h10.3c0.7,0,1.3,0.2,1.6,0.5
			c0.3,0.4,0.5,0.9,0.5,1.6v19l1.2,0.1c0.3,0,0.6,0.1,0.9,0.3c0.2,0.2,0.3,0.5,0.3,1l-0.4,6.5c0,0.2-0.1,0.3-0.1,0.4
			c-0.1,0.1-0.2,0.1-0.3,0.1h-1.7c0,0-0.1,0-0.1,0c0,0-0.1,0-0.1-0.1c-0.1-0.1-0.1-0.2-0.1-0.4l-0.2-5.1H445.7z M484.4,172.7
			c0-0.3,0-0.4,0.2-0.5c0.1-0.1,0.3-0.1,0.5-0.1h1.8c0.3,0,0.4,0,0.5,0.1c0.1,0.1,0.1,0.2,0.1,0.5v22.8c0,0.3-0.1,0.4-0.1,0.5
			c-0.1,0.1-0.3,0.1-0.5,0.1h-1.8c-0.2,0-0.4,0-0.5-0.1c-0.1-0.1-0.2-0.2-0.2-0.5v-10.7h-12.1v10.7c0,0.3,0,0.4-0.1,0.5
			c-0.1,0.1-0.3,0.1-0.5,0.1h-1.9c-0.2,0-0.3,0-0.5-0.1c-0.1-0.1-0.2-0.2-0.2-0.5v-22.8c0-0.2,0.1-0.4,0.2-0.5
			c0.1-0.1,0.3-0.1,0.5-0.1h1.9c0.3,0,0.4,0,0.5,0.1c0.1,0.1,0.1,0.2,0.1,0.5v9.4h12.1V172.7z M508.1,196.1c-0.2,0-0.3,0-0.5-0.1
			c-0.1-0.1-0.2-0.2-0.3-0.5l-1.7-5h-9.7l-1.7,5c-0.1,0.3-0.4,0.5-0.7,0.5h-2.3c-0.2,0-0.4-0.1-0.4-0.2c-0.1-0.1-0.1-0.3,0-0.5
			l7.7-22c0.2-0.5,0.4-0.9,0.6-1.1c0.2-0.2,0.6-0.3,1.1-0.3h1c0.6,0,1,0.1,1.3,0.3c0.3,0.3,0.5,0.7,0.6,1.1l7.7,22
			c0,0.1,0,0.1,0.1,0.2c0,0.1,0,0.2,0,0.2c-0.1,0.1-0.2,0.2-0.4,0.2H508.1z M502.4,180.6l-1.6-5h-0.2l-1.5,4.9l-2.3,7.3h7.9
			L502.4,180.6z M527.2,185.8h-4.9c-1.1,0-2.1,0.2-3,0.7c-0.8,0.4-1.4,1.3-1.8,2.7l-1.8,6.5c-0.1,0.2-0.1,0.3-0.3,0.4
			c-0.1,0-0.2,0-0.4,0h-2.2c-0.2,0-0.3,0-0.4-0.1c-0.1-0.1-0.1-0.2-0.1-0.3v-0.2l1.9-6.9c0.2-0.8,0.6-1.6,1.1-2.2
			c0.6-0.7,1.3-1.2,2.1-1.5c-1.2-0.4-2.2-1.3-2.9-2.4c-0.7-1.1-1-2.4-1-3.7c0-1,0.2-1.9,0.5-2.7c0.3-0.8,0.8-1.6,1.5-2.2
			c0.6-0.6,1.4-1.1,2.3-1.4c1-0.4,2-0.5,3-0.5h7.8c0.7,0,1.1,0.1,1.4,0.4c0.3,0.3,0.4,0.7,0.4,1.3v21.8c0,0.2,0,0.3-0.1,0.4
			c-0.1,0.1-0.3,0.1-0.4,0.1h-2.1c-0.2,0-0.3,0-0.5-0.1c-0.1-0.1-0.1-0.2-0.1-0.4V185.8z M521.2,175c-0.7,0-1.5,0.1-2.2,0.4
			c-0.5,0.2-1,0.6-1.4,1c-0.3,0.4-0.6,0.8-0.7,1.3c-0.1,0.5-0.2,0.9-0.2,1.4c0,0.5,0.1,1.1,0.3,1.5c0.2,0.5,0.5,0.9,0.8,1.3
			c0.7,0.8,1.9,1.2,3.6,1.2h5.8V175H521.2z M550,174.9h-6.7c-0.2,0-0.3,0-0.4-0.1c-0.1-0.1-0.1-0.2-0.1-0.4v-1.7
			c0-0.2,0-0.3,0.1-0.4c0.1-0.1,0.2-0.1,0.4-0.1h16.8c0.2,0,0.3,0.1,0.4,0.1c0.1,0.1,0.1,0.2,0.1,0.4v1.7c0,0.2,0,0.4-0.1,0.4
			c-0.1,0.1-0.2,0.1-0.4,0.1h-6.9v20.6c0,0.3,0,0.4-0.1,0.5c-0.1,0.1-0.3,0.1-0.5,0.1h-2c-0.2,0-0.3,0-0.5-0.1
			c-0.1-0.1-0.1-0.2-0.1-0.5V174.9z M563.6,173.8c0-0.6,0.1-1,0.4-1.3c0.3-0.3,0.7-0.4,1.3-0.4h8c1.1,0,2.1,0.2,3,0.5
			c0.9,0.3,1.7,0.8,2.3,1.5c0.6,0.6,1.2,1.4,1.5,2.3c0.4,0.9,0.5,1.8,0.5,2.9c0,0.6-0.1,1.4-0.3,2.2c-0.2,0.8-0.6,1.7-1.1,2.4
			c-0.6,0.8-1.3,1.4-2.3,1.9c-1,0.5-2.3,0.8-3.8,0.8h-6.4v9c0,0.3,0,0.4-0.1,0.5c-0.1,0.1-0.3,0.1-0.5,0.1h-1.8
			c-0.2,0-0.3,0-0.5-0.1c-0.1-0.1-0.2-0.2-0.2-0.5L563.6,173.8z M577.4,179.4c0-0.5-0.1-1-0.2-1.5c-0.2-0.5-0.4-1-0.8-1.4
			c-0.4-0.5-0.9-0.8-1.5-1.1c-0.8-0.3-1.6-0.4-2.4-0.4h-5.8v8.7h5.9c1.6,0,2.8-0.4,3.6-1.2C577,181.8,577.4,180.7,577.4,179.4
			L577.4,179.4z M598,196.1c-0.2,0-0.3,0-0.5-0.1c-0.1-0.1-0.2-0.2-0.3-0.5l-1.7-5h-9.7l-1.7,5c-0.1,0.3-0.4,0.5-0.7,0.5H581
			c-0.2,0-0.4-0.1-0.4-0.2c-0.1-0.1-0.1-0.3,0-0.5l7.7-22c0.2-0.5,0.4-0.9,0.6-1.1c0.3-0.2,0.7-0.3,1.1-0.3h1c0.6,0,1,0.1,1.3,0.3
			c0.3,0.3,0.5,0.7,0.6,1.1l7.7,22c0,0.1,0.1,0.1,0.1,0.2c0,0.1,0,0.2,0,0.2c-0.1,0.1-0.2,0.2-0.4,0.2H598z M592.3,180.6l-1.6-5
			h-0.2l-1.5,4.9l-2.3,7.3h7.9L592.3,180.6z M619.1,172.7c0-0.3,0.1-0.4,0.2-0.5c0.1-0.1,0.3-0.1,0.5-0.1h1.9c0.3,0,0.4,0,0.5,0.1
			c0.1,0.1,0.1,0.2,0.1,0.5v22.8c0,0.3,0,0.4-0.1,0.5c-0.1,0.1-0.3,0.1-0.5,0.1h-1.9c-0.2,0-0.3,0-0.5-0.1c-0.1-0.1-0.2-0.2-0.2-0.5
			v-10.7H607v10.7c0,0.3-0.1,0.4-0.1,0.5c-0.1,0.1-0.3,0.1-0.5,0.1h-1.9c-0.2,0-0.3,0-0.5-0.1c-0.1-0.1-0.2-0.2-0.2-0.5v-22.8
			c0-0.2,0.1-0.4,0.2-0.5c0.1-0.1,0.3-0.1,0.5-0.1h1.9c0.3,0,0.4,0,0.5,0.1c0.1,0.1,0.1,0.2,0.1,0.5v9.4h12.1L619.1,172.7z
			 M637.5,193.5c1,0,2-0.1,2.9-0.3c0.9-0.2,1.8-0.5,2.6-0.9c0.3-0.1,0.4-0.1,0.6,0c0.1,0.1,0.2,0.2,0.2,0.3l0.7,1.4
			c0.1,0.3,0.2,0.5,0.1,0.6c-0.1,0.1-0.2,0.2-0.3,0.3c-0.5,0.3-1.1,0.6-1.8,0.8c-0.6,0.2-1.2,0.4-1.9,0.5c-1.2,0.2-2.4,0.3-3.6,0.3
			c-1.5,0-2.9-0.2-4.3-0.7c-1.2-0.5-2.3-1.2-3.2-2.2c-0.9-1.1-1.6-2.4-2-3.7c-0.5-1.7-0.7-3.6-0.7-5.4c0-1.9,0.2-3.7,0.8-5.2
			c0.5-1.6,1.2-2.9,2.1-4c0.9-1.1,2-2,3.3-2.6c1.3-0.6,2.7-0.9,4.3-0.9c1,0,2,0.1,3,0.3c1,0.2,2.2,0.6,3.3,1.1
			c0.1,0.1,0.2,0.2,0.3,0.3c0,0.1,0,0.3-0.1,0.5l-0.8,1.6c0,0.1-0.1,0.2-0.2,0.3c-0.1,0.1-0.2,0-0.4,0c-1.6-0.7-3.3-1.1-5-1.1
			c-1.3,0-2.4,0.3-3.3,0.8c-0.9,0.5-1.7,1.3-2.3,2.2c-0.6,0.9-1.1,1.9-1.3,3.1c-0.3,1.2-0.4,2.4-0.4,3.6c0,1.3,0.1,2.4,0.4,3.5
			c0.2,1.1,0.6,2.1,1.2,2.9c0.6,0.8,1.4,1.5,2.3,1.9C634.8,193.3,636,193.5,637.5,193.5z M666.2,195.6c0,0.2,0,0.4-0.1,0.4
			c-0.1,0.1-0.2,0.1-0.4,0.1h-2c-0.1,0-0.3,0-0.4-0.1c-0.1-0.1-0.2-0.2-0.2-0.4v-20.7H651v20.7c0,0.2,0,0.4-0.1,0.4
			c-0.1,0.1-0.2,0.1-0.4,0.1h-2.1c-0.1,0-0.3,0-0.4-0.1c-0.1-0.1-0.1-0.2-0.1-0.4v-21.3c0-0.7,0.2-1.3,0.6-1.6
			c0.4-0.4,0.9-0.5,1.5-0.5h14.3c0.3,0,0.5,0,0.8,0.1c0.3,0.1,0.5,0.2,0.7,0.4c0.4,0.4,0.5,0.9,0.5,1.6V195.6z M691.1,184
			c0,4-0.9,7.1-2.6,9.2c-1.7,2.1-4.3,3.2-7.7,3.2c-3.4,0-5.9-1.1-7.6-3.2c-1.7-2.1-2.5-5.2-2.5-9.2c0-2,0.3-3.7,0.8-5.3
			c0.5-1.5,1.2-2.8,2.1-3.9c0.9-1,2-1.9,3.2-2.4c1.2-0.5,2.6-0.8,4.1-0.8c1.7,0,3.1,0.3,4.4,0.8c1.3,0.6,2.4,1.4,3.2,2.4
			c0.9,1.1,1.5,2.4,1.9,3.9C690.8,180.4,691.1,182.1,691.1,184z M687.8,184.2c0-1.3-0.1-2.5-0.3-3.6c-0.2-1.1-0.5-2.1-1.1-3.1
			c-0.5-0.9-1.2-1.6-2.1-2.1c-1.1-0.6-2.2-0.8-3.4-0.8c-1.2,0-2.3,0.3-3.2,0.8c-0.9,0.5-1.6,1.2-2.2,2c-0.6,0.9-1,1.9-1.3,3
			c-0.3,1.2-0.4,2.4-0.4,3.6c0,1.4,0.1,2.7,0.3,3.9c0.2,1.2,0.6,2.2,1.2,3c0.5,0.8,1.3,1.5,2.1,2c0.9,0.5,2,0.7,3.4,0.7
			c1.3,0,2.4-0.3,3.3-0.8c0.9-0.5,1.6-1.2,2.2-2.1c0.6-0.9,1-2,1.2-3.1C687.7,186.6,687.8,185.4,687.8,184.2z M695.5,173.8
			c0-0.6,0.1-1,0.4-1.3c0.3-0.3,0.7-0.4,1.3-0.4h8c1.1,0,2.1,0.2,3,0.5c0.9,0.3,1.7,0.8,2.3,1.5c0.6,0.6,1.2,1.4,1.5,2.3
			c0.4,0.9,0.5,1.8,0.5,2.9c0,0.6-0.1,1.4-0.3,2.2c-0.2,0.8-0.6,1.7-1.1,2.4c-0.6,0.8-1.3,1.4-2.3,1.9c-1,0.5-2.3,0.8-3.8,0.8h-6.4
			v9c0,0.3,0,0.4-0.1,0.5c-0.1,0.1-0.3,0.1-0.5,0.1h-1.8c-0.2,0-0.3,0-0.5-0.1c-0.1-0.1-0.2-0.2-0.2-0.5V173.8z M709.3,179.4
			c0-0.5-0.1-1-0.2-1.5c-0.2-0.5-0.4-1-0.8-1.4c-0.4-0.5-0.9-0.8-1.5-1.1c-0.8-0.3-1.6-0.4-2.4-0.4h-5.8v8.7h5.9
			c1.6,0,2.8-0.4,3.6-1.2C708.9,181.8,709.3,180.7,709.3,179.4L709.3,179.4z M721.3,174.9h-6.7c-0.2,0-0.3,0-0.4-0.1
			c-0.1-0.1-0.1-0.2-0.1-0.4v-1.7c0-0.2,0-0.3,0.1-0.4c0.1-0.1,0.2-0.1,0.4-0.1h16.8c0.2,0,0.3,0.1,0.4,0.1c0.1,0.1,0.1,0.2,0.1,0.4
			v1.7c0,0.2,0,0.4-0.1,0.4c-0.1,0.1-0.2,0.1-0.4,0.1h-6.9v20.6c0,0.3,0,0.4-0.1,0.5c-0.1,0.1-0.3,0.1-0.5,0.1H722
			c-0.2,0-0.3,0-0.5-0.1c-0.1-0.1-0.2-0.2-0.2-0.5V174.9z M750.3,172.7c0-0.2,0.1-0.4,0.2-0.5c0.1-0.1,0.3-0.1,0.5-0.1h1.9
			c0.3,0,0.4,0,0.5,0.1c0.1,0.1,0.1,0.2,0.1,0.5v22.8c0,0.3,0,0.4-0.1,0.5c-0.1,0.1-0.3,0.1-0.5,0.1h-1.9c-0.2,0-0.4,0-0.5-0.1
			c-0.1-0.1-0.2-0.2-0.2-0.5v-10.7h-12.1v10.7c0,0.3,0,0.4-0.1,0.5c-0.1,0.1-0.3,0.1-0.5,0.1h-1.9c-0.2,0-0.3,0-0.5-0.1
			c-0.1-0.1-0.2-0.2-0.2-0.5v-22.8c0-0.2,0.1-0.4,0.2-0.5c0.2-0.1,0.3-0.1,0.5-0.1h1.9c0.3,0,0.4,0,0.5,0.1c0.1,0.1,0.1,0.2,0.1,0.5
			v9.4h12.1V172.7z M773.9,196.1c-0.2,0-0.3,0-0.5-0.1c-0.1-0.1-0.2-0.2-0.3-0.5l-1.7-5h-9.7l-1.7,5c-0.1,0.3-0.4,0.5-0.7,0.5H757
			c-0.2,0-0.4-0.1-0.4-0.2c-0.1-0.1-0.1-0.3,0-0.5l7.7-22c0.2-0.5,0.4-0.9,0.6-1.1c0.2-0.2,0.6-0.3,1.1-0.3h1c0.6,0,1,0.1,1.3,0.3
			c0.3,0.3,0.5,0.7,0.6,1.1l7.7,22c0,0.1,0.1,0.1,0.1,0.2c0,0.1,0,0.2,0,0.2c-0.1,0.1-0.2,0.2-0.4,0.2H773.9z M768.2,180.6l-1.6-5
			h-0.2l-1.5,4.9l-2.3,7.3h8L768.2,180.6z M793.1,185.8h-4.9c-1.1,0-2.1,0.2-3,0.7c-0.8,0.4-1.4,1.3-1.8,2.7l-1.8,6.5
			c-0.1,0.2-0.1,0.3-0.3,0.4c-0.1,0-0.2,0-0.4,0h-2.2c-0.2,0-0.3,0-0.4-0.1c-0.1-0.1-0.1-0.2-0.1-0.3v-0.2l1.9-6.9
			c0.2-0.8,0.6-1.6,1.1-2.2c0.6-0.7,1.3-1.2,2.1-1.5c-1.2-0.4-2.2-1.3-3-2.4c-0.7-1.1-1-2.4-1-3.7c0-1,0.2-1.9,0.5-2.7
			c0.3-0.8,0.8-1.6,1.5-2.2c0.6-0.6,1.4-1.1,2.3-1.4c1-0.4,2-0.5,3-0.5h7.8c0.7,0,1.1,0.1,1.4,0.4c0.3,0.3,0.4,0.7,0.4,1.3v21.8
			c0,0.2,0,0.3-0.1,0.4c-0.1,0.1-0.3,0.1-0.4,0.1h-2.1c-0.2,0-0.3,0-0.4-0.1c-0.1-0.1-0.1-0.2-0.1-0.4V185.8z M787.1,175
			c-0.7,0-1.5,0.1-2.2,0.4c-0.5,0.2-1,0.6-1.4,1c-0.3,0.4-0.6,0.8-0.7,1.3c-0.1,0.5-0.2,0.9-0.2,1.4c0,0.5,0.1,1.1,0.3,1.5
			c0.2,0.5,0.5,0.9,0.8,1.3c0.7,0.8,1.9,1.2,3.6,1.2h5.8V175H787.1z M822.6,183.3c0.5,0.2,1,0.4,1.5,0.7c0.7,0.5,1.3,1.3,1.6,2.2
			c0.2,0.4,0.3,0.9,0.5,1.4l2.2,8c0,0.1,0,0.3,0,0.4c0,0.1-0.2,0.2-0.4,0.2h-2.1c-0.1,0-0.3,0-0.4-0.1c-0.1-0.1-0.2-0.2-0.3-0.4
			L823,188c-0.1-0.6-0.4-1.1-0.7-1.6c-0.2-0.4-0.5-0.7-0.9-1c-0.4-0.3-0.8-0.4-1.2-0.5c-0.5-0.1-1-0.1-1.6-0.1h-4.9v10.9
			c0,0.2,0,0.4-0.1,0.4c-0.1,0.1-0.2,0.1-0.4,0.1h-2c-0.1,0-0.3,0-0.4-0.1c-0.1-0.1-0.1-0.2-0.1-0.4v-23c0-0.2,0-0.4,0.1-0.4
			c0.1-0.1,0.3-0.1,0.4-0.1h2c0.2,0,0.3,0,0.4,0.1c0.1,0.1,0.1,0.2,0.1,0.4v9.3h4.6c0.4,0,0.8,0,1.2-0.1c0.5-0.1,0.9-0.3,1.3-0.5
			c0.4-0.3,0.7-0.6,1-1c0.3-0.5,0.6-1.1,0.8-1.8l1.5-5.9c0-0.2,0.1-0.3,0.3-0.4c0.1,0,0.2-0.1,0.4-0.1h1.9c0.3,0,0.4,0.1,0.5,0.2
			c0,0.1,0,0.3,0,0.4l-1.5,6.1c-0.2,0.9-0.6,1.8-1.1,2.6c-0.5,0.7-1.1,1.3-1.8,1.7V183.3z M851.5,184c0,4-0.9,7.1-2.6,9.2
			c-1.7,2.1-4.3,3.2-7.7,3.2c-3.4,0-5.9-1.1-7.6-3.2c-1.7-2.1-2.5-5.2-2.5-9.2c0-2,0.3-3.7,0.8-5.3c0.5-1.5,1.2-2.8,2.1-3.9
			c0.9-1.1,2-1.9,3.2-2.4c1.3-0.6,2.7-0.8,4.1-0.8c1.7,0,3.1,0.3,4.4,0.8c1.3,0.6,2.3,1.4,3.2,2.4c0.9,1.1,1.5,2.4,1.9,3.9
			C851.3,180.4,851.5,182.1,851.5,184z M848.3,184.2c0-1.3-0.1-2.5-0.3-3.6c-0.2-1.1-0.5-2.1-1.1-3.1c-0.5-0.9-1.2-1.6-2.1-2.1
			c-1.1-0.6-2.2-0.8-3.4-0.8c-1.2,0-2.3,0.3-3.2,0.8c-0.9,0.5-1.6,1.2-2.2,2c-0.6,0.9-1,1.9-1.3,3c-0.3,1.2-0.4,2.4-0.4,3.6
			c0,1.4,0.1,2.7,0.3,3.9c0.2,1.2,0.6,2.2,1.2,3c0.5,0.8,1.3,1.5,2.1,2c0.9,0.5,2,0.7,3.4,0.7c1.3,0,2.4-0.3,3.3-0.8
			c0.9-0.5,1.6-1.2,2.2-2.1c0.6-0.9,1-2,1.2-3.1C848.1,186.6,848.3,185.4,848.3,184.2z M875.5,177.7h-0.2c-0.1,0.3-0.2,0.5-0.3,0.8
			c-0.2,0.5-0.4,1-0.6,1.5c-0.2,0.5-0.4,1.1-0.6,1.5l-0.3,0.8c-0.1,0.2-0.2,0.5-0.4,1c-0.2,0.5-0.4,1.1-0.7,1.7l-0.8,2.1l-0.9,2.1
			L870,191c-0.2,0.5-0.3,0.8-0.4,1c-0.1,0.4-0.3,0.8-0.6,1.1c-0.2,0.2-0.6,0.3-1.1,0.3h-1.1c-0.5,0-0.9-0.1-1.2-0.3
			c-0.3-0.3-0.5-0.7-0.6-1.1c-0.1-0.3-0.3-0.7-0.4-1c-0.2-0.6-0.5-1.1-0.7-1.7l-0.9-2.1c-0.3-0.7-0.6-1.4-0.9-2.1
			c-0.2-0.6-0.5-1.1-0.7-1.7c-0.2-0.3-0.3-0.7-0.4-1l-1.8-4.4h-0.2v17.5c0,0.3,0,0.4-0.1,0.5c-0.1,0.1-0.3,0.1-0.5,0.1h-1.7
			c-0.2,0-0.4,0-0.5-0.1c-0.1-0.1-0.2-0.2-0.2-0.5v-21.7c0-0.5,0.1-0.9,0.3-1.3c0.2-0.3,0.7-0.5,1.3-0.5h0.9c0.4,0,0.8,0.1,1.1,0.3
			c0.3,0.2,0.5,0.5,0.7,1.1l4.7,11.7c0,0.1,0.2,0.4,0.4,0.9c0.2,0.5,0.4,1.1,0.7,1.7c0.2,0.6,0.5,1.2,0.6,1.7
			c0.2,0.5,0.3,0.8,0.4,0.9h0.1c0-0.1,0.1-0.4,0.3-0.9c0.4-1.1,0.9-2.2,1.3-3.3c0.2-0.5,0.3-0.8,0.4-0.9l0.5-1.3l0.9-2.2l1.1-2.6
			l1.1-2.6c0.3-0.8,0.6-1.5,0.8-2.1l0.4-1.1c0.2-0.6,0.5-0.9,0.8-1.1c0.3-0.2,0.7-0.3,1.1-0.3h0.9c0.7,0,1.1,0.2,1.4,0.5
			c0.2,0.4,0.4,0.8,0.3,1.2v21.7c0,0.3,0,0.4-0.1,0.5c-0.1,0.1-0.3,0.1-0.5,0.1h-1.7c-0.2,0-0.4,0-0.5-0.1c-0.1-0.1-0.2-0.2-0.2-0.5
			V177.7z M902,195.6c0,0.2,0,0.4-0.1,0.4c-0.1,0.1-0.2,0.1-0.4,0.1h-2c-0.1,0-0.3,0-0.4-0.1c-0.1-0.1-0.2-0.2-0.2-0.4v-20.7h-12.1
			v20.7c0,0.2,0,0.4-0.1,0.4c-0.1,0.1-0.2,0.1-0.4,0.1h-2.1c-0.1,0-0.3,0-0.4-0.1c-0.1-0.1-0.1-0.2-0.1-0.4v-21.3
			c0-0.7,0.2-1.3,0.6-1.6c0.4-0.4,0.9-0.5,1.5-0.5H900c0.6,0,1.1,0.2,1.5,0.5c0.4,0.4,0.5,0.9,0.5,1.6V195.6z M922.6,196.1
			c-0.2,0-0.3,0-0.5-0.1c-0.1-0.1-0.2-0.2-0.3-0.5l-1.7-5h-9.7l-1.7,5c-0.1,0.3-0.4,0.5-0.7,0.5h-2.3c-0.2,0-0.4-0.1-0.4-0.2
			c-0.1-0.1-0.1-0.3,0-0.5l7.7-22c0.2-0.5,0.4-0.9,0.6-1.1c0.3-0.2,0.7-0.3,1.1-0.3h1c0.6,0,1,0.1,1.2,0.3c0.3,0.3,0.5,0.7,0.6,1.1
			l7.7,22c0,0.1,0.1,0.1,0.1,0.2c0,0.1,0,0.2,0,0.2c-0.1,0.1-0.2,0.2-0.4,0.2H922.6z M916.8,180.6l-1.6-5h-0.2l-1.5,4.9l-2.3,7.3
			h7.9L916.8,180.6z M943.6,172.7c0-0.3,0.1-0.4,0.2-0.5c0.1-0.1,0.3-0.1,0.5-0.1h1.8c0.3,0,0.4,0,0.5,0.1c0.1,0.1,0.1,0.2,0.1,0.5
			v22.8c0,0.3-0.1,0.4-0.1,0.5c-0.1,0.1-0.3,0.1-0.5,0.1h-1.8c-0.2,0-0.3,0-0.5-0.1c-0.1-0.1-0.2-0.2-0.2-0.5v-10.7h-12.1v10.7
			c0,0.3,0,0.4-0.1,0.5c-0.1,0.1-0.3,0.1-0.5,0.1H929c-0.2,0-0.3,0-0.5-0.1c-0.1-0.1-0.2-0.2-0.2-0.5v-22.8c0-0.2,0.1-0.4,0.2-0.5
			c0.1-0.1,0.3-0.1,0.5-0.1h1.9c0.3,0,0.4,0,0.5,0.1c0.1,0.1,0.1,0.2,0.1,0.5v9.4h12.1V172.7z M967.4,176.3l-3,5.1l-8,13.3
			c-0.2,0.4-0.5,0.7-0.8,1.1c-0.2,0.2-0.6,0.3-1.1,0.3h-1c-0.6,0-1.1-0.1-1.3-0.4c-0.2-0.3-0.4-0.7-0.4-1.3v-21.8
			c0-0.2,0-0.4,0.1-0.4c0.1-0.1,0.3-0.1,0.4-0.1h2c0.2,0,0.3,0,0.4,0.1c0.1,0.1,0.1,0.2,0.1,0.4v19.2h0.1l2.8-4.7l8.2-13.6
			c0.2-0.4,0.5-0.7,0.8-1.1c0.2-0.2,0.6-0.3,1.1-0.3h1c0.7,0,1.1,0.1,1.3,0.4c0.2,0.3,0.3,0.7,0.3,1.3v21.8c0,0.2-0.1,0.4-0.1,0.4
			c-0.1,0.1-0.3,0.1-0.4,0.1h-2c-0.2,0-0.4,0-0.4-0.1c-0.1-0.1-0.1-0.2-0.1-0.4v-19.3H967.4z M989.1,185.8h-4.9
			c-1.1,0-2.1,0.2-3,0.7c-0.8,0.4-1.4,1.3-1.8,2.7l-1.8,6.5c0,0.2-0.1,0.3-0.3,0.4c-0.1,0-0.2,0-0.4,0h-2.2c-0.2,0-0.3,0-0.4-0.1
			c-0.1-0.1-0.1-0.2-0.1-0.3v-0.2l1.9-6.9c0.3-0.8,0.6-1.6,1.1-2.2c0.6-0.7,1.3-1.2,2.1-1.5c-1.2-0.5-2.2-1.3-2.9-2.4
			c-0.7-1.1-1-2.4-1-3.7c0-1,0.2-1.9,0.5-2.7c0.3-0.8,0.8-1.6,1.5-2.2c0.6-0.6,1.4-1.1,2.3-1.4c0.9-0.3,1.9-0.5,3-0.5h7.8
			c0.7,0,1.1,0.1,1.4,0.4c0.3,0.3,0.4,0.7,0.4,1.3v21.8c0,0.2,0,0.3-0.1,0.4c-0.1,0.1-0.3,0.1-0.4,0.1h-2.1c-0.2,0-0.4,0-0.4-0.1
			c-0.1-0.1-0.1-0.2-0.1-0.4V185.8z M983.1,175c-0.7,0-1.5,0.1-2.2,0.4c-0.5,0.2-1,0.6-1.4,1c-0.3,0.4-0.6,0.8-0.7,1.3
			c-0.1,0.5-0.2,0.9-0.2,1.4c0,0.5,0.1,1.1,0.3,1.5c0.2,0.5,0.5,0.9,0.8,1.3c0.7,0.8,1.9,1.2,3.6,1.2h5.8V175H983.1z"/>
	</g>
</g>
</svg>
