<svg width="159" height="41" viewBox="0 0 159 41" fill="none" xmlns="http://www.w3.org/2000/svg"><path d="M18.314 0.373291C17.3156 0.373291 16.4669 0.792093 15.8013 1.63745L5.98351 14.155L5.55919 1.66847C5.50094 0.792093 4.98509 0.373291 3.98667 0.404313C3.34602 0.404313 2.73865 0.598203 2.19784 1.017C1.59046 1.44356 1.19942 1.94767 0.983093 2.56037C0.86661 2.87059 0.800049 3.14979 0.800049 3.40572L2.19784 21.0342C2.19784 21.6158 2.49736 21.9028 3.10474 21.9028C3.71211 21.9028 4.22796 21.6158 4.67725 21.0342L19.2209 3.40572C19.4039 3.12652 19.5537 2.83957 19.6702 2.56037C19.8865 1.94767 19.8865 1.44356 19.6452 1.017C19.3707 0.598203 18.9463 0.373291 18.314 0.373291Z" fill="#EC1B22"></path> <path d="M94.4022 21.3686C94.4022 21.9581 94.735 22.2373 95.309 22.2373C95.9164 22.2373 96.4323 21.9581 96.8899 21.3686L111.458 3.70918C111.641 3.461 111.791 3.1818 111.883 2.90259C112.124 2.28215 112.091 1.77803 111.849 1.35923C111.575 0.932676 111.151 0.707764 110.518 0.707764C109.52 0.707764 108.671 1.13432 108.006 1.97192L98.1878 14.4894L97.7635 2.00295C97.7052 1.13432 97.1894 0.707764 96.191 0.707764C95.5503 0.707764 94.9513 0.932676 94.3772 1.35923C93.8281 1.77803 93.4037 2.31317 93.1874 2.90259C93.0709 3.21282 93.0127 3.49202 93.0127 3.7402L94.4022 21.3686Z" fill="#EC1B22"></path> <path d="M23.7636 11.0149C24.6455 9.1613 26.0017 7.58691 27.8488 6.37704C29.7042 5.1439 31.5762 4.53121 33.4566 4.53121C35.3619 4.53121 36.6681 5.1439 37.367 6.35378C38.0576 7.58691 37.9994 9.13028 37.1258 11.0149C36.2438 12.8607 34.9126 14.4041 33.0322 15.645C31.2184 16.8781 29.3381 17.4986 27.4244 17.4986C25.5191 17.4986 24.2129 16.8781 23.5223 15.645C22.8234 14.4351 22.8899 12.8607 23.7636 11.0149ZM25.4276 21.7641C28.6392 21.7641 31.8175 20.7249 34.9708 18.6464C38.1491 16.5989 40.4205 14.0163 41.8516 10.9839C43.2744 7.95143 43.3326 5.39984 42.1179 3.35236C40.8782 1.27387 38.665 0.234619 35.4534 0.234619C32.2418 0.234619 29.0635 1.27387 25.9102 3.35236C22.7319 5.42311 20.4605 7.98245 19.0377 11.0149C17.6482 14.0473 17.5567 16.5989 18.7631 18.6774C20.0112 20.7481 22.216 21.7641 25.4276 21.7641Z" fill="#EC1B22"></path> <path d="M40.9947 21.229H54.9643C55.5717 21.229 56.1708 21.0041 56.8114 20.5853C57.4188 20.1588 57.8681 19.6546 58.1426 19.0652C58.4172 18.5068 58.4505 18.0027 58.2092 17.5839C57.9596 17.1263 57.5685 16.9324 56.9612 16.9324H49.1735L64.8986 2.08824C65.0484 1.94864 65.1732 1.77802 65.2647 1.60739C65.3562 1.38248 65.3812 1.18859 65.2897 0.986948C65.1732 0.824081 65.0234 0.73877 64.7738 0.73877H52.8094C52.2103 0.769792 51.603 0.963681 50.9623 1.38248C50.33 1.80128 49.9057 2.31315 49.6061 2.90258C49.3565 3.492 49.3316 3.99611 49.5729 4.41492C49.7809 4.83372 50.2052 5.03536 50.8126 5.03536H56.3538L40.9365 19.8253C40.7285 20.0502 40.5787 20.2208 40.4872 20.4147C40.2376 20.9498 40.3957 21.229 40.9947 21.229Z" fill="#EC1B22"></path> <path d="M82.6206 10.9839C81.7386 12.8375 80.3741 14.3808 78.5603 15.614C76.7133 16.8238 74.8329 17.4365 72.9276 17.4365C71.014 17.4365 69.716 16.8238 69.0171 15.614C68.3182 14.3808 68.3848 12.8375 69.2584 10.9839C70.1404 9.10702 71.5049 7.55591 73.3519 6.32277C75.199 5.12065 77.0461 4.50021 78.9514 4.50021C80.865 4.50021 82.163 5.12065 82.8619 6.32277C83.5608 7.55591 83.4942 9.10702 82.6206 10.9839ZM87.621 3.29034C86.373 1.24286 84.1681 0.203613 80.9565 0.203613C77.745 0.203613 74.5584 1.24286 71.4133 3.32136C68.235 5.39986 65.9553 7.95144 64.5326 10.9839C63.1431 14.0163 63.0516 16.5679 64.258 18.6464C65.506 20.6939 67.7192 21.7331 70.9224 21.7331C74.134 21.7331 77.3206 20.6939 80.4657 18.6154C83.6523 16.5446 85.9237 13.9853 87.3464 10.9529C88.7359 7.92818 88.8607 5.36883 87.621 3.29034Z" fill="#EC1B22"></path> <path d="M130.295 10.9297C129.446 12.7833 128.082 14.3499 126.235 15.5598C124.388 16.7929 122.516 17.4133 120.602 17.4133C118.73 17.4133 117.424 16.7929 116.7 15.5598C116.001 14.3499 116.092 12.8065 116.941 10.9297C117.815 9.07609 119.179 7.53273 121.026 6.29959C122.873 5.0587 124.754 4.46927 126.634 4.44601C128.539 4.44601 129.846 5.0587 130.536 6.29959C131.268 7.50171 131.177 9.04507 130.295 10.9297ZM128.631 0.149414C125.453 0.180436 122.241 1.21193 119.088 3.29043C115.943 5.3379 113.638 7.92827 112.215 10.9529C110.818 13.9621 110.726 16.5137 111.941 18.5922C113.18 20.6707 115.394 21.7099 118.605 21.7099C121.817 21.7099 124.995 20.6707 128.148 18.5922C131.327 16.5137 133.598 13.9621 135.021 10.9297C136.444 7.89724 136.535 5.3379 135.295 3.26716C134.056 1.21193 131.843 0.149414 128.631 0.149414Z" fill="#EC1B22"></path> <path d="M158.467 0.932766C158.351 0.769898 158.193 0.653564 157.951 0.653564L145.987 0.684587C145.38 0.684587 144.772 0.878476 144.14 1.3283C143.532 1.7471 143.075 2.25122 142.809 2.81737C142.534 3.4068 142.501 3.91091 142.75 4.32971C142.992 4.75627 143.383 4.95016 143.99 4.95016H149.565L134.114 19.7401C133.898 19.965 133.748 20.1589 133.656 20.3295C133.415 20.8956 133.565 21.1438 134.172 21.1438H148.142C148.741 21.1438 149.348 20.9189 149.989 20.5001C150.588 20.0813 151.046 19.6005 151.32 18.98C151.595 18.4216 151.62 17.9175 151.378 17.4987C151.17 17.0721 150.746 16.8472 150.139 16.8472L142.351 16.8783L158.076 2.0263C158.259 1.8867 158.351 1.72384 158.434 1.55321C158.559 1.29728 158.559 1.10339 158.467 0.932766Z" fill="#EC1B22"></path> <path d="M6.61694 40.8485H5.59911V33.2758H1.8126V40.8485H0.800049V32.354H6.61694V40.8485Z" fill="#4A4949"></path> <path d="M12.803 36.9221H9.47528V39.9325H13.3409V40.8485H8.46273V32.354H13.2882V33.2758H9.47528V36.0061H12.803V36.9221Z" fill="#4A4949"></path> <path d="M15.6139 37.523V40.8485H14.6013V32.354H17.4333C18.2736 32.354 18.931 32.5912 19.4057 33.0657C19.8838 33.5403 20.1229 34.1684 20.1229 34.9502C20.1229 35.7747 19.8891 36.4106 19.4215 36.8579C18.9574 37.3013 18.2911 37.523 17.4227 37.523H15.6139ZM15.6139 36.6071H17.4333C17.9747 36.6071 18.3896 36.467 18.6779 36.187C18.9662 35.9031 19.1103 35.4947 19.1103 34.9618C19.1103 34.4562 18.9662 34.0517 18.6779 33.7483C18.3896 33.445 17.9941 33.2874 17.4913 33.2758H15.6139V36.6071Z" fill="#4A4949"></path> <path d="M25.7552 36.9221H22.4275V39.9325H26.2931V40.8485H21.4149V32.354H26.2404V33.2758H22.4275V36.0061H25.7552V36.9221Z" fill="#4A4949"></path> <path d="M27.5535 40.8485V32.354H30.0638C30.897 32.354 31.5229 32.5446 31.9412 32.9257C32.3631 33.3069 32.5741 33.8709 32.5741 34.6176C32.5741 35.0143 32.4721 35.3663 32.2682 35.6736C32.0643 35.977 31.7865 36.2123 31.435 36.3795C31.8498 36.5079 32.1768 36.7529 32.4159 37.1146C32.6585 37.4724 32.7798 37.9003 32.7798 38.3981C32.7798 39.1605 32.5565 39.7594 32.11 40.195C31.6635 40.6306 31.0324 40.8485 30.2167 40.8485H27.5535ZM28.5661 36.8754V39.9325H30.2378C30.709 39.9325 31.0799 39.7983 31.3506 39.5299C31.6248 39.2577 31.7619 38.8843 31.7619 38.4098C31.7619 37.3869 31.2592 36.8754 30.2537 36.8754H28.5661ZM28.5661 35.977H30.0954C30.5384 35.977 30.8918 35.8545 31.1555 35.6094C31.4227 35.3644 31.5563 35.0318 31.5563 34.6118C31.5563 34.1451 31.4332 33.8067 31.1871 33.5967C30.941 33.3827 30.5666 33.2758 30.0638 33.2758H28.5661V35.977Z" fill="#4A4949"></path> <path d="M40.1893 36.8754C40.1893 37.7078 40.0627 38.4351 39.8096 39.0574C39.5565 39.6758 39.1978 40.1484 38.7338 40.4751C38.2697 40.8018 37.7282 40.9651 37.1095 40.9651C36.5047 40.9651 35.9686 40.8018 35.501 40.4751C35.0334 40.1445 34.6695 39.6758 34.4093 39.0691C34.1527 38.4584 34.0208 37.7525 34.0138 36.9513V36.3387C34.0138 35.5219 34.1421 34.8004 34.3988 34.1742C34.6554 33.548 35.0176 33.0696 35.4852 32.739C35.9563 32.4045 36.4942 32.2373 37.0989 32.2373C37.7142 32.2373 38.2556 32.4026 38.7232 32.7332C39.1943 33.0599 39.5565 33.5364 39.8096 34.1626C40.0627 34.7849 40.1893 35.5102 40.1893 36.3387V36.8754ZM39.182 36.327C39.182 35.3197 38.9992 34.5476 38.6336 34.0109C38.2679 33.4702 37.7564 33.1999 37.0989 33.1999C36.459 33.1999 35.9545 33.4702 35.5854 34.0109C35.2197 34.5476 35.0316 35.2944 35.0211 36.2512V36.8754C35.0211 37.8517 35.2057 38.6198 35.5748 39.1799C35.9475 39.7361 36.459 40.0142 37.1095 40.0142C37.7634 40.0142 38.2697 39.7516 38.6283 39.2266C38.9869 38.6976 39.1715 37.9411 39.182 36.9571V36.327Z" fill="#4A4949"></path> <path d="M45.6476 34.6351C45.6476 34.184 45.4982 33.8261 45.1993 33.5616C44.904 33.2933 44.4874 33.1591 43.9494 33.1591C43.4994 33.1591 43.1215 33.2972 42.8156 33.5733C42.5132 33.8456 42.3621 34.184 42.3621 34.5885H41.3495C41.3495 34.1373 41.4603 33.7328 41.6818 33.375C41.9068 33.0171 42.2197 32.739 42.6205 32.5407C43.0213 32.3384 43.4643 32.2373 43.9494 32.2373C44.8073 32.2373 45.4735 32.4512 45.9482 32.8791C46.4228 33.303 46.6601 33.8942 46.6601 34.6526C46.6601 35.0455 46.5511 35.4033 46.3332 35.7261C46.1152 36.0489 45.8111 36.3037 45.4208 36.4904C46.3244 36.8249 46.7761 37.488 46.7761 38.4798C46.7761 39.2421 46.5195 39.8469 46.0062 40.2942C45.4929 40.7415 44.8073 40.9651 43.9494 40.9651C43.4397 40.9651 42.9756 40.866 42.5572 40.6676C42.1423 40.4653 41.8189 40.1795 41.5868 39.81C41.3548 39.4405 41.2388 39.001 41.2388 38.4915H42.2513C42.2513 38.9388 42.4113 39.3121 42.7312 39.6116C43.0512 39.9072 43.4572 40.055 43.9494 40.055C44.5014 40.055 44.9409 39.9131 45.2679 39.6291C45.5984 39.3452 45.7636 38.9699 45.7636 38.5031C45.7636 37.5075 45.2063 36.9999 44.0918 36.9804H43.1426V36.0586H44.0866C44.5999 36.047 44.9884 35.9186 45.2521 35.6736C45.5157 35.4286 45.6476 35.0824 45.6476 34.6351Z" fill="#4A4949"></path> <path d="M50.1144 37.0329H49.181V40.8485H48.1684V32.354H49.181V36.0995H49.972L52.6563 32.354H53.9167L50.9846 36.4729L54.133 40.8485H52.8936L50.1144 37.0329Z" fill="#4A4949"></path> <path d="M59.9024 32.354H60.9149V40.8485H59.9024V34.3026L56.1211 40.8485H55.1033V32.354H56.1211V38.8999L59.9024 32.354Z" fill="#4A4949"></path> <path d="M71.0879 38.1531C70.993 39.0515 70.6924 39.7458 70.1861 40.2359C69.6833 40.7221 69.0136 40.9651 68.1768 40.9651C67.2697 40.9651 66.542 40.6054 65.9935 39.8858C65.4486 39.1663 65.1761 38.2037 65.1761 36.9979V36.1812C65.1761 35.3916 65.3027 34.6974 65.5558 34.0984C65.8124 33.4994 66.1746 33.0405 66.6422 32.7215C67.1098 32.3987 67.6512 32.2373 68.2665 32.2373C69.0821 32.2373 69.7361 32.4901 70.2283 32.9957C70.7205 33.4975 71.007 34.1937 71.0879 35.0844H70.0701C69.9822 34.4076 69.7906 33.9175 69.4952 33.6142C69.2034 33.3108 68.7938 33.1591 68.2665 33.1591C67.6196 33.1591 67.1115 33.4236 66.7424 33.9525C66.3767 34.4815 66.1939 35.2341 66.1939 36.2103V37.0329C66.1939 37.9547 66.3679 38.6879 66.716 39.2324C67.0641 39.7769 67.551 40.0492 68.1768 40.0492C68.7393 40.0492 69.17 39.9092 69.4689 39.6291C69.7712 39.3452 69.9716 38.8532 70.0701 38.1531H71.0879Z" fill="#4A4949"></path> <path d="M77.1579 33.2758H73.4558V35.8195H75.3649C76.1665 35.8311 76.7923 36.0586 77.2423 36.502C77.6923 36.9454 77.9173 37.5483 77.9173 38.3106C77.9173 39.0768 77.6906 39.6875 77.237 40.1425C76.7835 40.5976 76.1647 40.8329 75.3807 40.8485H72.438V32.354H77.1579V33.2758ZM73.4558 36.7412V39.9325H75.3069C75.8096 39.9325 76.1999 39.7847 76.4776 39.4891C76.7589 39.1935 76.8995 38.7968 76.8995 38.2989C76.8995 37.8206 76.7642 37.4433 76.4934 37.1671C76.2262 36.891 75.8448 36.749 75.349 36.7412H73.4558Z" fill="#4A4949"></path> <path d="M85.195 36.8754C85.195 37.7078 85.0685 38.4351 84.8153 39.0574C84.5622 39.6758 84.2036 40.1484 83.7395 40.4751C83.2754 40.8018 82.734 40.9651 82.1152 40.9651C81.5105 40.9651 80.9743 40.8018 80.5067 40.4751C80.0391 40.1445 79.6752 39.6758 79.4151 39.0691C79.1584 38.4584 79.0266 37.7525 79.0195 36.9513V36.3387C79.0195 35.5219 79.1479 34.8004 79.4045 34.1742C79.6612 33.548 80.0233 33.0696 80.4909 32.739C80.962 32.4045 81.4999 32.2373 82.1047 32.2373C82.7199 32.2373 83.2614 32.4026 83.729 32.7332C84.2001 33.0599 84.5622 33.5364 84.8153 34.1626C85.0685 34.7849 85.195 35.5102 85.195 36.3387V36.8754ZM84.1878 36.327C84.1878 35.3197 84.005 34.5476 83.6393 34.0109C83.2737 33.4702 82.7621 33.1999 82.1047 33.1999C81.4648 33.1999 80.9603 33.4702 80.5911 34.0109C80.2255 34.5476 80.0374 35.2944 80.0268 36.2512V36.8754C80.0268 37.8517 80.2114 38.6198 80.5806 39.1799C80.9532 39.7361 81.4648 40.0142 82.1152 40.0142C82.7691 40.0142 83.2754 39.7516 83.634 39.2266C83.9926 38.6976 84.1772 37.9411 84.1878 36.9571V36.327Z" fill="#4A4949"></path> <path d="M87.7264 37.523V40.8485H86.7139V32.354H89.5458C90.3861 32.354 91.0436 32.5912 91.5182 33.0657C91.9964 33.5403 92.2354 34.1684 92.2354 34.9502C92.2354 35.7747 92.0016 36.4106 91.534 36.8579C91.0699 37.3013 90.4037 37.523 89.5353 37.523H87.7264ZM87.7264 36.6071H89.5458C90.0873 36.6071 90.5021 36.467 90.7904 36.187C91.0787 35.9031 91.2229 35.4947 91.2229 34.9618C91.2229 34.4562 91.0787 34.0517 90.7904 33.7483C90.5021 33.445 90.1066 33.2874 89.6039 33.2758H87.7264V36.6071Z" fill="#4A4949"></path> <path d="M99.4288 40.8485H98.4109V36.9221H94.54V40.8485H93.5275V32.354H94.54V36.0061H98.4109V32.354H99.4288V40.8485Z" fill="#4A4949"></path> <path d="M102.287 35.8195H104.196C104.998 35.8311 105.624 36.0586 106.074 36.502C106.524 36.9454 106.749 37.5483 106.749 38.3106C106.749 39.0768 106.522 39.6875 106.068 40.1425C105.615 40.5976 104.996 40.8329 104.212 40.8485H101.275V32.354H102.287V35.8195ZM102.287 36.7412V39.9325H104.138C104.641 39.9325 105.031 39.7847 105.309 39.4891C105.59 39.1935 105.731 38.7968 105.731 38.2989C105.731 37.8206 105.595 37.4433 105.325 37.1671C105.058 36.891 104.676 36.749 104.18 36.7412H102.287ZM108.689 40.8485H107.677V32.354H108.689V40.8485Z" fill="#4A4949"></path> <path d="M113.172 35.6094L115.013 32.354H116.204L113.778 36.5662L116.262 40.8485H115.06L113.172 37.5347L111.273 40.8485H110.076L112.566 36.5662L110.134 32.354H111.321L113.172 35.6094Z" fill="#4A4949"></path> <path d="M124.88 33.2758H121.177V40.8485H120.16V32.354H124.88V33.2758Z" fill="#4A4949"></path> <path d="M127.142 37.523V40.8485H126.129V32.354H128.961C129.802 32.354 130.459 32.5912 130.934 33.0657C131.412 33.5403 131.651 34.1684 131.651 34.9502C131.651 35.7747 131.417 36.4106 130.95 36.8579C130.486 37.3013 129.819 37.523 128.951 37.523H127.142ZM127.142 36.6071H128.961C129.503 36.6071 129.918 36.467 130.206 36.187C130.494 35.9031 130.639 35.4947 130.639 34.9618C130.639 34.4562 130.494 34.0517 130.206 33.7483C129.918 33.445 129.522 33.2874 129.019 33.2758H127.142V36.6071Z" fill="#4A4949"></path> <path d="M135.58 37.2838L137.347 32.354H138.523L135.807 39.4308C135.624 39.8819 135.453 40.2028 135.295 40.3934C135.137 40.5801 134.951 40.724 134.736 40.8251C134.525 40.9224 134.26 40.971 133.94 40.971C133.662 40.971 133.485 40.9535 133.407 40.9185L133.439 40.0317L133.919 40.055C134.288 40.055 134.562 39.8586 134.741 39.4658L134.873 39.1624L135.074 38.6432L132.458 32.354H133.592L135.58 37.2838Z" fill="#4A4949"></path> <path d="M143.675 34.6351C143.675 34.184 143.526 33.8261 143.227 33.5616C142.931 33.2933 142.515 33.1591 141.977 33.1591C141.527 33.1591 141.149 33.2972 140.843 33.5733C140.541 33.8456 140.39 34.184 140.39 34.5885H139.377C139.377 34.1373 139.488 33.7328 139.709 33.375C139.934 33.0171 140.247 32.739 140.648 32.5407C141.049 32.3384 141.492 32.2373 141.977 32.2373C142.835 32.2373 143.501 32.4512 143.976 32.8791C144.45 33.303 144.688 33.8942 144.688 34.6526C144.688 35.0455 144.579 35.4033 144.361 35.7261C144.143 36.0489 143.839 36.3037 143.448 36.4904C144.352 36.8249 144.804 37.488 144.804 38.4798C144.804 39.2421 144.547 39.8469 144.034 40.2942C143.52 40.7415 142.835 40.9651 141.977 40.9651C141.467 40.9651 141.003 40.866 140.585 40.6676C140.17 40.4653 139.846 40.1795 139.614 39.81C139.382 39.4405 139.266 39.001 139.266 38.4915H140.279C140.279 38.9388 140.439 39.3121 140.759 39.6116C141.079 39.9072 141.485 40.055 141.977 40.055C142.529 40.055 142.968 39.9131 143.295 39.6291C143.626 39.3452 143.791 38.9699 143.791 38.5031C143.791 37.5075 143.234 36.9999 142.119 36.9804H141.17V36.0586H142.114C142.627 36.047 143.016 35.9186 143.28 35.6736C143.543 35.4286 143.675 35.0824 143.675 34.6351Z" fill="#4A4949"></path> <path d="M152.055 36.8754C152.055 37.7078 151.928 38.4351 151.675 39.0574C151.422 39.6758 151.064 40.1484 150.599 40.4751C150.135 40.8018 149.594 40.9651 148.975 40.9651C148.37 40.9651 147.834 40.8018 147.367 40.4751C146.899 40.1445 146.535 39.6758 146.275 39.0691C146.018 38.4584 145.887 37.7525 145.879 36.9513V36.3387C145.879 35.5219 146.008 34.8004 146.264 34.1742C146.521 33.548 146.883 33.0696 147.351 32.739C147.822 32.4045 148.36 32.2373 148.965 32.2373C149.58 32.2373 150.121 32.4026 150.589 32.7332C151.06 33.0599 151.422 33.5364 151.675 34.1626C151.928 34.7849 152.055 35.5102 152.055 36.3387V36.8754ZM151.048 36.327C151.048 35.3197 150.865 34.5476 150.499 34.0109C150.134 33.4702 149.622 33.1999 148.965 33.1999C148.325 33.1999 147.82 33.4702 147.451 34.0109C147.085 34.5476 146.897 35.2944 146.887 36.2512V36.8754C146.887 37.8517 147.071 38.6198 147.441 39.1799C147.813 39.7361 148.325 40.0142 148.975 40.0142C149.629 40.0142 150.135 39.7516 150.494 39.2266C150.853 38.6976 151.037 37.9411 151.048 36.9571V36.327Z" fill="#4A4949"></path> <path d="M153.574 40.8485V32.354H156.084C156.917 32.354 157.543 32.5446 157.962 32.9257C158.383 33.3069 158.594 33.8709 158.594 34.6176C158.594 35.0143 158.492 35.3663 158.288 35.6736C158.085 35.977 157.807 36.2123 157.455 36.3795C157.87 36.5079 158.197 36.7529 158.436 37.1146C158.679 37.4724 158.8 37.9003 158.8 38.3981C158.8 39.1605 158.577 39.7594 158.13 40.195C157.684 40.6306 157.053 40.8485 156.237 40.8485H153.574ZM154.586 36.8754V39.9325H156.258C156.729 39.9325 157.1 39.7983 157.371 39.5299C157.645 39.2577 157.782 38.8843 157.782 38.4098C157.782 37.3869 157.279 36.8754 156.274 36.8754H154.586ZM154.586 35.977H156.116C156.559 35.977 156.912 35.8545 157.176 35.6094C157.443 35.3644 157.577 35.0318 157.577 34.6118C157.577 34.1451 157.454 33.8067 157.207 33.5967C156.961 33.3827 156.587 33.2758 156.084 33.2758H154.586V35.977Z" fill="#4A4949"></path> <defs><clipPath id="clip0"><rect width="158" height="21.7156" fill="white" transform="translate(0.800049 0.149414)"></rect></clipPath></defs></svg>